%TF.GenerationSoftware,KiCad,Pcbnew,8.0.3*%
%TF.CreationDate,2024-07-11T18:12:52-04:00*%
%TF.ProjectId,K9HZ_100W_11band_LPF-Filter,4b39485a-5f31-4303-9057-5f313162616e,rev?*%
%TF.SameCoordinates,Original*%
%TF.FileFunction,Soldermask,Top*%
%TF.FilePolarity,Negative*%
%FSLAX46Y46*%
G04 Gerber Fmt 4.6, Leading zero omitted, Abs format (unit mm)*
G04 Created by KiCad (PCBNEW 8.0.3) date 2024-07-11 18:12:52*
%MOMM*%
%LPD*%
G01*
G04 APERTURE LIST*
G04 Aperture macros list*
%AMRoundRect*
0 Rectangle with rounded corners*
0 $1 Rounding radius*
0 $2 $3 $4 $5 $6 $7 $8 $9 X,Y pos of 4 corners*
0 Add a 4 corners polygon primitive as box body*
4,1,4,$2,$3,$4,$5,$6,$7,$8,$9,$2,$3,0*
0 Add four circle primitives for the rounded corners*
1,1,$1+$1,$2,$3*
1,1,$1+$1,$4,$5*
1,1,$1+$1,$6,$7*
1,1,$1+$1,$8,$9*
0 Add four rect primitives between the rounded corners*
20,1,$1+$1,$2,$3,$4,$5,0*
20,1,$1+$1,$4,$5,$6,$7,0*
20,1,$1+$1,$6,$7,$8,$9,0*
20,1,$1+$1,$8,$9,$2,$3,0*%
%AMRotRect*
0 Rectangle, with rotation*
0 The origin of the aperture is its center*
0 $1 length*
0 $2 width*
0 $3 Rotation angle, in degrees counterclockwise*
0 Add horizontal line*
21,1,$1,$2,0,0,$3*%
G04 Aperture macros list end*
%ADD10C,5.600000*%
%ADD11RoundRect,0.336956X0.563044X-0.438044X0.563044X0.438044X-0.563044X0.438044X-0.563044X-0.438044X0*%
%ADD12RoundRect,0.336956X-0.563044X0.438044X-0.563044X-0.438044X0.563044X-0.438044X0.563044X0.438044X0*%
%ADD13RoundRect,0.336956X0.088388X-0.707876X0.707876X-0.088388X-0.088388X0.707876X-0.707876X0.088388X0*%
%ADD14RoundRect,0.336956X-0.707876X-0.088388X-0.088388X-0.707876X0.707876X0.088388X0.088388X0.707876X0*%
%ADD15RoundRect,0.336956X0.438044X0.563044X-0.438044X0.563044X-0.438044X-0.563044X0.438044X-0.563044X0*%
%ADD16C,1.800000*%
%ADD17C,2.050000*%
%ADD18C,2.250000*%
%ADD19C,2.300000*%
%ADD20R,1.800000X1.800000*%
%ADD21RotRect,1.800000X1.800000X135.000000*%
%ADD22RoundRect,0.250000X0.600000X0.600000X-0.600000X0.600000X-0.600000X-0.600000X0.600000X-0.600000X0*%
%ADD23C,1.700000*%
G04 APERTURE END LIST*
D10*
%TO.C,H4*%
X265200000Y-45800000D03*
%TD*%
%TO.C,H3*%
X172200000Y-45800000D03*
%TD*%
%TO.C,H2*%
X265200000Y-138800000D03*
%TD*%
%TO.C,H1*%
X172200000Y-138800000D03*
%TD*%
D11*
%TO.C,C106*%
X173188909Y-114862923D03*
X173188909Y-112412923D03*
%TD*%
D12*
%TO.C,C105*%
X173188909Y-107078923D03*
X173188909Y-109528923D03*
%TD*%
D13*
%TO.C,C99*%
X253125065Y-122492818D03*
X254857477Y-120760406D03*
%TD*%
%TO.C,C98*%
X252363065Y-94298818D03*
X254095477Y-92566406D03*
%TD*%
D14*
%TO.C,C90*%
X240609410Y-126436112D03*
X242341822Y-128168524D03*
%TD*%
D13*
%TO.C,C89*%
X244767588Y-95032412D03*
X246500000Y-93300000D03*
%TD*%
D14*
%TO.C,C83*%
X226297703Y-125852717D03*
X228030115Y-127585129D03*
%TD*%
D13*
%TO.C,C82*%
X223533794Y-94166206D03*
X225266206Y-92433794D03*
%TD*%
D14*
%TO.C,C76*%
X211723065Y-125078406D03*
X213455477Y-126810818D03*
%TD*%
D13*
%TO.C,C75*%
X202167588Y-94932412D03*
X203900000Y-93200000D03*
%TD*%
D14*
%TO.C,C65*%
X197833794Y-125933794D03*
X199566206Y-127666206D03*
%TD*%
D13*
%TO.C,C64*%
X209667588Y-94132412D03*
X211400000Y-92400000D03*
%TD*%
%TO.C,C58*%
X257355358Y-74113839D03*
X259087770Y-72381427D03*
%TD*%
D15*
%TO.C,C57*%
X257125000Y-44400000D03*
X254675000Y-44400000D03*
%TD*%
D14*
%TO.C,C49*%
X246667588Y-77067588D03*
X248400000Y-78800000D03*
%TD*%
D15*
%TO.C,C48*%
X243425000Y-44200000D03*
X240975000Y-44200000D03*
%TD*%
D14*
%TO.C,C38*%
X232569703Y-77238700D03*
X234302115Y-78971112D03*
%TD*%
D15*
%TO.C,C37*%
X229200000Y-44400000D03*
X226750000Y-44400000D03*
%TD*%
D14*
%TO.C,C26*%
X218423703Y-77465717D03*
X220156115Y-79198129D03*
%TD*%
D15*
%TO.C,C25*%
X214925000Y-44300000D03*
X212475000Y-44300000D03*
%TD*%
D14*
%TO.C,C14*%
X203495959Y-77238700D03*
X205228371Y-78971112D03*
%TD*%
D15*
%TO.C,C13*%
X199500000Y-44300000D03*
X197050000Y-44300000D03*
%TD*%
%TO.C,C1*%
X182250000Y-44400000D03*
X184700000Y-44400000D03*
%TD*%
D14*
%TO.C,C2*%
X188490794Y-77465717D03*
X190223206Y-79198129D03*
%TD*%
D16*
%TO.C,L21*%
X187405923Y-130205923D03*
X192794077Y-135594077D03*
%TD*%
%TO.C,L23*%
X202090755Y-115361769D03*
X207478909Y-120749923D03*
%TD*%
%TO.C,L33*%
X245170832Y-130474769D03*
X250558986Y-135862923D03*
%TD*%
%TO.C,L29*%
X230496177Y-115957475D03*
X235884331Y-121345629D03*
%TD*%
%TO.C,L12*%
X221983986Y-81352846D03*
X227372140Y-86741000D03*
%TD*%
%TO.C,L9*%
X207632986Y-81352846D03*
X213021140Y-86741000D03*
%TD*%
D17*
%TO.C,J1*%
X173442909Y-100937923D03*
D18*
X170902909Y-98397923D03*
X170902909Y-103477923D03*
X175982909Y-98397923D03*
X175982909Y-103477923D03*
%TD*%
D16*
%TO.C,L3*%
X177673000Y-81379923D03*
X183061154Y-86768077D03*
%TD*%
%TO.C,L8*%
X207620909Y-67128846D03*
X213009063Y-72517000D03*
%TD*%
%TO.C,L4*%
X192805259Y-52832000D03*
X198193413Y-58220154D03*
%TD*%
D17*
%TO.C,J2*%
X263104909Y-90015923D03*
D18*
X260564909Y-87475923D03*
X260564909Y-92555923D03*
X265644909Y-87475923D03*
X265644909Y-92555923D03*
%TD*%
D16*
%TO.C,L13*%
X236050624Y-52931923D03*
X241438778Y-58320077D03*
%TD*%
%TO.C,L1*%
X177673000Y-52931923D03*
X183061154Y-58320077D03*
%TD*%
D19*
%TO.C,K24*%
X178460400Y-127050800D03*
X178460400Y-122010800D03*
X178460400Y-132090800D03*
D20*
X178460400Y-106890800D03*
D16*
X178460400Y-110670800D03*
%TD*%
%TO.C,L14*%
X236050624Y-67128846D03*
X241438778Y-72517000D03*
%TD*%
%TO.C,L7*%
X207632986Y-52931923D03*
X213021140Y-58320077D03*
%TD*%
%TO.C,L28*%
X230496177Y-101760552D03*
X235884331Y-107148706D03*
%TD*%
%TO.C,L5*%
X192920182Y-66929000D03*
X198308336Y-72317154D03*
%TD*%
%TO.C,L22*%
X202102832Y-101164846D03*
X207490986Y-106553000D03*
%TD*%
%TO.C,L32*%
X245158755Y-116250769D03*
X250546909Y-121638923D03*
%TD*%
%TO.C,L19*%
X188102470Y-101304157D03*
X193490624Y-106692311D03*
%TD*%
%TO.C,L2*%
X177673000Y-67148000D03*
X183061154Y-72536154D03*
%TD*%
%TO.C,L30*%
X230611846Y-130181475D03*
X236000000Y-135569629D03*
%TD*%
%TO.C,L16*%
X249866547Y-52900650D03*
X255254701Y-58288804D03*
%TD*%
%TO.C,L18*%
X249866547Y-81321573D03*
X255254701Y-86709727D03*
%TD*%
%TO.C,L10*%
X221983986Y-52931923D03*
X227372140Y-58320077D03*
%TD*%
%TO.C,L27*%
X216030393Y-129979080D03*
X221418547Y-135367234D03*
%TD*%
%TO.C,L25*%
X216169470Y-101431157D03*
X221557624Y-106819311D03*
%TD*%
%TO.C,L11*%
X221971909Y-67128846D03*
X227360063Y-72517000D03*
%TD*%
%TO.C,L20*%
X188102470Y-115501080D03*
X193490624Y-120889234D03*
%TD*%
%TO.C,L6*%
X192805259Y-81280000D03*
X198193413Y-86668154D03*
%TD*%
%TO.C,L17*%
X249866547Y-67097573D03*
X255254701Y-72485727D03*
%TD*%
%TO.C,L15*%
X236038547Y-81352846D03*
X241426701Y-86741000D03*
%TD*%
%TO.C,L24*%
X202105923Y-129605923D03*
X207494077Y-134994077D03*
%TD*%
%TO.C,L31*%
X245170832Y-101926846D03*
X250558986Y-107315000D03*
%TD*%
%TO.C,L26*%
X216157393Y-115628080D03*
X221545547Y-121016234D03*
%TD*%
D19*
%TO.C,K18*%
X215545274Y-135144507D03*
X219109092Y-131580689D03*
X211981456Y-138708325D03*
D21*
X229800547Y-120889234D03*
D16*
X227127683Y-123562098D03*
%TD*%
D19*
%TO.C,K16*%
X201478636Y-134243196D03*
X205042454Y-130679378D03*
X197914818Y-137807014D03*
D21*
X215733909Y-119987923D03*
D16*
X213061045Y-122660787D03*
%TD*%
D19*
%TO.C,K20*%
X229094981Y-135473902D03*
X232658799Y-131910084D03*
X225531163Y-139037720D03*
D21*
X243350254Y-121218629D03*
D16*
X240677390Y-123891493D03*
%TD*%
D19*
%TO.C,K9*%
X232817274Y-60202196D03*
X236381092Y-56638378D03*
X229253456Y-63766014D03*
D21*
X247072547Y-45946923D03*
D16*
X244399683Y-48619787D03*
%TD*%
D19*
%TO.C,K1*%
X174212727Y-60202196D03*
X177776545Y-56638378D03*
X170648909Y-63766014D03*
D21*
X188468000Y-45946923D03*
D16*
X185795136Y-48619787D03*
%TD*%
D19*
%TO.C,K12*%
X245904138Y-89248059D03*
X249467956Y-85684241D03*
X242340320Y-92811877D03*
D21*
X260159411Y-74992786D03*
D16*
X257486547Y-77665650D03*
%TD*%
D22*
%TO.C,J4*%
X266152909Y-103985923D03*
D23*
X263612909Y-103985923D03*
X266152909Y-106525923D03*
X263612909Y-106525923D03*
X266152909Y-109065923D03*
X263612909Y-109065923D03*
X266152909Y-111605923D03*
X263612909Y-111605923D03*
X266152909Y-114145923D03*
X263612909Y-114145923D03*
%TD*%
D19*
%TO.C,K8*%
X218750636Y-88142196D03*
X222314454Y-84578378D03*
X215186818Y-91706014D03*
D21*
X233005909Y-73886923D03*
D16*
X230333045Y-76559787D03*
%TD*%
D19*
%TO.C,K22*%
X244404636Y-135108741D03*
X247968454Y-131544923D03*
X240840818Y-138672559D03*
D21*
X258659909Y-120853468D03*
D16*
X255987045Y-123526332D03*
%TD*%
D19*
%TO.C,K2*%
X174212727Y-88777196D03*
X177776545Y-85213378D03*
X170648909Y-92341014D03*
D21*
X188468000Y-74521923D03*
D16*
X185795136Y-77194787D03*
%TD*%
D22*
%TO.C,J3*%
X266152909Y-57560000D03*
D23*
X263612909Y-57560000D03*
X266152909Y-60100000D03*
X263612909Y-60100000D03*
X266152909Y-62640000D03*
X263612909Y-62640000D03*
X266152909Y-65180000D03*
X263612909Y-65180000D03*
X266152909Y-67720000D03*
X263612909Y-67720000D03*
%TD*%
D19*
%TO.C,K17*%
X212273636Y-109097196D03*
X215837454Y-105533378D03*
X208709818Y-112661014D03*
D21*
X226528909Y-94841923D03*
D16*
X223856045Y-97514787D03*
%TD*%
D19*
%TO.C,K6*%
X203764636Y-88777196D03*
X207328454Y-85213378D03*
X200200818Y-92341014D03*
D21*
X218019909Y-74521923D03*
D16*
X215347045Y-77194787D03*
%TD*%
D19*
%TO.C,K23*%
X170154600Y-127050800D03*
X170154600Y-122010800D03*
X170154600Y-132090800D03*
D20*
X170154600Y-106890800D03*
D16*
X170154600Y-110670800D03*
%TD*%
D19*
%TO.C,K19*%
X226243636Y-109859196D03*
X229807454Y-106295378D03*
X222679818Y-113423014D03*
D21*
X240498909Y-95603923D03*
D16*
X237826045Y-98276787D03*
%TD*%
D19*
%TO.C,K3*%
X188936909Y-60202196D03*
X192500727Y-56638378D03*
X185373091Y-63766014D03*
D21*
X203192182Y-45946923D03*
D16*
X200519318Y-48619787D03*
%TD*%
D19*
%TO.C,K5*%
X204399636Y-60202196D03*
X207963454Y-56638378D03*
X200835818Y-63766014D03*
D21*
X218654909Y-45946923D03*
D16*
X215982045Y-48619787D03*
%TD*%
D19*
%TO.C,K10*%
X232817274Y-88142196D03*
X236381092Y-84578378D03*
X229253456Y-91706014D03*
D21*
X247072547Y-73886923D03*
D16*
X244399683Y-76559787D03*
%TD*%
D19*
%TO.C,K21*%
X241229636Y-109605196D03*
X244793454Y-106041378D03*
X237665818Y-113169014D03*
D21*
X255484909Y-95349923D03*
D16*
X252812045Y-98022787D03*
%TD*%
%TO.C,K11*%
X257027136Y-49472864D03*
D21*
X259700000Y-46800000D03*
D19*
X241880909Y-64619091D03*
X249008545Y-57491455D03*
X245444727Y-61055273D03*
%TD*%
%TO.C,K4*%
X188936909Y-88777196D03*
X192500727Y-85213378D03*
X185373091Y-92341014D03*
D21*
X203192182Y-74521923D03*
D16*
X200519318Y-77194787D03*
%TD*%
D19*
%TO.C,K14*%
X186843274Y-134763507D03*
X190407092Y-131199689D03*
X183279456Y-138327325D03*
D21*
X201098547Y-120508234D03*
D16*
X198425683Y-123181098D03*
%TD*%
D19*
%TO.C,K15*%
X198303636Y-108843196D03*
X201867454Y-105279378D03*
X194739818Y-112407014D03*
D21*
X212558909Y-94587923D03*
D16*
X209886045Y-97260787D03*
%TD*%
D19*
%TO.C,K13*%
X183571636Y-109351196D03*
X187135454Y-105787378D03*
X180007818Y-112915014D03*
D21*
X197826909Y-95095923D03*
D16*
X195154045Y-97768787D03*
%TD*%
D19*
%TO.C,K7*%
X218750636Y-60202196D03*
X222314454Y-56638378D03*
X215186818Y-63766014D03*
D21*
X233005909Y-45946923D03*
D16*
X230333045Y-48619787D03*
%TD*%
M02*
