M48
; DRILL file {KiCad 8.0.3} date 2024-07-11T18:12:56-0400
; FORMAT={-:-/ absolute / inch / decimal}
; #@! TF.CreationDate,2024-07-11T18:12:56-04:00
; #@! TF.GenerationSoftware,Kicad,Pcbnew,8.0.3
; #@! TF.FileFunction,Plated,1,4,PTH
FMAT,2
INCH
; #@! TA.AperFunction,Plated,PTH,ViaDrill
T1C0.0118
; #@! TA.AperFunction,Plated,PTH,ComponentDrill
T2C0.0354
; #@! TA.AperFunction,Plated,PTH,ComponentDrill
T3C0.0394
; #@! TA.AperFunction,Plated,PTH,ComponentDrill
T4C0.0512
; #@! TA.AperFunction,Plated,PTH,ComponentDrill
T5C0.0591
; #@! TA.AperFunction,Plated,PTH,ComponentDrill
T6C0.0669
; #@! TA.AperFunction,Plated,PTH,ComponentDrill
T7C0.1260
%
G90
G05
T1
X6.6693Y-1.9803
X6.68Y-4.63
X6.7087Y-3.9724
X6.732Y-4.287
X6.753Y-3.382
X6.756Y-2.224
X6.78Y-3.07
X6.79Y-2.75
X6.822Y-4.418
X6.85Y-2.61
X6.85Y-3.68
X6.858Y-5.1335
X6.874Y-1.9882
X6.878Y-2.895
X6.9409Y-3.7717
X6.955Y-2.986
X6.99Y-4.66
X7.0Y-4.52
X7.0079Y-1.8465
X7.0315Y-4.0748
X7.08Y-5.55
X7.12Y-3.22
X7.137Y-1.846
X7.14Y-3.95
X7.143Y-2.946
X7.17Y-2.17
X7.189Y-5.287
X7.19Y-1.97
X7.22Y-4.56
X7.25Y-3.27
X7.25Y-4.95
X7.26Y-3.82
X7.279Y-3.488
X7.279Y-4.807
X7.33Y-2.81
X7.3622Y-5.5118
X7.366Y-4.89
X7.377Y-3.378
X7.382Y-2.201
X7.408Y-4.074
X7.4094Y-3.0472
X7.45Y-4.25
X7.482Y-2.883
X7.5Y-2.63
X7.557Y-2.948
X7.58Y-4.0
X7.58Y-5.513
X7.593Y-3.851
X7.599Y-4.901
X7.61Y-2.39
X7.62Y-5.1
X7.68Y-4.96
X7.695Y-1.758
X7.74Y-2.1
X7.76Y-4.59
X7.767Y-1.886
X7.77Y-4.74
X7.775Y-3.098
X7.777Y-2.978
X7.82Y-3.23
X7.83Y-3.95
X7.837Y-5.093
X7.8937Y-2.2953
X7.92Y-3.84
X7.93Y-4.3
X7.937Y-4.891
X7.9409Y-3.1575
X7.967Y-2.228
X7.9803Y-3.748
X7.987Y-5.533
X7.99Y-2.04
X8.0Y-3.0394
X8.0315Y-3.6772
X8.071Y-2.895
X8.072Y-3.389
X8.0748Y-3.1102
X8.08Y-2.71
X8.12Y-4.01
X8.12Y-4.35
X8.151Y-2.976
X8.185Y-4.887
X8.186Y-3.873
X8.19Y-2.43
X8.22Y-5.1
X8.2559Y-3.7283
X8.28Y-5.3
X8.289Y-1.751
X8.2953Y-4.0591
X8.3Y-2.21
X8.32Y-4.56
X8.3268Y-3.6417
X8.33Y-4.74
X8.342Y-3.119
X8.35Y-5.058
X8.355Y-2.975
X8.382Y-1.903
X8.39Y-3.24
X8.4528Y-3.8504
X8.4842Y-2.4058
X8.513Y-3.382
X8.52Y-5.532
X8.521Y-2.156
X8.54Y-2.04
X8.579Y-4.939
X8.588Y-3.175
X8.6024Y-3.0354
X8.676Y-2.956
X8.69Y-4.35
X8.72Y-3.903
X8.78Y-5.13
X8.8Y-2.36
X8.8386Y-3.7323
X8.852Y-4.765
X8.856Y-1.751
X8.86Y-4.58
X8.86Y-5.312
X8.87Y-2.16
X8.91Y-2.06
X8.932Y-3.098
X8.94Y-3.99
X8.968Y-1.887
X8.98Y-4.51
X8.998Y-4.939
X9.0Y-3.29
X9.018Y-3.495
X9.07Y-2.71
X9.084Y-5.533
X9.1Y-4.33
X9.109Y-2.224
X9.12Y-4.811
X9.132Y-2.4865
X9.143Y-3.176
X9.15Y-2.03
X9.1575Y-3.0197
X9.2087Y-4.9685
X9.267Y-3.938
X9.285Y-5.009
X9.319Y-2.93
X9.3386Y-5.5354
X9.34Y-2.38
X9.3937Y-4.0709
X9.4055Y-2.7992
X9.41Y-1.742
X9.43Y-2.14
X9.437Y-5.318
X9.47Y-3.28
X9.48Y-4.61
X9.49Y-2.06
X9.503Y-2.974
X9.513Y-1.876
X9.54Y-3.12
X9.54Y-3.94
X9.57Y-3.24
X9.5709Y-3.5
X9.584Y-4.974
X9.63Y-2.85
X9.6417Y-3.7559
X9.65Y-2.62
X9.6575Y-5.5394
X9.67Y-2.1
X9.67Y-4.43
X9.692Y-5.445
X9.71Y-2.03
X9.7283Y-2.7283
X9.73Y-3.66
X9.748Y-4.776
X9.787Y-2.769
X9.7913Y-2.9685
X9.8Y-4.04
X9.8031Y-4.9567
X9.86Y-3.919
X9.8622Y-5.5315
X9.88Y-2.47
X9.8898Y-3.6535
X9.8928Y-2.8946
X9.921Y-1.74
X9.93Y-2.23
X9.93Y-2.35
X9.93Y-4.33
X9.93Y-5.08
X9.9344Y-4.0447
X9.937Y-3.752
X9.9646Y-4.8661
X9.98Y-5.19
X9.991Y-2.967
X9.9961Y-4.689
X10.0Y-4.54
X10.03Y-2.01
X10.0315Y-3.6378
X10.04Y-5.5
X10.05Y-4.12
X10.05Y-4.41
X10.06Y-3.28
X10.069Y-1.866
X10.1496Y-4.3031
X10.1693Y-3.45
X10.1693Y-3.59
X10.17Y-3.71
X10.18Y-3.98
X10.18Y-4.99
X10.189Y-5.5236
X10.2008Y-4.626
X10.21Y-2.0
X10.2283Y-4.2176
X10.23Y-2.18
X10.2402Y-4.4803
X10.2441Y-4.0984
X10.248Y-2.2598
X10.25Y-2.67
X10.26Y-3.15
X10.262Y-2.794
X10.2874Y-3.2756
X10.3031Y-1.7323
X10.31Y-5.22
X10.32Y-3.87
X10.3504Y-3.7874
X10.3509Y-1.9865
X10.4Y-3.27
X10.4213Y-2.8268
X10.4528Y-3.9724
X10.46Y-4.84
X10.47Y-2.94
X10.4724Y-3.0984
X10.48Y-2.08
X10.48Y-3.78
X10.4921Y-4.6772
X10.5Y-5.0512
X10.5Y-5.2205
T2
X6.995Y-2.0839
X6.995Y-2.6436
X6.995Y-3.2039
X7.2071Y-2.2961
X7.2071Y-2.8558
X7.2071Y-3.4161
X7.3782Y-5.1262
X7.4056Y-3.9884
X7.4056Y-4.5473
X7.5903Y-5.3383
X7.5908Y-2.08
X7.5908Y-3.2
X7.5953Y-2.635
X7.6177Y-4.2005
X7.6177Y-4.7594
X7.8029Y-2.2921
X7.8029Y-3.4121
X7.8074Y-2.8471
X7.9563Y-4.5418
X7.9568Y-3.9829
X7.9569Y-5.1026
X8.1685Y-4.7539
X8.1689Y-4.195
X8.1691Y-5.3147
X8.1741Y-2.6429
X8.1745Y-2.0839
X8.1745Y-3.2029
X8.3862Y-2.855
X8.3867Y-2.2961
X8.3867Y-3.415
X8.5051Y-5.1173
X8.5101Y-4.5523
X8.5106Y-3.9934
X8.7173Y-5.3294
X8.7223Y-4.7644
X8.7227Y-4.2055
X8.7391Y-2.6429
X8.7395Y-2.0839
X8.7395Y-3.2029
X8.9512Y-2.855
X8.9517Y-2.2961
X8.9517Y-3.415
X9.0747Y-4.0063
X9.0747Y-4.5653
X9.0792Y-5.1253
X9.2868Y-4.2185
X9.2868Y-4.7774
X9.2913Y-5.3374
X9.2929Y-3.2029
X9.2933Y-2.0839
X9.2933Y-2.6429
X9.505Y-3.415
X9.5055Y-2.2961
X9.5055Y-2.855
X9.6519Y-4.5768
X9.6524Y-4.0129
X9.6524Y-5.1368
X9.8373Y-2.0827
X9.8373Y-2.6416
X9.8373Y-3.2016
X9.8641Y-4.7889
X9.8645Y-4.225
X9.8645Y-5.3489
X10.0494Y-2.2948
X10.0494Y-2.8538
X10.0494Y-3.4138
T3
X6.699Y-4.2083
X6.699Y-4.3571
X7.026Y-4.2083
X7.026Y-4.3571
X7.3148Y-1.9142
X7.3148Y-3.0392
X7.42Y-1.8089
X7.42Y-2.9339
X7.6832Y-3.8492
X7.7885Y-3.7439
X7.812Y-4.8496
X7.8945Y-1.9142
X7.8945Y-3.0392
X7.9173Y-4.7444
X7.9997Y-1.8089
X7.9997Y-2.9339
X8.2632Y-3.8292
X8.3685Y-3.7239
X8.3882Y-4.8292
X8.4782Y-3.0392
X8.4935Y-4.7239
X8.5032Y-1.9142
X8.5835Y-2.9339
X8.6085Y-1.8089
X8.8132Y-3.8392
X8.9185Y-3.7339
X8.942Y-4.8646
X9.0473Y-4.7594
X9.0682Y-1.9142
X9.0682Y-3.0142
X9.1735Y-1.8089
X9.1735Y-2.9089
X9.3632Y-3.8692
X9.4685Y-3.7639
X9.4755Y-4.8776
X9.5807Y-4.7724
X9.622Y-1.9142
X9.622Y-3.0142
X9.7273Y-1.8089
X9.7273Y-2.9089
X9.9532Y-3.8592
X10.0585Y-3.7539
X10.0782Y-4.8632
X10.1192Y-1.9478
X10.1373Y-3.0577
X10.1835Y-4.758
X10.2244Y-1.8425
X10.2425Y-2.9525
X10.3785Y-2.2661
X10.3785Y-2.3661
X10.3785Y-2.4661
X10.3785Y-2.5661
X10.3785Y-2.6661
X10.3785Y-4.0939
X10.3785Y-4.1939
X10.3785Y-4.2939
X10.3785Y-4.3939
X10.3785Y-4.4939
X10.4785Y-2.2661
X10.4785Y-2.3661
X10.4785Y-2.4661
X10.4785Y-2.5661
X10.4785Y-2.6661
X10.4785Y-4.0939
X10.4785Y-4.1939
X10.4785Y-4.2939
X10.4785Y-4.3939
X10.4785Y-4.4939
T4
X6.699Y-4.8036
X6.699Y-5.002
X6.699Y-5.2004
X6.7185Y-2.5105
X6.7185Y-3.6355
X6.8588Y-2.3702
X6.8588Y-3.4952
X6.9991Y-2.2299
X6.9991Y-3.3549
X7.026Y-4.8036
X7.026Y-5.002
X7.026Y-5.2004
X7.0869Y-4.4455
X7.2157Y-5.446
X7.2272Y-4.3052
X7.2982Y-2.5105
X7.2982Y-3.6355
X7.356Y-5.3056
X7.3675Y-4.1649
X7.4385Y-2.3702
X7.4385Y-3.4952
X7.4963Y-5.1653
X7.5788Y-2.2299
X7.5788Y-3.3549
X7.6669Y-4.4255
X7.7919Y-5.4255
X7.8072Y-4.2852
X7.8819Y-3.6355
X7.9069Y-2.5105
X7.9322Y-5.2852
X7.9475Y-4.1449
X8.0222Y-3.4952
X8.0472Y-2.3702
X8.0725Y-5.1449
X8.1625Y-3.3549
X8.1875Y-2.2299
X8.2169Y-4.4355
X8.3457Y-5.461
X8.3572Y-4.2952
X8.4719Y-2.5105
X8.4719Y-3.6105
X8.486Y-5.3206
X8.4975Y-4.1549
X8.6122Y-2.3702
X8.6122Y-3.4702
X8.6263Y-5.1803
X8.7525Y-2.2299
X8.7525Y-3.3299
X8.7669Y-4.4655
X8.8792Y-5.4739
X8.9072Y-4.3252
X9.0195Y-5.3336
X9.0257Y-2.5105
X9.0257Y-3.6105
X9.0475Y-4.1849
X9.1598Y-5.1933
X9.166Y-2.3702
X9.166Y-3.4702
X9.3063Y-2.2299
X9.3063Y-3.3299
X9.3569Y-4.4555
X9.4819Y-5.4595
X9.4972Y-4.3152
X9.5229Y-2.5441
X9.541Y-3.654
X9.6222Y-5.3192
X9.6375Y-4.1749
X9.6632Y-2.4038
X9.6813Y-3.5137
X9.7625Y-5.1789
X9.8035Y-2.2634
X9.8216Y-3.3734
T5
X6.8285Y-3.9739
X10.3585Y-3.5439
T6
X6.7285Y-3.8739
X6.7285Y-4.0739
X6.9285Y-3.8739
X6.9285Y-4.0739
X10.2585Y-3.4439
X10.2585Y-3.6439
X10.4585Y-3.4439
X10.4585Y-3.6439
T7
X6.7795Y-1.8031
X6.7795Y-5.4646
X10.4409Y-1.8031
X10.4409Y-5.4646
M30
