%TF.GenerationSoftware,KiCad,Pcbnew,8.0.3*%
%TF.CreationDate,2024-07-11T18:12:52-04:00*%
%TF.ProjectId,K9HZ_100W_11band_LPF-Filter,4b39485a-5f31-4303-9057-5f313162616e,rev?*%
%TF.SameCoordinates,Original*%
%TF.FileFunction,Soldermask,Bot*%
%TF.FilePolarity,Negative*%
%FSLAX46Y46*%
G04 Gerber Fmt 4.6, Leading zero omitted, Abs format (unit mm)*
G04 Created by KiCad (PCBNEW 8.0.3) date 2024-07-11 18:12:52*
%MOMM*%
%LPD*%
G01*
G04 APERTURE LIST*
G04 Aperture macros list*
%AMRoundRect*
0 Rectangle with rounded corners*
0 $1 Rounding radius*
0 $2 $3 $4 $5 $6 $7 $8 $9 X,Y pos of 4 corners*
0 Add a 4 corners polygon primitive as box body*
4,1,4,$2,$3,$4,$5,$6,$7,$8,$9,$2,$3,0*
0 Add four circle primitives for the rounded corners*
1,1,$1+$1,$2,$3*
1,1,$1+$1,$4,$5*
1,1,$1+$1,$6,$7*
1,1,$1+$1,$8,$9*
0 Add four rect primitives between the rounded corners*
20,1,$1+$1,$2,$3,$4,$5,0*
20,1,$1+$1,$4,$5,$6,$7,0*
20,1,$1+$1,$6,$7,$8,$9,0*
20,1,$1+$1,$8,$9,$2,$3,0*%
%AMRotRect*
0 Rectangle, with rotation*
0 The origin of the aperture is its center*
0 $1 length*
0 $2 width*
0 $3 Rotation angle, in degrees counterclockwise*
0 Add horizontal line*
21,1,$1,$2,0,0,$3*%
G04 Aperture macros list end*
%ADD10C,5.600000*%
%ADD11RoundRect,0.336956X0.088388X-0.707876X0.707876X-0.088388X-0.088388X0.707876X-0.707876X0.088388X0*%
%ADD12RoundRect,0.336956X-0.088388X0.707876X-0.707876X0.088388X0.088388X-0.707876X0.707876X-0.088388X0*%
%ADD13RoundRect,0.336956X0.707876X0.088388X0.088388X0.707876X-0.707876X-0.088388X-0.088388X-0.707876X0*%
%ADD14RoundRect,0.336956X-0.707876X-0.088388X-0.088388X-0.707876X0.707876X0.088388X0.088388X0.707876X0*%
%ADD15C,1.800000*%
%ADD16C,2.050000*%
%ADD17C,2.250000*%
%ADD18C,2.300000*%
%ADD19R,1.800000X1.800000*%
%ADD20RotRect,1.800000X1.800000X135.000000*%
%ADD21RoundRect,0.250000X0.600000X0.600000X-0.600000X0.600000X-0.600000X-0.600000X0.600000X-0.600000X0*%
%ADD22C,1.700000*%
G04 APERTURE END LIST*
D10*
%TO.C,H4*%
X265200000Y-45800000D03*
%TD*%
%TO.C,H3*%
X172200000Y-45800000D03*
%TD*%
%TO.C,H2*%
X265200000Y-138800000D03*
%TD*%
%TO.C,H1*%
X172200000Y-138800000D03*
%TD*%
D11*
%TO.C,C73*%
X190067588Y-139632412D03*
X191800000Y-137900000D03*
%TD*%
%TO.C,C55*%
X234776341Y-94438129D03*
X236508753Y-92705717D03*
%TD*%
%TO.C,C46*%
X221344703Y-95073129D03*
X223077115Y-93340717D03*
%TD*%
%TO.C,C10*%
X177441794Y-95073129D03*
X179174206Y-93340717D03*
%TD*%
%TO.C,C22*%
X191530976Y-95708129D03*
X193263388Y-93975717D03*
%TD*%
%TO.C,C103*%
X247633703Y-140031129D03*
X249366115Y-138298717D03*
%TD*%
%TO.C,C96*%
X232959048Y-139864835D03*
X234691460Y-138132423D03*
%TD*%
%TO.C,C87*%
X218774341Y-140170440D03*
X220506753Y-138438028D03*
%TD*%
%TO.C,C80*%
X204707703Y-139269129D03*
X206440115Y-137536717D03*
%TD*%
%TO.C,C62*%
X252810341Y-91231856D03*
X254542753Y-89499444D03*
%TD*%
D12*
%TO.C,C54*%
X241266206Y-89733794D03*
X239533794Y-91466206D03*
%TD*%
%TO.C,C45*%
X226887115Y-89530717D03*
X225154703Y-91263129D03*
%TD*%
D11*
%TO.C,C34*%
X208733794Y-92632412D03*
X210466206Y-90900000D03*
%TD*%
D12*
%TO.C,C21*%
X197073388Y-90165717D03*
X195340976Y-91898129D03*
%TD*%
D11*
%TO.C,C9*%
X179933794Y-97666206D03*
X181666206Y-95933794D03*
%TD*%
D12*
%TO.C,C72*%
X197132412Y-132367588D03*
X195400000Y-134100000D03*
%TD*%
D11*
%TO.C,C33*%
X200867588Y-87732412D03*
X202600000Y-86000000D03*
%TD*%
D12*
%TO.C,C44*%
X224982115Y-77465717D03*
X223249703Y-79198129D03*
%TD*%
D11*
%TO.C,C32*%
X202767588Y-82932412D03*
X204500000Y-81200000D03*
%TD*%
%TO.C,C20*%
X188990976Y-84278129D03*
X190723388Y-82545717D03*
%TD*%
%TO.C,C95*%
X226609048Y-133514835D03*
X228341460Y-131782423D03*
%TD*%
D12*
%TO.C,C8*%
X180444206Y-76830717D03*
X178711794Y-78563129D03*
%TD*%
%TO.C,C71*%
X190732412Y-126267588D03*
X189000000Y-128000000D03*
%TD*%
D11*
%TO.C,C102*%
X241283703Y-133681129D03*
X243016115Y-131948717D03*
%TD*%
%TO.C,C86*%
X211567588Y-132732412D03*
X213300000Y-131000000D03*
%TD*%
D12*
%TO.C,C79*%
X205805115Y-125471717D03*
X204072703Y-127204129D03*
%TD*%
%TO.C,C61*%
X253000000Y-77400000D03*
X251267588Y-79132412D03*
%TD*%
D11*
%TO.C,C53*%
X231533794Y-84666206D03*
X233266206Y-82933794D03*
%TD*%
%TO.C,C7*%
X172996794Y-84278129D03*
X174729206Y-82545717D03*
%TD*%
D12*
%TO.C,C19*%
X195803388Y-77465717D03*
X194070976Y-79198129D03*
%TD*%
%TO.C,C31*%
X210631115Y-77465717D03*
X208898703Y-79198129D03*
%TD*%
D11*
%TO.C,C70*%
X183567588Y-132932412D03*
X185300000Y-131200000D03*
%TD*%
%TO.C,C43*%
X218169703Y-84278129D03*
X219902115Y-82545717D03*
%TD*%
D12*
%TO.C,C94*%
X234056460Y-126067423D03*
X232324048Y-127799835D03*
%TD*%
%TO.C,C74*%
X193709753Y-115832028D03*
X191977341Y-117564440D03*
%TD*%
D13*
%TO.C,C104*%
X251766206Y-116866206D03*
X250033794Y-115133794D03*
%TD*%
D12*
%TO.C,C97*%
X234691460Y-115272423D03*
X232959048Y-117004835D03*
%TD*%
D13*
%TO.C,C56*%
X240500000Y-69600000D03*
X238767588Y-67867588D03*
%TD*%
D12*
%TO.C,C36*%
X214441115Y-67940717D03*
X212708703Y-69673129D03*
%TD*%
%TO.C,C35*%
X212536115Y-66035717D03*
X210803703Y-67768129D03*
%TD*%
%TO.C,C81*%
X206343477Y-114664406D03*
X204611065Y-116396818D03*
%TD*%
D11*
%TO.C,C63*%
X253445341Y-67736856D03*
X255177753Y-66004444D03*
%TD*%
D13*
%TO.C,C88*%
X219366206Y-119666206D03*
X217633794Y-117933794D03*
%TD*%
D12*
%TO.C,C24*%
X199613388Y-67305717D03*
X197880976Y-69038129D03*
%TD*%
%TO.C,C23*%
X197708388Y-65400717D03*
X195975976Y-67133129D03*
%TD*%
%TO.C,C12*%
X184254206Y-67940717D03*
X182521794Y-69673129D03*
%TD*%
%TO.C,C11*%
X182349206Y-66035717D03*
X180616794Y-67768129D03*
%TD*%
D13*
%TO.C,C47*%
X227000000Y-69300000D03*
X225267588Y-67567588D03*
%TD*%
D11*
%TO.C,C30*%
X208263703Y-74118129D03*
X209996115Y-72385717D03*
%TD*%
%TO.C,C18*%
X193435976Y-73483129D03*
X195168388Y-71750717D03*
%TD*%
%TO.C,C6*%
X178076794Y-74118129D03*
X179809206Y-72385717D03*
%TD*%
%TO.C,C42*%
X220074703Y-72213129D03*
X221807115Y-70480717D03*
%TD*%
%TO.C,C93*%
X232733794Y-120566206D03*
X234466206Y-118833794D03*
%TD*%
%TO.C,C69*%
X188167341Y-122644440D03*
X189899753Y-120912028D03*
%TD*%
%TO.C,C101*%
X246363703Y-119711129D03*
X248096115Y-117978717D03*
%TD*%
D13*
%TO.C,C85*%
X221700000Y-117600000D03*
X219967588Y-115867588D03*
%TD*%
D11*
%TO.C,C78*%
X204072703Y-120219129D03*
X205805115Y-118486717D03*
%TD*%
%TO.C,C60*%
X249000341Y-72181856D03*
X250732753Y-70449444D03*
%TD*%
D13*
%TO.C,C52*%
X237866206Y-72866206D03*
X236133794Y-71133794D03*
%TD*%
D11*
%TO.C,C17*%
X191530976Y-71578129D03*
X193263388Y-69845717D03*
%TD*%
%TO.C,C5*%
X176171794Y-72213129D03*
X177904206Y-70480717D03*
%TD*%
%TO.C,C29*%
X206358703Y-72213129D03*
X208091115Y-70480717D03*
%TD*%
%TO.C,C41*%
X221979703Y-74118129D03*
X223712115Y-72385717D03*
%TD*%
%TO.C,C68*%
X186262341Y-120739440D03*
X187994753Y-119007028D03*
%TD*%
D12*
%TO.C,C92*%
X232500000Y-111200000D03*
X230767588Y-112932412D03*
%TD*%
%TO.C,C28*%
X210631115Y-48255717D03*
X208898703Y-49988129D03*
%TD*%
%TO.C,C100*%
X248821006Y-97736594D03*
X247088594Y-99469006D03*
%TD*%
%TO.C,C91*%
X234038206Y-97965194D03*
X232305794Y-99697606D03*
%TD*%
%TO.C,C84*%
X219687206Y-97304794D03*
X217954794Y-99037206D03*
%TD*%
%TO.C,C77*%
X205920406Y-96949194D03*
X204187994Y-98681606D03*
%TD*%
D14*
%TO.C,C67*%
X180616794Y-103857994D03*
X182349206Y-105590406D03*
%TD*%
D12*
%TO.C,C59*%
X253907753Y-48224444D03*
X252175341Y-49956856D03*
%TD*%
D11*
%TO.C,C51*%
X231601341Y-56338129D03*
X233333753Y-54605717D03*
%TD*%
%TO.C,C40*%
X217534703Y-56338129D03*
X219267115Y-54605717D03*
%TD*%
%TO.C,C27*%
X202548703Y-56338129D03*
X204281115Y-54605717D03*
%TD*%
%TO.C,C16*%
X187720976Y-55703129D03*
X189453388Y-53970717D03*
%TD*%
%TO.C,C4*%
X172996794Y-55068129D03*
X174729206Y-53335717D03*
%TD*%
D12*
%TO.C,C3*%
X179809206Y-48255717D03*
X178076794Y-49988129D03*
%TD*%
%TO.C,C50*%
X239683753Y-48255717D03*
X237951341Y-49988129D03*
%TD*%
%TO.C,C15*%
X195168388Y-48255717D03*
X193435976Y-49988129D03*
%TD*%
%TO.C,C39*%
X225617115Y-48255717D03*
X223884703Y-49988129D03*
%TD*%
D14*
%TO.C,C66*%
X183537794Y-101241794D03*
X185270206Y-102974206D03*
%TD*%
D15*
%TO.C,L21*%
X187405923Y-130205923D03*
X192794077Y-135594077D03*
%TD*%
%TO.C,L23*%
X202090755Y-115361769D03*
X207478909Y-120749923D03*
%TD*%
%TO.C,L33*%
X245170832Y-130474769D03*
X250558986Y-135862923D03*
%TD*%
%TO.C,L29*%
X230496177Y-115957475D03*
X235884331Y-121345629D03*
%TD*%
%TO.C,L12*%
X221983986Y-81352846D03*
X227372140Y-86741000D03*
%TD*%
%TO.C,L9*%
X207632986Y-81352846D03*
X213021140Y-86741000D03*
%TD*%
D16*
%TO.C,J1*%
X173442909Y-100937923D03*
D17*
X170902909Y-98397923D03*
X170902909Y-103477923D03*
X175982909Y-98397923D03*
X175982909Y-103477923D03*
%TD*%
D15*
%TO.C,L3*%
X177673000Y-81379923D03*
X183061154Y-86768077D03*
%TD*%
%TO.C,L8*%
X207620909Y-67128846D03*
X213009063Y-72517000D03*
%TD*%
%TO.C,L4*%
X192805259Y-52832000D03*
X198193413Y-58220154D03*
%TD*%
D16*
%TO.C,J2*%
X263104909Y-90015923D03*
D17*
X260564909Y-87475923D03*
X260564909Y-92555923D03*
X265644909Y-87475923D03*
X265644909Y-92555923D03*
%TD*%
D15*
%TO.C,L13*%
X236050624Y-52931923D03*
X241438778Y-58320077D03*
%TD*%
%TO.C,L1*%
X177673000Y-52931923D03*
X183061154Y-58320077D03*
%TD*%
D18*
%TO.C,K24*%
X178460400Y-127050800D03*
X178460400Y-122010800D03*
X178460400Y-132090800D03*
D19*
X178460400Y-106890800D03*
D15*
X178460400Y-110670800D03*
%TD*%
%TO.C,L14*%
X236050624Y-67128846D03*
X241438778Y-72517000D03*
%TD*%
%TO.C,L7*%
X207632986Y-52931923D03*
X213021140Y-58320077D03*
%TD*%
%TO.C,L28*%
X230496177Y-101760552D03*
X235884331Y-107148706D03*
%TD*%
%TO.C,L5*%
X192920182Y-66929000D03*
X198308336Y-72317154D03*
%TD*%
%TO.C,L22*%
X202102832Y-101164846D03*
X207490986Y-106553000D03*
%TD*%
%TO.C,L32*%
X245158755Y-116250769D03*
X250546909Y-121638923D03*
%TD*%
%TO.C,L19*%
X188102470Y-101304157D03*
X193490624Y-106692311D03*
%TD*%
%TO.C,L2*%
X177673000Y-67148000D03*
X183061154Y-72536154D03*
%TD*%
%TO.C,L30*%
X230611846Y-130181475D03*
X236000000Y-135569629D03*
%TD*%
%TO.C,L16*%
X249866547Y-52900650D03*
X255254701Y-58288804D03*
%TD*%
%TO.C,L18*%
X249866547Y-81321573D03*
X255254701Y-86709727D03*
%TD*%
%TO.C,L10*%
X221983986Y-52931923D03*
X227372140Y-58320077D03*
%TD*%
%TO.C,L27*%
X216030393Y-129979080D03*
X221418547Y-135367234D03*
%TD*%
%TO.C,L25*%
X216169470Y-101431157D03*
X221557624Y-106819311D03*
%TD*%
%TO.C,L11*%
X221971909Y-67128846D03*
X227360063Y-72517000D03*
%TD*%
%TO.C,L20*%
X188102470Y-115501080D03*
X193490624Y-120889234D03*
%TD*%
%TO.C,L6*%
X192805259Y-81280000D03*
X198193413Y-86668154D03*
%TD*%
%TO.C,L17*%
X249866547Y-67097573D03*
X255254701Y-72485727D03*
%TD*%
%TO.C,L15*%
X236038547Y-81352846D03*
X241426701Y-86741000D03*
%TD*%
%TO.C,L24*%
X202105923Y-129605923D03*
X207494077Y-134994077D03*
%TD*%
%TO.C,L31*%
X245170832Y-101926846D03*
X250558986Y-107315000D03*
%TD*%
%TO.C,L26*%
X216157393Y-115628080D03*
X221545547Y-121016234D03*
%TD*%
D18*
%TO.C,K18*%
X215545274Y-135144507D03*
X219109092Y-131580689D03*
X211981456Y-138708325D03*
D20*
X229800547Y-120889234D03*
D15*
X227127683Y-123562098D03*
%TD*%
D18*
%TO.C,K16*%
X201478636Y-134243196D03*
X205042454Y-130679378D03*
X197914818Y-137807014D03*
D20*
X215733909Y-119987923D03*
D15*
X213061045Y-122660787D03*
%TD*%
D18*
%TO.C,K20*%
X229094981Y-135473902D03*
X232658799Y-131910084D03*
X225531163Y-139037720D03*
D20*
X243350254Y-121218629D03*
D15*
X240677390Y-123891493D03*
%TD*%
D18*
%TO.C,K9*%
X232817274Y-60202196D03*
X236381092Y-56638378D03*
X229253456Y-63766014D03*
D20*
X247072547Y-45946923D03*
D15*
X244399683Y-48619787D03*
%TD*%
D18*
%TO.C,K1*%
X174212727Y-60202196D03*
X177776545Y-56638378D03*
X170648909Y-63766014D03*
D20*
X188468000Y-45946923D03*
D15*
X185795136Y-48619787D03*
%TD*%
D18*
%TO.C,K12*%
X245904138Y-89248059D03*
X249467956Y-85684241D03*
X242340320Y-92811877D03*
D20*
X260159411Y-74992786D03*
D15*
X257486547Y-77665650D03*
%TD*%
D21*
%TO.C,J4*%
X266152909Y-103985923D03*
D22*
X263612909Y-103985923D03*
X266152909Y-106525923D03*
X263612909Y-106525923D03*
X266152909Y-109065923D03*
X263612909Y-109065923D03*
X266152909Y-111605923D03*
X263612909Y-111605923D03*
X266152909Y-114145923D03*
X263612909Y-114145923D03*
%TD*%
D18*
%TO.C,K8*%
X218750636Y-88142196D03*
X222314454Y-84578378D03*
X215186818Y-91706014D03*
D20*
X233005909Y-73886923D03*
D15*
X230333045Y-76559787D03*
%TD*%
D18*
%TO.C,K22*%
X244404636Y-135108741D03*
X247968454Y-131544923D03*
X240840818Y-138672559D03*
D20*
X258659909Y-120853468D03*
D15*
X255987045Y-123526332D03*
%TD*%
D18*
%TO.C,K2*%
X174212727Y-88777196D03*
X177776545Y-85213378D03*
X170648909Y-92341014D03*
D20*
X188468000Y-74521923D03*
D15*
X185795136Y-77194787D03*
%TD*%
D21*
%TO.C,J3*%
X266152909Y-57560000D03*
D22*
X263612909Y-57560000D03*
X266152909Y-60100000D03*
X263612909Y-60100000D03*
X266152909Y-62640000D03*
X263612909Y-62640000D03*
X266152909Y-65180000D03*
X263612909Y-65180000D03*
X266152909Y-67720000D03*
X263612909Y-67720000D03*
%TD*%
D18*
%TO.C,K17*%
X212273636Y-109097196D03*
X215837454Y-105533378D03*
X208709818Y-112661014D03*
D20*
X226528909Y-94841923D03*
D15*
X223856045Y-97514787D03*
%TD*%
D18*
%TO.C,K6*%
X203764636Y-88777196D03*
X207328454Y-85213378D03*
X200200818Y-92341014D03*
D20*
X218019909Y-74521923D03*
D15*
X215347045Y-77194787D03*
%TD*%
D18*
%TO.C,K23*%
X170154600Y-127050800D03*
X170154600Y-122010800D03*
X170154600Y-132090800D03*
D19*
X170154600Y-106890800D03*
D15*
X170154600Y-110670800D03*
%TD*%
D18*
%TO.C,K19*%
X226243636Y-109859196D03*
X229807454Y-106295378D03*
X222679818Y-113423014D03*
D20*
X240498909Y-95603923D03*
D15*
X237826045Y-98276787D03*
%TD*%
D18*
%TO.C,K3*%
X188936909Y-60202196D03*
X192500727Y-56638378D03*
X185373091Y-63766014D03*
D20*
X203192182Y-45946923D03*
D15*
X200519318Y-48619787D03*
%TD*%
D18*
%TO.C,K5*%
X204399636Y-60202196D03*
X207963454Y-56638378D03*
X200835818Y-63766014D03*
D20*
X218654909Y-45946923D03*
D15*
X215982045Y-48619787D03*
%TD*%
D18*
%TO.C,K10*%
X232817274Y-88142196D03*
X236381092Y-84578378D03*
X229253456Y-91706014D03*
D20*
X247072547Y-73886923D03*
D15*
X244399683Y-76559787D03*
%TD*%
D18*
%TO.C,K21*%
X241229636Y-109605196D03*
X244793454Y-106041378D03*
X237665818Y-113169014D03*
D20*
X255484909Y-95349923D03*
D15*
X252812045Y-98022787D03*
%TD*%
%TO.C,K11*%
X257027136Y-49472864D03*
D20*
X259700000Y-46800000D03*
D18*
X241880909Y-64619091D03*
X249008545Y-57491455D03*
X245444727Y-61055273D03*
%TD*%
%TO.C,K4*%
X188936909Y-88777196D03*
X192500727Y-85213378D03*
X185373091Y-92341014D03*
D20*
X203192182Y-74521923D03*
D15*
X200519318Y-77194787D03*
%TD*%
D18*
%TO.C,K14*%
X186843274Y-134763507D03*
X190407092Y-131199689D03*
X183279456Y-138327325D03*
D20*
X201098547Y-120508234D03*
D15*
X198425683Y-123181098D03*
%TD*%
D18*
%TO.C,K15*%
X198303636Y-108843196D03*
X201867454Y-105279378D03*
X194739818Y-112407014D03*
D20*
X212558909Y-94587923D03*
D15*
X209886045Y-97260787D03*
%TD*%
D18*
%TO.C,K13*%
X183571636Y-109351196D03*
X187135454Y-105787378D03*
X180007818Y-112915014D03*
D20*
X197826909Y-95095923D03*
D15*
X195154045Y-97768787D03*
%TD*%
D18*
%TO.C,K7*%
X218750636Y-60202196D03*
X222314454Y-56638378D03*
X215186818Y-63766014D03*
D20*
X233005909Y-45946923D03*
D15*
X230333045Y-48619787D03*
%TD*%
M02*
