%TF.GenerationSoftware,KiCad,Pcbnew,8.0.3*%
%TF.CreationDate,2024-07-11T18:12:52-04:00*%
%TF.ProjectId,K9HZ_100W_11band_LPF-Filter,4b39485a-5f31-4303-9057-5f313162616e,rev?*%
%TF.SameCoordinates,Original*%
%TF.FileFunction,Legend,Top*%
%TF.FilePolarity,Positive*%
%FSLAX46Y46*%
G04 Gerber Fmt 4.6, Leading zero omitted, Abs format (unit mm)*
G04 Created by KiCad (PCBNEW 8.0.3) date 2024-07-11 18:12:52*
%MOMM*%
%LPD*%
G01*
G04 APERTURE LIST*
%ADD10C,0.150000*%
%ADD11C,0.300000*%
%ADD12C,0.120000*%
G04 APERTURE END LIST*
D10*
X255292478Y-127316200D02*
X254585371Y-126609093D01*
X255696539Y-126912139D02*
X254989432Y-126811124D01*
X254989432Y-126205032D02*
X254989432Y-127013154D01*
X256033256Y-126575421D02*
X256167943Y-126440734D01*
X256167943Y-126440734D02*
X256201615Y-126339719D01*
X256201615Y-126339719D02*
X256201615Y-126272375D01*
X256201615Y-126272375D02*
X256167943Y-126104017D01*
X256167943Y-126104017D02*
X256066928Y-125935658D01*
X256066928Y-125935658D02*
X255797554Y-125666284D01*
X255797554Y-125666284D02*
X255696539Y-125632612D01*
X255696539Y-125632612D02*
X255629195Y-125632612D01*
X255629195Y-125632612D02*
X255528180Y-125666284D01*
X255528180Y-125666284D02*
X255393493Y-125800971D01*
X255393493Y-125800971D02*
X255359821Y-125901986D01*
X255359821Y-125901986D02*
X255359821Y-125969330D01*
X255359821Y-125969330D02*
X255393493Y-126070345D01*
X255393493Y-126070345D02*
X255561852Y-126238704D01*
X255561852Y-126238704D02*
X255662867Y-126272375D01*
X255662867Y-126272375D02*
X255730210Y-126272375D01*
X255730210Y-126272375D02*
X255831226Y-126238704D01*
X255831226Y-126238704D02*
X255965913Y-126104017D01*
X255965913Y-126104017D02*
X255999584Y-126003001D01*
X255999584Y-126003001D02*
X255999584Y-125935658D01*
X255999584Y-125935658D02*
X255965913Y-125834643D01*
X256673019Y-125935658D02*
X255965913Y-125228551D01*
X256302630Y-125565269D02*
X256706691Y-125161208D01*
X257077080Y-125531597D02*
X256369974Y-124824490D01*
X256639348Y-124555116D02*
X257110752Y-124083712D01*
X257110752Y-124083712D02*
X257346454Y-125262223D01*
X257346454Y-125262223D02*
X257817859Y-124790818D01*
X258996370Y-123612307D02*
X258592309Y-124016368D01*
X258794340Y-123814337D02*
X258087233Y-123107231D01*
X258087233Y-123107231D02*
X258120905Y-123275589D01*
X258120905Y-123275589D02*
X258120905Y-123410276D01*
X258120905Y-123410276D02*
X258087233Y-123511292D01*
X258726996Y-122467467D02*
X258794340Y-122400124D01*
X258794340Y-122400124D02*
X258895355Y-122366452D01*
X258895355Y-122366452D02*
X258962699Y-122366452D01*
X258962699Y-122366452D02*
X259063714Y-122400124D01*
X259063714Y-122400124D02*
X259232073Y-122501139D01*
X259232073Y-122501139D02*
X259400431Y-122669498D01*
X259400431Y-122669498D02*
X259501447Y-122837857D01*
X259501447Y-122837857D02*
X259535118Y-122938872D01*
X259535118Y-122938872D02*
X259535118Y-123006215D01*
X259535118Y-123006215D02*
X259501447Y-123107231D01*
X259501447Y-123107231D02*
X259434103Y-123174574D01*
X259434103Y-123174574D02*
X259333088Y-123208246D01*
X259333088Y-123208246D02*
X259265744Y-123208246D01*
X259265744Y-123208246D02*
X259164729Y-123174574D01*
X259164729Y-123174574D02*
X258996370Y-123073559D01*
X258996370Y-123073559D02*
X258828012Y-122905200D01*
X258828012Y-122905200D02*
X258726996Y-122736841D01*
X258726996Y-122736841D02*
X258693325Y-122635826D01*
X258693325Y-122635826D02*
X258693325Y-122568483D01*
X258693325Y-122568483D02*
X258726996Y-122467467D01*
X259400431Y-121794032D02*
X259467775Y-121726689D01*
X259467775Y-121726689D02*
X259568790Y-121693017D01*
X259568790Y-121693017D02*
X259636134Y-121693017D01*
X259636134Y-121693017D02*
X259737149Y-121726689D01*
X259737149Y-121726689D02*
X259905508Y-121827704D01*
X259905508Y-121827704D02*
X260073867Y-121996063D01*
X260073867Y-121996063D02*
X260174882Y-122164422D01*
X260174882Y-122164422D02*
X260208554Y-122265437D01*
X260208554Y-122265437D02*
X260208554Y-122332780D01*
X260208554Y-122332780D02*
X260174882Y-122433796D01*
X260174882Y-122433796D02*
X260107538Y-122501139D01*
X260107538Y-122501139D02*
X260006523Y-122534811D01*
X260006523Y-122534811D02*
X259939180Y-122534811D01*
X259939180Y-122534811D02*
X259838164Y-122501139D01*
X259838164Y-122501139D02*
X259669806Y-122400124D01*
X259669806Y-122400124D02*
X259501447Y-122231765D01*
X259501447Y-122231765D02*
X259400431Y-122063406D01*
X259400431Y-122063406D02*
X259366760Y-121962391D01*
X259366760Y-121962391D02*
X259366760Y-121895048D01*
X259366760Y-121895048D02*
X259400431Y-121794032D01*
X259871836Y-121322628D02*
X260747302Y-121861376D01*
X260747302Y-121861376D02*
X260376912Y-121221612D01*
X260376912Y-121221612D02*
X261016676Y-121592002D01*
X261016676Y-121592002D02*
X260477928Y-120716536D01*
X262363546Y-120245132D02*
X261959485Y-120649193D01*
X262161515Y-120447162D02*
X261454408Y-119740055D01*
X261454408Y-119740055D02*
X261488080Y-119908414D01*
X261488080Y-119908414D02*
X261488080Y-120043101D01*
X261488080Y-120043101D02*
X261454408Y-120144116D01*
X263036981Y-119571697D02*
X262632920Y-119975758D01*
X262834950Y-119773727D02*
X262127844Y-119066620D01*
X262127844Y-119066620D02*
X262161515Y-119234979D01*
X262161515Y-119234979D02*
X262161515Y-119369666D01*
X262161515Y-119369666D02*
X262127844Y-119470681D01*
X263744088Y-118123811D02*
X263878775Y-118056468D01*
X263878775Y-118056468D02*
X263946118Y-118056468D01*
X263946118Y-118056468D02*
X264047134Y-118090139D01*
X264047134Y-118090139D02*
X264148149Y-118191155D01*
X264148149Y-118191155D02*
X264181821Y-118292170D01*
X264181821Y-118292170D02*
X264181821Y-118359513D01*
X264181821Y-118359513D02*
X264148149Y-118460529D01*
X264148149Y-118460529D02*
X263878775Y-118729903D01*
X263878775Y-118729903D02*
X263171668Y-118022796D01*
X263171668Y-118022796D02*
X263407370Y-117787094D01*
X263407370Y-117787094D02*
X263508386Y-117753422D01*
X263508386Y-117753422D02*
X263575729Y-117753422D01*
X263575729Y-117753422D02*
X263676744Y-117787094D01*
X263676744Y-117787094D02*
X263744088Y-117854437D01*
X263744088Y-117854437D02*
X263777760Y-117955452D01*
X263777760Y-117955452D02*
X263777760Y-118022796D01*
X263777760Y-118022796D02*
X263744088Y-118123811D01*
X263744088Y-118123811D02*
X263508386Y-118359513D01*
X264888927Y-117719750D02*
X264518538Y-117349361D01*
X264518538Y-117349361D02*
X264417523Y-117315689D01*
X264417523Y-117315689D02*
X264316508Y-117349361D01*
X264316508Y-117349361D02*
X264181821Y-117484048D01*
X264181821Y-117484048D02*
X264148149Y-117585063D01*
X264855256Y-117686078D02*
X264821584Y-117787094D01*
X264821584Y-117787094D02*
X264653225Y-117955452D01*
X264653225Y-117955452D02*
X264552210Y-117989124D01*
X264552210Y-117989124D02*
X264451195Y-117955452D01*
X264451195Y-117955452D02*
X264383851Y-117888109D01*
X264383851Y-117888109D02*
X264350179Y-117787094D01*
X264350179Y-117787094D02*
X264383851Y-117686078D01*
X264383851Y-117686078D02*
X264552210Y-117517719D01*
X264552210Y-117517719D02*
X264585882Y-117416704D01*
X264754240Y-116911628D02*
X265225645Y-117383032D01*
X264821584Y-116978971D02*
X264821584Y-116911628D01*
X264821584Y-116911628D02*
X264855256Y-116810613D01*
X264855256Y-116810613D02*
X264956271Y-116709597D01*
X264956271Y-116709597D02*
X265057286Y-116675926D01*
X265057286Y-116675926D02*
X265158301Y-116709597D01*
X265158301Y-116709597D02*
X265528691Y-117079987D01*
X266168454Y-116440223D02*
X265461347Y-115733117D01*
X266134782Y-116406552D02*
X266101111Y-116507567D01*
X266101111Y-116507567D02*
X265966424Y-116642254D01*
X265966424Y-116642254D02*
X265865408Y-116675926D01*
X265865408Y-116675926D02*
X265798065Y-116675926D01*
X265798065Y-116675926D02*
X265697049Y-116642254D01*
X265697049Y-116642254D02*
X265495019Y-116440223D01*
X265495019Y-116440223D02*
X265461347Y-116339208D01*
X265461347Y-116339208D02*
X265461347Y-116271865D01*
X265461347Y-116271865D02*
X265495019Y-116170849D01*
X265495019Y-116170849D02*
X265629706Y-116036162D01*
X265629706Y-116036162D02*
X265730721Y-116002491D01*
X256767597Y-128117884D02*
X256430880Y-128454602D01*
X256430880Y-128454602D02*
X255723773Y-127747495D01*
X257003299Y-127882182D02*
X256296193Y-127175075D01*
X256296193Y-127175075D02*
X256565567Y-126905701D01*
X256565567Y-126905701D02*
X256666582Y-126872029D01*
X256666582Y-126872029D02*
X256733925Y-126872029D01*
X256733925Y-126872029D02*
X256834941Y-126905701D01*
X256834941Y-126905701D02*
X256935956Y-127006716D01*
X256935956Y-127006716D02*
X256969628Y-127107732D01*
X256969628Y-127107732D02*
X256969628Y-127175075D01*
X256969628Y-127175075D02*
X256935956Y-127276090D01*
X256935956Y-127276090D02*
X256666582Y-127545464D01*
X257575719Y-126568984D02*
X257340017Y-126804686D01*
X257710406Y-127175075D02*
X257003299Y-126467968D01*
X257003299Y-126467968D02*
X257340017Y-126131251D01*
X258855246Y-126030235D02*
X258148139Y-125323128D01*
X258417513Y-125592503D02*
X258451185Y-125491487D01*
X258451185Y-125491487D02*
X258585872Y-125356800D01*
X258585872Y-125356800D02*
X258686887Y-125323128D01*
X258686887Y-125323128D02*
X258754231Y-125323128D01*
X258754231Y-125323128D02*
X258855246Y-125356800D01*
X258855246Y-125356800D02*
X259057277Y-125558831D01*
X259057277Y-125558831D02*
X259090948Y-125659846D01*
X259090948Y-125659846D02*
X259090948Y-125727190D01*
X259090948Y-125727190D02*
X259057277Y-125828205D01*
X259057277Y-125828205D02*
X258922590Y-125962892D01*
X258922590Y-125962892D02*
X258821574Y-125996564D01*
X259798055Y-125087426D02*
X259090948Y-124380319D01*
X259764383Y-125053754D02*
X259730712Y-125154770D01*
X259730712Y-125154770D02*
X259596025Y-125289457D01*
X259596025Y-125289457D02*
X259495009Y-125323128D01*
X259495009Y-125323128D02*
X259427666Y-125323128D01*
X259427666Y-125323128D02*
X259326651Y-125289457D01*
X259326651Y-125289457D02*
X259124620Y-125087426D01*
X259124620Y-125087426D02*
X259090948Y-124986411D01*
X259090948Y-124986411D02*
X259090948Y-124919067D01*
X259090948Y-124919067D02*
X259124620Y-124818052D01*
X259124620Y-124818052D02*
X259259307Y-124683365D01*
X259259307Y-124683365D02*
X259360322Y-124649693D01*
X260976567Y-123908915D02*
X260269460Y-123201808D01*
X260942895Y-123875243D02*
X260909223Y-123976258D01*
X260909223Y-123976258D02*
X260774536Y-124110945D01*
X260774536Y-124110945D02*
X260673521Y-124144617D01*
X260673521Y-124144617D02*
X260606177Y-124144617D01*
X260606177Y-124144617D02*
X260505162Y-124110945D01*
X260505162Y-124110945D02*
X260303132Y-123908915D01*
X260303132Y-123908915D02*
X260269460Y-123807899D01*
X260269460Y-123807899D02*
X260269460Y-123740556D01*
X260269460Y-123740556D02*
X260303132Y-123639541D01*
X260303132Y-123639541D02*
X260437819Y-123504854D01*
X260437819Y-123504854D02*
X260538834Y-123471182D01*
X261548987Y-123269151D02*
X261515315Y-123370167D01*
X261515315Y-123370167D02*
X261380628Y-123504854D01*
X261380628Y-123504854D02*
X261279613Y-123538525D01*
X261279613Y-123538525D02*
X261178597Y-123504854D01*
X261178597Y-123504854D02*
X260909223Y-123235480D01*
X260909223Y-123235480D02*
X260875552Y-123134464D01*
X260875552Y-123134464D02*
X260909223Y-123033449D01*
X260909223Y-123033449D02*
X261043910Y-122898762D01*
X261043910Y-122898762D02*
X261144926Y-122865090D01*
X261144926Y-122865090D02*
X261245941Y-122898762D01*
X261245941Y-122898762D02*
X261313284Y-122966106D01*
X261313284Y-122966106D02*
X261043910Y-123370167D01*
X261852032Y-122966105D02*
X261953048Y-122932434D01*
X261953048Y-122932434D02*
X262087735Y-122797747D01*
X262087735Y-122797747D02*
X262121406Y-122696731D01*
X262121406Y-122696731D02*
X262087735Y-122595716D01*
X262087735Y-122595716D02*
X262054063Y-122562044D01*
X262054063Y-122562044D02*
X261953048Y-122528373D01*
X261953048Y-122528373D02*
X261852032Y-122562044D01*
X261852032Y-122562044D02*
X261751017Y-122663060D01*
X261751017Y-122663060D02*
X261650002Y-122696731D01*
X261650002Y-122696731D02*
X261548987Y-122663060D01*
X261548987Y-122663060D02*
X261515315Y-122629388D01*
X261515315Y-122629388D02*
X261481643Y-122528373D01*
X261481643Y-122528373D02*
X261515315Y-122427357D01*
X261515315Y-122427357D02*
X261616330Y-122326342D01*
X261616330Y-122326342D02*
X261717345Y-122292670D01*
X262491796Y-122393686D02*
X262020391Y-121922281D01*
X261784689Y-121686579D02*
X261784689Y-121753922D01*
X261784689Y-121753922D02*
X261852033Y-121753922D01*
X261852033Y-121753922D02*
X261852033Y-121686579D01*
X261852033Y-121686579D02*
X261784689Y-121686579D01*
X261784689Y-121686579D02*
X261852033Y-121753922D01*
X262660154Y-121282518D02*
X263232574Y-121854938D01*
X263232574Y-121854938D02*
X263266246Y-121955953D01*
X263266246Y-121955953D02*
X263266246Y-122023297D01*
X263266246Y-122023297D02*
X263232574Y-122124312D01*
X263232574Y-122124312D02*
X263131559Y-122225327D01*
X263131559Y-122225327D02*
X263030544Y-122258999D01*
X263097887Y-121720251D02*
X263064215Y-121821266D01*
X263064215Y-121821266D02*
X262929528Y-121955953D01*
X262929528Y-121955953D02*
X262828513Y-121989625D01*
X262828513Y-121989625D02*
X262761170Y-121989625D01*
X262761170Y-121989625D02*
X262660154Y-121955953D01*
X262660154Y-121955953D02*
X262458124Y-121753923D01*
X262458124Y-121753923D02*
X262424452Y-121652907D01*
X262424452Y-121652907D02*
X262424452Y-121585564D01*
X262424452Y-121585564D02*
X262458124Y-121484549D01*
X262458124Y-121484549D02*
X262592811Y-121349862D01*
X262592811Y-121349862D02*
X262693826Y-121316190D01*
X262996872Y-120945800D02*
X263468276Y-121417205D01*
X263064215Y-121013144D02*
X263064215Y-120945800D01*
X263064215Y-120945800D02*
X263097887Y-120844785D01*
X263097887Y-120844785D02*
X263198902Y-120743770D01*
X263198902Y-120743770D02*
X263299918Y-120710098D01*
X263299918Y-120710098D02*
X263400933Y-120743770D01*
X263400933Y-120743770D02*
X263771322Y-121114159D01*
X264646788Y-120238693D02*
X263939681Y-119531587D01*
X265050849Y-119834632D02*
X264343742Y-119733617D01*
X264343742Y-119127526D02*
X264343742Y-119935648D01*
X265387566Y-119497915D02*
X265522253Y-119363228D01*
X265522253Y-119363228D02*
X265555925Y-119262213D01*
X265555925Y-119262213D02*
X265555925Y-119194869D01*
X265555925Y-119194869D02*
X265522253Y-119026510D01*
X265522253Y-119026510D02*
X265421238Y-118858152D01*
X265421238Y-118858152D02*
X265151864Y-118588778D01*
X265151864Y-118588778D02*
X265050849Y-118555106D01*
X265050849Y-118555106D02*
X264983505Y-118555106D01*
X264983505Y-118555106D02*
X264882490Y-118588778D01*
X264882490Y-118588778D02*
X264747803Y-118723465D01*
X264747803Y-118723465D02*
X264714131Y-118824480D01*
X264714131Y-118824480D02*
X264714131Y-118891823D01*
X264714131Y-118891823D02*
X264747803Y-118992839D01*
X264747803Y-118992839D02*
X264916162Y-119161197D01*
X264916162Y-119161197D02*
X265017177Y-119194869D01*
X265017177Y-119194869D02*
X265084521Y-119194869D01*
X265084521Y-119194869D02*
X265185536Y-119161197D01*
X265185536Y-119161197D02*
X265320223Y-119026510D01*
X265320223Y-119026510D02*
X265353895Y-118925495D01*
X265353895Y-118925495D02*
X265353895Y-118858152D01*
X265353895Y-118858152D02*
X265320223Y-118757136D01*
X266027330Y-118858152D02*
X265320223Y-118151045D01*
X265656940Y-118487762D02*
X266061001Y-118083701D01*
X266431391Y-118454091D02*
X265724284Y-117746984D01*
X265993658Y-117477610D02*
X266465062Y-117006205D01*
X266465062Y-117006205D02*
X266700765Y-118184717D01*
X266700765Y-118184717D02*
X267172169Y-117713312D01*
X257905999Y-129256286D02*
X257569282Y-129593004D01*
X257569282Y-129593004D02*
X256862175Y-128885897D01*
X258444747Y-128717538D02*
X258074358Y-128347149D01*
X258074358Y-128347149D02*
X257973343Y-128313477D01*
X257973343Y-128313477D02*
X257872327Y-128347149D01*
X257872327Y-128347149D02*
X257737640Y-128481836D01*
X257737640Y-128481836D02*
X257703969Y-128582851D01*
X258411075Y-128683866D02*
X258377404Y-128784882D01*
X258377404Y-128784882D02*
X258209045Y-128953240D01*
X258209045Y-128953240D02*
X258108030Y-128986912D01*
X258108030Y-128986912D02*
X258007014Y-128953240D01*
X258007014Y-128953240D02*
X257939671Y-128885897D01*
X257939671Y-128885897D02*
X257905999Y-128784882D01*
X257905999Y-128784882D02*
X257939671Y-128683866D01*
X257939671Y-128683866D02*
X258108030Y-128515508D01*
X258108030Y-128515508D02*
X258141701Y-128414492D01*
X258242717Y-127976760D02*
X258882480Y-128279805D01*
X258579434Y-127640042D02*
X258882480Y-128279805D01*
X258882480Y-128279805D02*
X258983495Y-128515508D01*
X258983495Y-128515508D02*
X258983495Y-128582851D01*
X258983495Y-128582851D02*
X258949824Y-128683866D01*
X259421228Y-127741057D02*
X259320213Y-127774729D01*
X259320213Y-127774729D02*
X259252869Y-127774729D01*
X259252869Y-127774729D02*
X259151854Y-127741057D01*
X259151854Y-127741057D02*
X258949824Y-127539027D01*
X258949824Y-127539027D02*
X258916152Y-127438011D01*
X258916152Y-127438011D02*
X258916152Y-127370668D01*
X258916152Y-127370668D02*
X258949824Y-127269653D01*
X258949824Y-127269653D02*
X259050839Y-127168637D01*
X259050839Y-127168637D02*
X259151854Y-127134966D01*
X259151854Y-127134966D02*
X259219198Y-127134966D01*
X259219198Y-127134966D02*
X259320213Y-127168637D01*
X259320213Y-127168637D02*
X259522244Y-127370668D01*
X259522244Y-127370668D02*
X259555915Y-127471683D01*
X259555915Y-127471683D02*
X259555915Y-127539027D01*
X259555915Y-127539027D02*
X259522244Y-127640042D01*
X259522244Y-127640042D02*
X259421228Y-127741057D01*
X259791618Y-126427859D02*
X260263022Y-126899263D01*
X259488572Y-126730904D02*
X259858961Y-127101294D01*
X259858961Y-127101294D02*
X259959976Y-127134965D01*
X259959976Y-127134965D02*
X260060992Y-127101294D01*
X260060992Y-127101294D02*
X260162007Y-127000278D01*
X260162007Y-127000278D02*
X260195679Y-126899263D01*
X260195679Y-126899263D02*
X260195679Y-126831920D01*
X260027320Y-126192156D02*
X260296694Y-125922782D01*
X259892633Y-125855439D02*
X260498724Y-126461530D01*
X260498724Y-126461530D02*
X260599740Y-126495202D01*
X260599740Y-126495202D02*
X260700755Y-126461530D01*
X260700755Y-126461530D02*
X260768098Y-126394187D01*
X261542549Y-125619736D02*
X260835442Y-124912629D01*
X261946610Y-125215675D02*
X261239503Y-125114660D01*
X261239503Y-124508568D02*
X261239503Y-125316690D01*
X262249656Y-124912629D02*
X261542549Y-124205523D01*
X261811923Y-123936149D02*
X262249656Y-123498416D01*
X262249656Y-123498416D02*
X262283327Y-124003492D01*
X262283327Y-124003492D02*
X262384343Y-123902477D01*
X262384343Y-123902477D02*
X262485358Y-123868805D01*
X262485358Y-123868805D02*
X262552701Y-123868805D01*
X262552701Y-123868805D02*
X262653717Y-123902477D01*
X262653717Y-123902477D02*
X262822075Y-124070836D01*
X262822075Y-124070836D02*
X262855747Y-124171851D01*
X262855747Y-124171851D02*
X262855747Y-124239195D01*
X262855747Y-124239195D02*
X262822075Y-124340210D01*
X262822075Y-124340210D02*
X262620045Y-124542240D01*
X262620045Y-124542240D02*
X262519030Y-124575912D01*
X262519030Y-124575912D02*
X262451686Y-124575912D01*
X263259808Y-123902477D02*
X262552701Y-123195370D01*
X262552701Y-123195370D02*
X262822075Y-122925996D01*
X262822075Y-122925996D02*
X262923091Y-122892325D01*
X262923091Y-122892325D02*
X262990434Y-122892325D01*
X262990434Y-122892325D02*
X263091449Y-122925996D01*
X263091449Y-122925996D02*
X263192465Y-123027012D01*
X263192465Y-123027012D02*
X263226136Y-123128027D01*
X263226136Y-123128027D02*
X263226136Y-123195370D01*
X263226136Y-123195370D02*
X263192465Y-123296386D01*
X263192465Y-123296386D02*
X262923091Y-123565760D01*
X258034249Y-130125314D02*
X258034249Y-130057971D01*
X258034249Y-130057971D02*
X258067920Y-129956955D01*
X258067920Y-129956955D02*
X258236279Y-129788597D01*
X258236279Y-129788597D02*
X258337294Y-129754925D01*
X258337294Y-129754925D02*
X258404638Y-129754925D01*
X258404638Y-129754925D02*
X258505653Y-129788597D01*
X258505653Y-129788597D02*
X258572997Y-129855940D01*
X258572997Y-129855940D02*
X258640340Y-129990627D01*
X258640340Y-129990627D02*
X258640340Y-130798749D01*
X258640340Y-130798749D02*
X259078073Y-130361017D01*
X259212760Y-129283520D02*
X259684164Y-129754925D01*
X258775027Y-129182505D02*
X259111745Y-129855940D01*
X259111745Y-129855940D02*
X259549477Y-129418207D01*
X259785180Y-129115162D02*
X260323928Y-128576414D01*
X260357599Y-127667276D02*
X260424943Y-127599933D01*
X260424943Y-127599933D02*
X260525958Y-127566261D01*
X260525958Y-127566261D02*
X260593302Y-127566261D01*
X260593302Y-127566261D02*
X260694317Y-127599933D01*
X260694317Y-127599933D02*
X260862676Y-127700948D01*
X260862676Y-127700948D02*
X261031034Y-127869307D01*
X261031034Y-127869307D02*
X261132050Y-128037666D01*
X261132050Y-128037666D02*
X261165721Y-128138681D01*
X261165721Y-128138681D02*
X261165721Y-128206025D01*
X261165721Y-128206025D02*
X261132050Y-128307040D01*
X261132050Y-128307040D02*
X261064706Y-128374383D01*
X261064706Y-128374383D02*
X260963691Y-128408055D01*
X260963691Y-128408055D02*
X260896347Y-128408055D01*
X260896347Y-128408055D02*
X260795332Y-128374383D01*
X260795332Y-128374383D02*
X260626973Y-128273368D01*
X260626973Y-128273368D02*
X260458615Y-128105009D01*
X260458615Y-128105009D02*
X260357599Y-127936651D01*
X260357599Y-127936651D02*
X260323928Y-127835635D01*
X260323928Y-127835635D02*
X260323928Y-127768292D01*
X260323928Y-127768292D02*
X260357599Y-127667276D01*
X260930019Y-127229544D02*
X260930019Y-127162200D01*
X260930019Y-127162200D02*
X260963691Y-127061185D01*
X260963691Y-127061185D02*
X261132050Y-126892826D01*
X261132050Y-126892826D02*
X261233065Y-126859154D01*
X261233065Y-126859154D02*
X261300408Y-126859154D01*
X261300408Y-126859154D02*
X261401424Y-126892826D01*
X261401424Y-126892826D02*
X261468767Y-126960170D01*
X261468767Y-126960170D02*
X261536111Y-127094857D01*
X261536111Y-127094857D02*
X261536111Y-127902979D01*
X261536111Y-127902979D02*
X261973843Y-127465246D01*
X262007515Y-126892826D02*
X262546263Y-126354078D01*
X262579935Y-125444941D02*
X262647278Y-125377597D01*
X262647278Y-125377597D02*
X262748294Y-125343926D01*
X262748294Y-125343926D02*
X262815637Y-125343926D01*
X262815637Y-125343926D02*
X262916652Y-125377597D01*
X262916652Y-125377597D02*
X263085011Y-125478613D01*
X263085011Y-125478613D02*
X263253370Y-125646972D01*
X263253370Y-125646972D02*
X263354385Y-125815330D01*
X263354385Y-125815330D02*
X263388057Y-125916346D01*
X263388057Y-125916346D02*
X263388057Y-125983689D01*
X263388057Y-125983689D02*
X263354385Y-126084704D01*
X263354385Y-126084704D02*
X263287042Y-126152048D01*
X263287042Y-126152048D02*
X263186026Y-126185720D01*
X263186026Y-126185720D02*
X263118683Y-126185720D01*
X263118683Y-126185720D02*
X263017668Y-126152048D01*
X263017668Y-126152048D02*
X262849309Y-126051033D01*
X262849309Y-126051033D02*
X262680950Y-125882674D01*
X262680950Y-125882674D02*
X262579935Y-125714315D01*
X262579935Y-125714315D02*
X262546263Y-125613300D01*
X262546263Y-125613300D02*
X262546263Y-125545956D01*
X262546263Y-125545956D02*
X262579935Y-125444941D01*
X263051339Y-124973536D02*
X263489072Y-124535804D01*
X263489072Y-124535804D02*
X263522744Y-125040880D01*
X263522744Y-125040880D02*
X263623759Y-124939865D01*
X263623759Y-124939865D02*
X263724774Y-124906193D01*
X263724774Y-124906193D02*
X263792118Y-124906193D01*
X263792118Y-124906193D02*
X263893133Y-124939865D01*
X263893133Y-124939865D02*
X264061492Y-125108223D01*
X264061492Y-125108223D02*
X264095164Y-125209239D01*
X264095164Y-125209239D02*
X264095164Y-125276582D01*
X264095164Y-125276582D02*
X264061492Y-125377597D01*
X264061492Y-125377597D02*
X263859461Y-125579628D01*
X263859461Y-125579628D02*
X263758446Y-125613300D01*
X263758446Y-125613300D02*
X263691103Y-125613300D01*
X259846086Y-131869808D02*
X259138979Y-131162701D01*
X259138979Y-131162701D02*
X259879757Y-131432075D01*
X259879757Y-131432075D02*
X259610383Y-130691296D01*
X259610383Y-130691296D02*
X260317490Y-131398403D01*
X260755223Y-130960671D02*
X260654207Y-130994342D01*
X260654207Y-130994342D02*
X260586864Y-130994342D01*
X260586864Y-130994342D02*
X260485849Y-130960671D01*
X260485849Y-130960671D02*
X260283818Y-130758640D01*
X260283818Y-130758640D02*
X260250146Y-130657625D01*
X260250146Y-130657625D02*
X260250146Y-130590281D01*
X260250146Y-130590281D02*
X260283818Y-130489266D01*
X260283818Y-130489266D02*
X260384833Y-130388251D01*
X260384833Y-130388251D02*
X260485849Y-130354579D01*
X260485849Y-130354579D02*
X260553192Y-130354579D01*
X260553192Y-130354579D02*
X260654207Y-130388251D01*
X260654207Y-130388251D02*
X260856238Y-130590281D01*
X260856238Y-130590281D02*
X260889910Y-130691297D01*
X260889910Y-130691297D02*
X260889910Y-130758640D01*
X260889910Y-130758640D02*
X260856238Y-130859655D01*
X260856238Y-130859655D02*
X260755223Y-130960671D01*
X261597017Y-130118877D02*
X260889910Y-129411770D01*
X261563345Y-130085205D02*
X261529673Y-130186220D01*
X261529673Y-130186220D02*
X261394986Y-130320907D01*
X261394986Y-130320907D02*
X261293971Y-130354579D01*
X261293971Y-130354579D02*
X261226627Y-130354579D01*
X261226627Y-130354579D02*
X261125612Y-130320907D01*
X261125612Y-130320907D02*
X260923582Y-130118877D01*
X260923582Y-130118877D02*
X260889910Y-130017861D01*
X260889910Y-130017861D02*
X260889910Y-129950518D01*
X260889910Y-129950518D02*
X260923582Y-129849503D01*
X260923582Y-129849503D02*
X261058269Y-129714816D01*
X261058269Y-129714816D02*
X261159284Y-129681144D01*
X262169436Y-129479113D02*
X262135765Y-129580129D01*
X262135765Y-129580129D02*
X262001078Y-129714816D01*
X262001078Y-129714816D02*
X261900062Y-129748487D01*
X261900062Y-129748487D02*
X261799047Y-129714816D01*
X261799047Y-129714816D02*
X261529673Y-129445442D01*
X261529673Y-129445442D02*
X261496001Y-129344426D01*
X261496001Y-129344426D02*
X261529673Y-129243411D01*
X261529673Y-129243411D02*
X261664360Y-129108724D01*
X261664360Y-129108724D02*
X261765375Y-129075052D01*
X261765375Y-129075052D02*
X261866391Y-129108724D01*
X261866391Y-129108724D02*
X261933734Y-129176068D01*
X261933734Y-129176068D02*
X261664360Y-129580129D01*
X262842872Y-128873022D02*
X262135765Y-128165915D01*
X262809200Y-128839350D02*
X262775528Y-128940365D01*
X262775528Y-128940365D02*
X262640841Y-129075052D01*
X262640841Y-129075052D02*
X262539826Y-129108724D01*
X262539826Y-129108724D02*
X262472482Y-129108724D01*
X262472482Y-129108724D02*
X262371467Y-129075052D01*
X262371467Y-129075052D02*
X262169437Y-128873022D01*
X262169437Y-128873022D02*
X262135765Y-128772007D01*
X262135765Y-128772007D02*
X262135765Y-128704663D01*
X262135765Y-128704663D02*
X262169437Y-128603648D01*
X262169437Y-128603648D02*
X262304124Y-128468961D01*
X262304124Y-128468961D02*
X262405139Y-128435289D01*
X262910215Y-127391464D02*
X263853024Y-127862869D01*
X263853024Y-127862869D02*
X263381620Y-126920060D01*
X263954040Y-127021075D02*
X264189742Y-126785373D01*
X264661146Y-127054747D02*
X264324429Y-127391464D01*
X264324429Y-127391464D02*
X263617322Y-126684358D01*
X263617322Y-126684358D02*
X263954040Y-126347640D01*
X264189742Y-126111938D02*
X264627475Y-125674205D01*
X264627475Y-125674205D02*
X264661147Y-126179281D01*
X264661147Y-126179281D02*
X264762162Y-126078266D01*
X264762162Y-126078266D02*
X264863177Y-126044594D01*
X264863177Y-126044594D02*
X264930521Y-126044594D01*
X264930521Y-126044594D02*
X265031536Y-126078266D01*
X265031536Y-126078266D02*
X265199895Y-126246625D01*
X265199895Y-126246625D02*
X265233566Y-126347640D01*
X265233566Y-126347640D02*
X265233566Y-126414984D01*
X265233566Y-126414984D02*
X265199895Y-126515999D01*
X265199895Y-126515999D02*
X264997864Y-126718029D01*
X264997864Y-126718029D02*
X264896849Y-126751701D01*
X264896849Y-126751701D02*
X264829505Y-126751701D01*
X265974345Y-125741548D02*
X265637627Y-126078266D01*
X265637627Y-126078266D02*
X264930521Y-125371159D01*
X266210047Y-125505846D02*
X265502941Y-124798739D01*
X265839658Y-125135457D02*
X266243719Y-124731396D01*
X266614108Y-125101785D02*
X265907002Y-124394678D01*
X266378406Y-123923274D02*
X266513093Y-123788587D01*
X266513093Y-123788587D02*
X266614108Y-123754915D01*
X266614108Y-123754915D02*
X266748795Y-123754915D01*
X266748795Y-123754915D02*
X266917154Y-123855930D01*
X266917154Y-123855930D02*
X267152856Y-124091633D01*
X267152856Y-124091633D02*
X267253872Y-124259991D01*
X267253872Y-124259991D02*
X267253872Y-124394678D01*
X267253872Y-124394678D02*
X267220200Y-124495694D01*
X267220200Y-124495694D02*
X267085513Y-124630381D01*
X267085513Y-124630381D02*
X266984498Y-124664052D01*
X266984498Y-124664052D02*
X266849811Y-124664052D01*
X266849811Y-124664052D02*
X266681452Y-124563037D01*
X266681452Y-124563037D02*
X266445750Y-124327335D01*
X266445750Y-124327335D02*
X266344734Y-124158976D01*
X266344734Y-124158976D02*
X266344734Y-124024289D01*
X266344734Y-124024289D02*
X266378406Y-123923274D01*
D11*
X234911653Y-46700828D02*
X235840225Y-46700828D01*
X235840225Y-46700828D02*
X235340225Y-47272257D01*
X235340225Y-47272257D02*
X235554510Y-47272257D01*
X235554510Y-47272257D02*
X235697368Y-47343685D01*
X235697368Y-47343685D02*
X235768796Y-47415114D01*
X235768796Y-47415114D02*
X235840225Y-47557971D01*
X235840225Y-47557971D02*
X235840225Y-47915114D01*
X235840225Y-47915114D02*
X235768796Y-48057971D01*
X235768796Y-48057971D02*
X235697368Y-48129400D01*
X235697368Y-48129400D02*
X235554510Y-48200828D01*
X235554510Y-48200828D02*
X235125939Y-48200828D01*
X235125939Y-48200828D02*
X234983082Y-48129400D01*
X234983082Y-48129400D02*
X234911653Y-48057971D01*
X236768796Y-46700828D02*
X236911653Y-46700828D01*
X236911653Y-46700828D02*
X237054510Y-46772257D01*
X237054510Y-46772257D02*
X237125939Y-46843685D01*
X237125939Y-46843685D02*
X237197367Y-46986542D01*
X237197367Y-46986542D02*
X237268796Y-47272257D01*
X237268796Y-47272257D02*
X237268796Y-47629400D01*
X237268796Y-47629400D02*
X237197367Y-47915114D01*
X237197367Y-47915114D02*
X237125939Y-48057971D01*
X237125939Y-48057971D02*
X237054510Y-48129400D01*
X237054510Y-48129400D02*
X236911653Y-48200828D01*
X236911653Y-48200828D02*
X236768796Y-48200828D01*
X236768796Y-48200828D02*
X236625939Y-48129400D01*
X236625939Y-48129400D02*
X236554510Y-48057971D01*
X236554510Y-48057971D02*
X236483081Y-47915114D01*
X236483081Y-47915114D02*
X236411653Y-47629400D01*
X236411653Y-47629400D02*
X236411653Y-47272257D01*
X236411653Y-47272257D02*
X236483081Y-46986542D01*
X236483081Y-46986542D02*
X236554510Y-46843685D01*
X236554510Y-46843685D02*
X236625939Y-46772257D01*
X236625939Y-46772257D02*
X236768796Y-46700828D01*
X237911652Y-48200828D02*
X237911652Y-47200828D01*
X237911652Y-47343685D02*
X237983081Y-47272257D01*
X237983081Y-47272257D02*
X238125938Y-47200828D01*
X238125938Y-47200828D02*
X238340224Y-47200828D01*
X238340224Y-47200828D02*
X238483081Y-47272257D01*
X238483081Y-47272257D02*
X238554510Y-47415114D01*
X238554510Y-47415114D02*
X238554510Y-48200828D01*
X238554510Y-47415114D02*
X238625938Y-47272257D01*
X238625938Y-47272257D02*
X238768795Y-47200828D01*
X238768795Y-47200828D02*
X238983081Y-47200828D01*
X238983081Y-47200828D02*
X239125938Y-47272257D01*
X239125938Y-47272257D02*
X239197367Y-47415114D01*
X239197367Y-47415114D02*
X239197367Y-48200828D01*
X246097368Y-96300828D02*
X245811653Y-96300828D01*
X245811653Y-96300828D02*
X245668796Y-96372257D01*
X245668796Y-96372257D02*
X245597368Y-96443685D01*
X245597368Y-96443685D02*
X245454510Y-96657971D01*
X245454510Y-96657971D02*
X245383082Y-96943685D01*
X245383082Y-96943685D02*
X245383082Y-97515114D01*
X245383082Y-97515114D02*
X245454510Y-97657971D01*
X245454510Y-97657971D02*
X245525939Y-97729400D01*
X245525939Y-97729400D02*
X245668796Y-97800828D01*
X245668796Y-97800828D02*
X245954510Y-97800828D01*
X245954510Y-97800828D02*
X246097368Y-97729400D01*
X246097368Y-97729400D02*
X246168796Y-97657971D01*
X246168796Y-97657971D02*
X246240225Y-97515114D01*
X246240225Y-97515114D02*
X246240225Y-97157971D01*
X246240225Y-97157971D02*
X246168796Y-97015114D01*
X246168796Y-97015114D02*
X246097368Y-96943685D01*
X246097368Y-96943685D02*
X245954510Y-96872257D01*
X245954510Y-96872257D02*
X245668796Y-96872257D01*
X245668796Y-96872257D02*
X245525939Y-96943685D01*
X245525939Y-96943685D02*
X245454510Y-97015114D01*
X245454510Y-97015114D02*
X245383082Y-97157971D01*
X246883081Y-97800828D02*
X246883081Y-96800828D01*
X246883081Y-96943685D02*
X246954510Y-96872257D01*
X246954510Y-96872257D02*
X247097367Y-96800828D01*
X247097367Y-96800828D02*
X247311653Y-96800828D01*
X247311653Y-96800828D02*
X247454510Y-96872257D01*
X247454510Y-96872257D02*
X247525939Y-97015114D01*
X247525939Y-97015114D02*
X247525939Y-97800828D01*
X247525939Y-97015114D02*
X247597367Y-96872257D01*
X247597367Y-96872257D02*
X247740224Y-96800828D01*
X247740224Y-96800828D02*
X247954510Y-96800828D01*
X247954510Y-96800828D02*
X248097367Y-96872257D01*
X248097367Y-96872257D02*
X248168796Y-97015114D01*
X248168796Y-97015114D02*
X248168796Y-97800828D01*
D10*
X179154728Y-102315715D02*
X178678537Y-102649048D01*
X179154728Y-102887143D02*
X178154728Y-102887143D01*
X178154728Y-102887143D02*
X178154728Y-102506191D01*
X178154728Y-102506191D02*
X178202347Y-102410953D01*
X178202347Y-102410953D02*
X178249966Y-102363334D01*
X178249966Y-102363334D02*
X178345204Y-102315715D01*
X178345204Y-102315715D02*
X178488061Y-102315715D01*
X178488061Y-102315715D02*
X178583299Y-102363334D01*
X178583299Y-102363334D02*
X178630918Y-102410953D01*
X178630918Y-102410953D02*
X178678537Y-102506191D01*
X178678537Y-102506191D02*
X178678537Y-102887143D01*
X178630918Y-101553810D02*
X178630918Y-101887143D01*
X179154728Y-101887143D02*
X178154728Y-101887143D01*
X178154728Y-101887143D02*
X178154728Y-101410953D01*
X178154728Y-100077619D02*
X178154728Y-99887143D01*
X178154728Y-99887143D02*
X178202347Y-99791905D01*
X178202347Y-99791905D02*
X178297585Y-99696667D01*
X178297585Y-99696667D02*
X178488061Y-99649048D01*
X178488061Y-99649048D02*
X178821394Y-99649048D01*
X178821394Y-99649048D02*
X179011870Y-99696667D01*
X179011870Y-99696667D02*
X179107109Y-99791905D01*
X179107109Y-99791905D02*
X179154728Y-99887143D01*
X179154728Y-99887143D02*
X179154728Y-100077619D01*
X179154728Y-100077619D02*
X179107109Y-100172857D01*
X179107109Y-100172857D02*
X179011870Y-100268095D01*
X179011870Y-100268095D02*
X178821394Y-100315714D01*
X178821394Y-100315714D02*
X178488061Y-100315714D01*
X178488061Y-100315714D02*
X178297585Y-100268095D01*
X178297585Y-100268095D02*
X178202347Y-100172857D01*
X178202347Y-100172857D02*
X178154728Y-100077619D01*
X178154728Y-99220476D02*
X178964251Y-99220476D01*
X178964251Y-99220476D02*
X179059489Y-99172857D01*
X179059489Y-99172857D02*
X179107109Y-99125238D01*
X179107109Y-99125238D02*
X179154728Y-99030000D01*
X179154728Y-99030000D02*
X179154728Y-98839524D01*
X179154728Y-98839524D02*
X179107109Y-98744286D01*
X179107109Y-98744286D02*
X179059489Y-98696667D01*
X179059489Y-98696667D02*
X178964251Y-98649048D01*
X178964251Y-98649048D02*
X178154728Y-98649048D01*
X178154728Y-98315714D02*
X178154728Y-97744286D01*
X179154728Y-98030000D02*
X178154728Y-98030000D01*
D11*
X221847368Y-47550828D02*
X221847368Y-48550828D01*
X221490225Y-46979400D02*
X221133082Y-48050828D01*
X221133082Y-48050828D02*
X222061653Y-48050828D01*
X222918796Y-47050828D02*
X223061653Y-47050828D01*
X223061653Y-47050828D02*
X223204510Y-47122257D01*
X223204510Y-47122257D02*
X223275939Y-47193685D01*
X223275939Y-47193685D02*
X223347367Y-47336542D01*
X223347367Y-47336542D02*
X223418796Y-47622257D01*
X223418796Y-47622257D02*
X223418796Y-47979400D01*
X223418796Y-47979400D02*
X223347367Y-48265114D01*
X223347367Y-48265114D02*
X223275939Y-48407971D01*
X223275939Y-48407971D02*
X223204510Y-48479400D01*
X223204510Y-48479400D02*
X223061653Y-48550828D01*
X223061653Y-48550828D02*
X222918796Y-48550828D01*
X222918796Y-48550828D02*
X222775939Y-48479400D01*
X222775939Y-48479400D02*
X222704510Y-48407971D01*
X222704510Y-48407971D02*
X222633081Y-48265114D01*
X222633081Y-48265114D02*
X222561653Y-47979400D01*
X222561653Y-47979400D02*
X222561653Y-47622257D01*
X222561653Y-47622257D02*
X222633081Y-47336542D01*
X222633081Y-47336542D02*
X222704510Y-47193685D01*
X222704510Y-47193685D02*
X222775939Y-47122257D01*
X222775939Y-47122257D02*
X222918796Y-47050828D01*
X224061652Y-48550828D02*
X224061652Y-47550828D01*
X224061652Y-47693685D02*
X224133081Y-47622257D01*
X224133081Y-47622257D02*
X224275938Y-47550828D01*
X224275938Y-47550828D02*
X224490224Y-47550828D01*
X224490224Y-47550828D02*
X224633081Y-47622257D01*
X224633081Y-47622257D02*
X224704510Y-47765114D01*
X224704510Y-47765114D02*
X224704510Y-48550828D01*
X224704510Y-47765114D02*
X224775938Y-47622257D01*
X224775938Y-47622257D02*
X224918795Y-47550828D01*
X224918795Y-47550828D02*
X225133081Y-47550828D01*
X225133081Y-47550828D02*
X225275938Y-47622257D01*
X225275938Y-47622257D02*
X225347367Y-47765114D01*
X225347367Y-47765114D02*
X225347367Y-48550828D01*
X230090225Y-97800828D02*
X229233082Y-97800828D01*
X229661653Y-97800828D02*
X229661653Y-96300828D01*
X229661653Y-96300828D02*
X229518796Y-96515114D01*
X229518796Y-96515114D02*
X229375939Y-96657971D01*
X229375939Y-96657971D02*
X229233082Y-96729400D01*
X231018796Y-96300828D02*
X231161653Y-96300828D01*
X231161653Y-96300828D02*
X231304510Y-96372257D01*
X231304510Y-96372257D02*
X231375939Y-96443685D01*
X231375939Y-96443685D02*
X231447367Y-96586542D01*
X231447367Y-96586542D02*
X231518796Y-96872257D01*
X231518796Y-96872257D02*
X231518796Y-97229400D01*
X231518796Y-97229400D02*
X231447367Y-97515114D01*
X231447367Y-97515114D02*
X231375939Y-97657971D01*
X231375939Y-97657971D02*
X231304510Y-97729400D01*
X231304510Y-97729400D02*
X231161653Y-97800828D01*
X231161653Y-97800828D02*
X231018796Y-97800828D01*
X231018796Y-97800828D02*
X230875939Y-97729400D01*
X230875939Y-97729400D02*
X230804510Y-97657971D01*
X230804510Y-97657971D02*
X230733081Y-97515114D01*
X230733081Y-97515114D02*
X230661653Y-97229400D01*
X230661653Y-97229400D02*
X230661653Y-96872257D01*
X230661653Y-96872257D02*
X230733081Y-96586542D01*
X230733081Y-96586542D02*
X230804510Y-96443685D01*
X230804510Y-96443685D02*
X230875939Y-96372257D01*
X230875939Y-96372257D02*
X231018796Y-96300828D01*
X232161652Y-97800828D02*
X232161652Y-96800828D01*
X232161652Y-96943685D02*
X232233081Y-96872257D01*
X232233081Y-96872257D02*
X232375938Y-96800828D01*
X232375938Y-96800828D02*
X232590224Y-96800828D01*
X232590224Y-96800828D02*
X232733081Y-96872257D01*
X232733081Y-96872257D02*
X232804510Y-97015114D01*
X232804510Y-97015114D02*
X232804510Y-97800828D01*
X232804510Y-97015114D02*
X232875938Y-96872257D01*
X232875938Y-96872257D02*
X233018795Y-96800828D01*
X233018795Y-96800828D02*
X233233081Y-96800828D01*
X233233081Y-96800828D02*
X233375938Y-96872257D01*
X233375938Y-96872257D02*
X233447367Y-97015114D01*
X233447367Y-97015114D02*
X233447367Y-97800828D01*
X170740225Y-52600828D02*
X169883082Y-52600828D01*
X170311653Y-52600828D02*
X170311653Y-51100828D01*
X170311653Y-51100828D02*
X170168796Y-51315114D01*
X170168796Y-51315114D02*
X170025939Y-51457971D01*
X170025939Y-51457971D02*
X169883082Y-51529400D01*
X172025939Y-51100828D02*
X171740224Y-51100828D01*
X171740224Y-51100828D02*
X171597367Y-51172257D01*
X171597367Y-51172257D02*
X171525939Y-51243685D01*
X171525939Y-51243685D02*
X171383081Y-51457971D01*
X171383081Y-51457971D02*
X171311653Y-51743685D01*
X171311653Y-51743685D02*
X171311653Y-52315114D01*
X171311653Y-52315114D02*
X171383081Y-52457971D01*
X171383081Y-52457971D02*
X171454510Y-52529400D01*
X171454510Y-52529400D02*
X171597367Y-52600828D01*
X171597367Y-52600828D02*
X171883081Y-52600828D01*
X171883081Y-52600828D02*
X172025939Y-52529400D01*
X172025939Y-52529400D02*
X172097367Y-52457971D01*
X172097367Y-52457971D02*
X172168796Y-52315114D01*
X172168796Y-52315114D02*
X172168796Y-51957971D01*
X172168796Y-51957971D02*
X172097367Y-51815114D01*
X172097367Y-51815114D02*
X172025939Y-51743685D01*
X172025939Y-51743685D02*
X171883081Y-51672257D01*
X171883081Y-51672257D02*
X171597367Y-51672257D01*
X171597367Y-51672257D02*
X171454510Y-51743685D01*
X171454510Y-51743685D02*
X171383081Y-51815114D01*
X171383081Y-51815114D02*
X171311653Y-51957971D01*
X173097367Y-51100828D02*
X173240224Y-51100828D01*
X173240224Y-51100828D02*
X173383081Y-51172257D01*
X173383081Y-51172257D02*
X173454510Y-51243685D01*
X173454510Y-51243685D02*
X173525938Y-51386542D01*
X173525938Y-51386542D02*
X173597367Y-51672257D01*
X173597367Y-51672257D02*
X173597367Y-52029400D01*
X173597367Y-52029400D02*
X173525938Y-52315114D01*
X173525938Y-52315114D02*
X173454510Y-52457971D01*
X173454510Y-52457971D02*
X173383081Y-52529400D01*
X173383081Y-52529400D02*
X173240224Y-52600828D01*
X173240224Y-52600828D02*
X173097367Y-52600828D01*
X173097367Y-52600828D02*
X172954510Y-52529400D01*
X172954510Y-52529400D02*
X172883081Y-52457971D01*
X172883081Y-52457971D02*
X172811652Y-52315114D01*
X172811652Y-52315114D02*
X172740224Y-52029400D01*
X172740224Y-52029400D02*
X172740224Y-51672257D01*
X172740224Y-51672257D02*
X172811652Y-51386542D01*
X172811652Y-51386542D02*
X172883081Y-51243685D01*
X172883081Y-51243685D02*
X172954510Y-51172257D01*
X172954510Y-51172257D02*
X173097367Y-51100828D01*
X174240223Y-52600828D02*
X174240223Y-51600828D01*
X174240223Y-51743685D02*
X174311652Y-51672257D01*
X174311652Y-51672257D02*
X174454509Y-51600828D01*
X174454509Y-51600828D02*
X174668795Y-51600828D01*
X174668795Y-51600828D02*
X174811652Y-51672257D01*
X174811652Y-51672257D02*
X174883081Y-51815114D01*
X174883081Y-51815114D02*
X174883081Y-52600828D01*
X174883081Y-51815114D02*
X174954509Y-51672257D01*
X174954509Y-51672257D02*
X175097366Y-51600828D01*
X175097366Y-51600828D02*
X175311652Y-51600828D01*
X175311652Y-51600828D02*
X175454509Y-51672257D01*
X175454509Y-51672257D02*
X175525938Y-51815114D01*
X175525938Y-51815114D02*
X175525938Y-52600828D01*
X207306354Y-46660751D02*
X207020639Y-46660751D01*
X207020639Y-46660751D02*
X206877782Y-46732180D01*
X206877782Y-46732180D02*
X206806354Y-46803608D01*
X206806354Y-46803608D02*
X206663496Y-47017894D01*
X206663496Y-47017894D02*
X206592068Y-47303608D01*
X206592068Y-47303608D02*
X206592068Y-47875037D01*
X206592068Y-47875037D02*
X206663496Y-48017894D01*
X206663496Y-48017894D02*
X206734925Y-48089323D01*
X206734925Y-48089323D02*
X206877782Y-48160751D01*
X206877782Y-48160751D02*
X207163496Y-48160751D01*
X207163496Y-48160751D02*
X207306354Y-48089323D01*
X207306354Y-48089323D02*
X207377782Y-48017894D01*
X207377782Y-48017894D02*
X207449211Y-47875037D01*
X207449211Y-47875037D02*
X207449211Y-47517894D01*
X207449211Y-47517894D02*
X207377782Y-47375037D01*
X207377782Y-47375037D02*
X207306354Y-47303608D01*
X207306354Y-47303608D02*
X207163496Y-47232180D01*
X207163496Y-47232180D02*
X206877782Y-47232180D01*
X206877782Y-47232180D02*
X206734925Y-47303608D01*
X206734925Y-47303608D02*
X206663496Y-47375037D01*
X206663496Y-47375037D02*
X206592068Y-47517894D01*
X208377782Y-46660751D02*
X208520639Y-46660751D01*
X208520639Y-46660751D02*
X208663496Y-46732180D01*
X208663496Y-46732180D02*
X208734925Y-46803608D01*
X208734925Y-46803608D02*
X208806353Y-46946465D01*
X208806353Y-46946465D02*
X208877782Y-47232180D01*
X208877782Y-47232180D02*
X208877782Y-47589323D01*
X208877782Y-47589323D02*
X208806353Y-47875037D01*
X208806353Y-47875037D02*
X208734925Y-48017894D01*
X208734925Y-48017894D02*
X208663496Y-48089323D01*
X208663496Y-48089323D02*
X208520639Y-48160751D01*
X208520639Y-48160751D02*
X208377782Y-48160751D01*
X208377782Y-48160751D02*
X208234925Y-48089323D01*
X208234925Y-48089323D02*
X208163496Y-48017894D01*
X208163496Y-48017894D02*
X208092067Y-47875037D01*
X208092067Y-47875037D02*
X208020639Y-47589323D01*
X208020639Y-47589323D02*
X208020639Y-47232180D01*
X208020639Y-47232180D02*
X208092067Y-46946465D01*
X208092067Y-46946465D02*
X208163496Y-46803608D01*
X208163496Y-46803608D02*
X208234925Y-46732180D01*
X208234925Y-46732180D02*
X208377782Y-46660751D01*
X209520638Y-48160751D02*
X209520638Y-47160751D01*
X209520638Y-47303608D02*
X209592067Y-47232180D01*
X209592067Y-47232180D02*
X209734924Y-47160751D01*
X209734924Y-47160751D02*
X209949210Y-47160751D01*
X209949210Y-47160751D02*
X210092067Y-47232180D01*
X210092067Y-47232180D02*
X210163496Y-47375037D01*
X210163496Y-47375037D02*
X210163496Y-48160751D01*
X210163496Y-47375037D02*
X210234924Y-47232180D01*
X210234924Y-47232180D02*
X210377781Y-47160751D01*
X210377781Y-47160751D02*
X210592067Y-47160751D01*
X210592067Y-47160751D02*
X210734924Y-47232180D01*
X210734924Y-47232180D02*
X210806353Y-47375037D01*
X210806353Y-47375037D02*
X210806353Y-48160751D01*
X215340225Y-95800828D02*
X214483082Y-95800828D01*
X214911653Y-95800828D02*
X214911653Y-94300828D01*
X214911653Y-94300828D02*
X214768796Y-94515114D01*
X214768796Y-94515114D02*
X214625939Y-94657971D01*
X214625939Y-94657971D02*
X214483082Y-94729400D01*
X215911653Y-94443685D02*
X215983081Y-94372257D01*
X215983081Y-94372257D02*
X216125939Y-94300828D01*
X216125939Y-94300828D02*
X216483081Y-94300828D01*
X216483081Y-94300828D02*
X216625939Y-94372257D01*
X216625939Y-94372257D02*
X216697367Y-94443685D01*
X216697367Y-94443685D02*
X216768796Y-94586542D01*
X216768796Y-94586542D02*
X216768796Y-94729400D01*
X216768796Y-94729400D02*
X216697367Y-94943685D01*
X216697367Y-94943685D02*
X215840224Y-95800828D01*
X215840224Y-95800828D02*
X216768796Y-95800828D01*
X217411652Y-95800828D02*
X217411652Y-94800828D01*
X217411652Y-94943685D02*
X217483081Y-94872257D01*
X217483081Y-94872257D02*
X217625938Y-94800828D01*
X217625938Y-94800828D02*
X217840224Y-94800828D01*
X217840224Y-94800828D02*
X217983081Y-94872257D01*
X217983081Y-94872257D02*
X218054510Y-95015114D01*
X218054510Y-95015114D02*
X218054510Y-95800828D01*
X218054510Y-95015114D02*
X218125938Y-94872257D01*
X218125938Y-94872257D02*
X218268795Y-94800828D01*
X218268795Y-94800828D02*
X218483081Y-94800828D01*
X218483081Y-94800828D02*
X218625938Y-94872257D01*
X218625938Y-94872257D02*
X218697367Y-95015114D01*
X218697367Y-95015114D02*
X218697367Y-95800828D01*
X191156859Y-46722762D02*
X191014002Y-46651334D01*
X191014002Y-46651334D02*
X190942573Y-46579905D01*
X190942573Y-46579905D02*
X190871145Y-46437048D01*
X190871145Y-46437048D02*
X190871145Y-46365619D01*
X190871145Y-46365619D02*
X190942573Y-46222762D01*
X190942573Y-46222762D02*
X191014002Y-46151334D01*
X191014002Y-46151334D02*
X191156859Y-46079905D01*
X191156859Y-46079905D02*
X191442573Y-46079905D01*
X191442573Y-46079905D02*
X191585431Y-46151334D01*
X191585431Y-46151334D02*
X191656859Y-46222762D01*
X191656859Y-46222762D02*
X191728288Y-46365619D01*
X191728288Y-46365619D02*
X191728288Y-46437048D01*
X191728288Y-46437048D02*
X191656859Y-46579905D01*
X191656859Y-46579905D02*
X191585431Y-46651334D01*
X191585431Y-46651334D02*
X191442573Y-46722762D01*
X191442573Y-46722762D02*
X191156859Y-46722762D01*
X191156859Y-46722762D02*
X191014002Y-46794191D01*
X191014002Y-46794191D02*
X190942573Y-46865619D01*
X190942573Y-46865619D02*
X190871145Y-47008477D01*
X190871145Y-47008477D02*
X190871145Y-47294191D01*
X190871145Y-47294191D02*
X190942573Y-47437048D01*
X190942573Y-47437048D02*
X191014002Y-47508477D01*
X191014002Y-47508477D02*
X191156859Y-47579905D01*
X191156859Y-47579905D02*
X191442573Y-47579905D01*
X191442573Y-47579905D02*
X191585431Y-47508477D01*
X191585431Y-47508477D02*
X191656859Y-47437048D01*
X191656859Y-47437048D02*
X191728288Y-47294191D01*
X191728288Y-47294191D02*
X191728288Y-47008477D01*
X191728288Y-47008477D02*
X191656859Y-46865619D01*
X191656859Y-46865619D02*
X191585431Y-46794191D01*
X191585431Y-46794191D02*
X191442573Y-46722762D01*
X192656859Y-46079905D02*
X192799716Y-46079905D01*
X192799716Y-46079905D02*
X192942573Y-46151334D01*
X192942573Y-46151334D02*
X193014002Y-46222762D01*
X193014002Y-46222762D02*
X193085430Y-46365619D01*
X193085430Y-46365619D02*
X193156859Y-46651334D01*
X193156859Y-46651334D02*
X193156859Y-47008477D01*
X193156859Y-47008477D02*
X193085430Y-47294191D01*
X193085430Y-47294191D02*
X193014002Y-47437048D01*
X193014002Y-47437048D02*
X192942573Y-47508477D01*
X192942573Y-47508477D02*
X192799716Y-47579905D01*
X192799716Y-47579905D02*
X192656859Y-47579905D01*
X192656859Y-47579905D02*
X192514002Y-47508477D01*
X192514002Y-47508477D02*
X192442573Y-47437048D01*
X192442573Y-47437048D02*
X192371144Y-47294191D01*
X192371144Y-47294191D02*
X192299716Y-47008477D01*
X192299716Y-47008477D02*
X192299716Y-46651334D01*
X192299716Y-46651334D02*
X192371144Y-46365619D01*
X192371144Y-46365619D02*
X192442573Y-46222762D01*
X192442573Y-46222762D02*
X192514002Y-46151334D01*
X192514002Y-46151334D02*
X192656859Y-46079905D01*
X193799715Y-47579905D02*
X193799715Y-46579905D01*
X193799715Y-46722762D02*
X193871144Y-46651334D01*
X193871144Y-46651334D02*
X194014001Y-46579905D01*
X194014001Y-46579905D02*
X194228287Y-46579905D01*
X194228287Y-46579905D02*
X194371144Y-46651334D01*
X194371144Y-46651334D02*
X194442573Y-46794191D01*
X194442573Y-46794191D02*
X194442573Y-47579905D01*
X194442573Y-46794191D02*
X194514001Y-46651334D01*
X194514001Y-46651334D02*
X194656858Y-46579905D01*
X194656858Y-46579905D02*
X194871144Y-46579905D01*
X194871144Y-46579905D02*
X195014001Y-46651334D01*
X195014001Y-46651334D02*
X195085430Y-46794191D01*
X195085430Y-46794191D02*
X195085430Y-47579905D01*
X199340225Y-97800828D02*
X198483082Y-97800828D01*
X198911653Y-97800828D02*
X198911653Y-96300828D01*
X198911653Y-96300828D02*
X198768796Y-96515114D01*
X198768796Y-96515114D02*
X198625939Y-96657971D01*
X198625939Y-96657971D02*
X198483082Y-96729400D01*
X200697367Y-96300828D02*
X199983081Y-96300828D01*
X199983081Y-96300828D02*
X199911653Y-97015114D01*
X199911653Y-97015114D02*
X199983081Y-96943685D01*
X199983081Y-96943685D02*
X200125939Y-96872257D01*
X200125939Y-96872257D02*
X200483081Y-96872257D01*
X200483081Y-96872257D02*
X200625939Y-96943685D01*
X200625939Y-96943685D02*
X200697367Y-97015114D01*
X200697367Y-97015114D02*
X200768796Y-97157971D01*
X200768796Y-97157971D02*
X200768796Y-97515114D01*
X200768796Y-97515114D02*
X200697367Y-97657971D01*
X200697367Y-97657971D02*
X200625939Y-97729400D01*
X200625939Y-97729400D02*
X200483081Y-97800828D01*
X200483081Y-97800828D02*
X200125939Y-97800828D01*
X200125939Y-97800828D02*
X199983081Y-97729400D01*
X199983081Y-97729400D02*
X199911653Y-97657971D01*
X201411652Y-97800828D02*
X201411652Y-96800828D01*
X201411652Y-96943685D02*
X201483081Y-96872257D01*
X201483081Y-96872257D02*
X201625938Y-96800828D01*
X201625938Y-96800828D02*
X201840224Y-96800828D01*
X201840224Y-96800828D02*
X201983081Y-96872257D01*
X201983081Y-96872257D02*
X202054510Y-97015114D01*
X202054510Y-97015114D02*
X202054510Y-97800828D01*
X202054510Y-97015114D02*
X202125938Y-96872257D01*
X202125938Y-96872257D02*
X202268795Y-96800828D01*
X202268795Y-96800828D02*
X202483081Y-96800828D01*
X202483081Y-96800828D02*
X202625938Y-96872257D01*
X202625938Y-96872257D02*
X202697367Y-97015114D01*
X202697367Y-97015114D02*
X202697367Y-97800828D01*
D10*
X262274207Y-95373819D02*
X261940874Y-94897628D01*
X261702779Y-95373819D02*
X261702779Y-94373819D01*
X261702779Y-94373819D02*
X262083731Y-94373819D01*
X262083731Y-94373819D02*
X262178969Y-94421438D01*
X262178969Y-94421438D02*
X262226588Y-94469057D01*
X262226588Y-94469057D02*
X262274207Y-94564295D01*
X262274207Y-94564295D02*
X262274207Y-94707152D01*
X262274207Y-94707152D02*
X262226588Y-94802390D01*
X262226588Y-94802390D02*
X262178969Y-94850009D01*
X262178969Y-94850009D02*
X262083731Y-94897628D01*
X262083731Y-94897628D02*
X261702779Y-94897628D01*
X263036112Y-94850009D02*
X262702779Y-94850009D01*
X262702779Y-95373819D02*
X262702779Y-94373819D01*
X262702779Y-94373819D02*
X263178969Y-94373819D01*
X264321827Y-95373819D02*
X264321827Y-94373819D01*
X264798017Y-95373819D02*
X264798017Y-94373819D01*
X264798017Y-94373819D02*
X265369445Y-95373819D01*
X265369445Y-95373819D02*
X265369445Y-94373819D01*
D11*
X186640225Y-97900828D02*
X185783082Y-97900828D01*
X186211653Y-97900828D02*
X186211653Y-96400828D01*
X186211653Y-96400828D02*
X186068796Y-96615114D01*
X186068796Y-96615114D02*
X185925939Y-96757971D01*
X185925939Y-96757971D02*
X185783082Y-96829400D01*
X187140224Y-96400828D02*
X188140224Y-96400828D01*
X188140224Y-96400828D02*
X187497367Y-97900828D01*
X188711652Y-97900828D02*
X188711652Y-96900828D01*
X188711652Y-97043685D02*
X188783081Y-96972257D01*
X188783081Y-96972257D02*
X188925938Y-96900828D01*
X188925938Y-96900828D02*
X189140224Y-96900828D01*
X189140224Y-96900828D02*
X189283081Y-96972257D01*
X189283081Y-96972257D02*
X189354510Y-97115114D01*
X189354510Y-97115114D02*
X189354510Y-97900828D01*
X189354510Y-97115114D02*
X189425938Y-96972257D01*
X189425938Y-96972257D02*
X189568795Y-96900828D01*
X189568795Y-96900828D02*
X189783081Y-96900828D01*
X189783081Y-96900828D02*
X189925938Y-96972257D01*
X189925938Y-96972257D02*
X189997367Y-97115114D01*
X189997367Y-97115114D02*
X189997367Y-97900828D01*
X249483082Y-46743685D02*
X249554510Y-46672257D01*
X249554510Y-46672257D02*
X249697368Y-46600828D01*
X249697368Y-46600828D02*
X250054510Y-46600828D01*
X250054510Y-46600828D02*
X250197368Y-46672257D01*
X250197368Y-46672257D02*
X250268796Y-46743685D01*
X250268796Y-46743685D02*
X250340225Y-46886542D01*
X250340225Y-46886542D02*
X250340225Y-47029400D01*
X250340225Y-47029400D02*
X250268796Y-47243685D01*
X250268796Y-47243685D02*
X249411653Y-48100828D01*
X249411653Y-48100828D02*
X250340225Y-48100828D01*
X251268796Y-46600828D02*
X251411653Y-46600828D01*
X251411653Y-46600828D02*
X251554510Y-46672257D01*
X251554510Y-46672257D02*
X251625939Y-46743685D01*
X251625939Y-46743685D02*
X251697367Y-46886542D01*
X251697367Y-46886542D02*
X251768796Y-47172257D01*
X251768796Y-47172257D02*
X251768796Y-47529400D01*
X251768796Y-47529400D02*
X251697367Y-47815114D01*
X251697367Y-47815114D02*
X251625939Y-47957971D01*
X251625939Y-47957971D02*
X251554510Y-48029400D01*
X251554510Y-48029400D02*
X251411653Y-48100828D01*
X251411653Y-48100828D02*
X251268796Y-48100828D01*
X251268796Y-48100828D02*
X251125939Y-48029400D01*
X251125939Y-48029400D02*
X251054510Y-47957971D01*
X251054510Y-47957971D02*
X250983081Y-47815114D01*
X250983081Y-47815114D02*
X250911653Y-47529400D01*
X250911653Y-47529400D02*
X250911653Y-47172257D01*
X250911653Y-47172257D02*
X250983081Y-46886542D01*
X250983081Y-46886542D02*
X251054510Y-46743685D01*
X251054510Y-46743685D02*
X251125939Y-46672257D01*
X251125939Y-46672257D02*
X251268796Y-46600828D01*
X252411652Y-48100828D02*
X252411652Y-47100828D01*
X252411652Y-47243685D02*
X252483081Y-47172257D01*
X252483081Y-47172257D02*
X252625938Y-47100828D01*
X252625938Y-47100828D02*
X252840224Y-47100828D01*
X252840224Y-47100828D02*
X252983081Y-47172257D01*
X252983081Y-47172257D02*
X253054510Y-47315114D01*
X253054510Y-47315114D02*
X253054510Y-48100828D01*
X253054510Y-47315114D02*
X253125938Y-47172257D01*
X253125938Y-47172257D02*
X253268795Y-47100828D01*
X253268795Y-47100828D02*
X253483081Y-47100828D01*
X253483081Y-47100828D02*
X253625938Y-47172257D01*
X253625938Y-47172257D02*
X253697367Y-47315114D01*
X253697367Y-47315114D02*
X253697367Y-48100828D01*
D10*
X171698489Y-114756970D02*
X171746109Y-114804589D01*
X171746109Y-114804589D02*
X171793728Y-114947446D01*
X171793728Y-114947446D02*
X171793728Y-115042684D01*
X171793728Y-115042684D02*
X171746109Y-115185541D01*
X171746109Y-115185541D02*
X171650870Y-115280779D01*
X171650870Y-115280779D02*
X171555632Y-115328398D01*
X171555632Y-115328398D02*
X171365156Y-115376017D01*
X171365156Y-115376017D02*
X171222299Y-115376017D01*
X171222299Y-115376017D02*
X171031823Y-115328398D01*
X171031823Y-115328398D02*
X170936585Y-115280779D01*
X170936585Y-115280779D02*
X170841347Y-115185541D01*
X170841347Y-115185541D02*
X170793728Y-115042684D01*
X170793728Y-115042684D02*
X170793728Y-114947446D01*
X170793728Y-114947446D02*
X170841347Y-114804589D01*
X170841347Y-114804589D02*
X170888966Y-114756970D01*
X171793728Y-113804589D02*
X171793728Y-114376017D01*
X171793728Y-114090303D02*
X170793728Y-114090303D01*
X170793728Y-114090303D02*
X170936585Y-114185541D01*
X170936585Y-114185541D02*
X171031823Y-114280779D01*
X171031823Y-114280779D02*
X171079442Y-114376017D01*
X170793728Y-113185541D02*
X170793728Y-113090303D01*
X170793728Y-113090303D02*
X170841347Y-112995065D01*
X170841347Y-112995065D02*
X170888966Y-112947446D01*
X170888966Y-112947446D02*
X170984204Y-112899827D01*
X170984204Y-112899827D02*
X171174680Y-112852208D01*
X171174680Y-112852208D02*
X171412775Y-112852208D01*
X171412775Y-112852208D02*
X171603251Y-112899827D01*
X171603251Y-112899827D02*
X171698489Y-112947446D01*
X171698489Y-112947446D02*
X171746109Y-112995065D01*
X171746109Y-112995065D02*
X171793728Y-113090303D01*
X171793728Y-113090303D02*
X171793728Y-113185541D01*
X171793728Y-113185541D02*
X171746109Y-113280779D01*
X171746109Y-113280779D02*
X171698489Y-113328398D01*
X171698489Y-113328398D02*
X171603251Y-113376017D01*
X171603251Y-113376017D02*
X171412775Y-113423636D01*
X171412775Y-113423636D02*
X171174680Y-113423636D01*
X171174680Y-113423636D02*
X170984204Y-113376017D01*
X170984204Y-113376017D02*
X170888966Y-113328398D01*
X170888966Y-113328398D02*
X170841347Y-113280779D01*
X170841347Y-113280779D02*
X170793728Y-113185541D01*
X170793728Y-111995065D02*
X170793728Y-112185541D01*
X170793728Y-112185541D02*
X170841347Y-112280779D01*
X170841347Y-112280779D02*
X170888966Y-112328398D01*
X170888966Y-112328398D02*
X171031823Y-112423636D01*
X171031823Y-112423636D02*
X171222299Y-112471255D01*
X171222299Y-112471255D02*
X171603251Y-112471255D01*
X171603251Y-112471255D02*
X171698489Y-112423636D01*
X171698489Y-112423636D02*
X171746109Y-112376017D01*
X171746109Y-112376017D02*
X171793728Y-112280779D01*
X171793728Y-112280779D02*
X171793728Y-112090303D01*
X171793728Y-112090303D02*
X171746109Y-111995065D01*
X171746109Y-111995065D02*
X171698489Y-111947446D01*
X171698489Y-111947446D02*
X171603251Y-111899827D01*
X171603251Y-111899827D02*
X171365156Y-111899827D01*
X171365156Y-111899827D02*
X171269918Y-111947446D01*
X171269918Y-111947446D02*
X171222299Y-111995065D01*
X171222299Y-111995065D02*
X171174680Y-112090303D01*
X171174680Y-112090303D02*
X171174680Y-112280779D01*
X171174680Y-112280779D02*
X171222299Y-112376017D01*
X171222299Y-112376017D02*
X171269918Y-112423636D01*
X171269918Y-112423636D02*
X171365156Y-112471255D01*
X175359580Y-109119047D02*
X175407200Y-109166666D01*
X175407200Y-109166666D02*
X175454819Y-109309523D01*
X175454819Y-109309523D02*
X175454819Y-109404761D01*
X175454819Y-109404761D02*
X175407200Y-109547618D01*
X175407200Y-109547618D02*
X175311961Y-109642856D01*
X175311961Y-109642856D02*
X175216723Y-109690475D01*
X175216723Y-109690475D02*
X175026247Y-109738094D01*
X175026247Y-109738094D02*
X174883390Y-109738094D01*
X174883390Y-109738094D02*
X174692914Y-109690475D01*
X174692914Y-109690475D02*
X174597676Y-109642856D01*
X174597676Y-109642856D02*
X174502438Y-109547618D01*
X174502438Y-109547618D02*
X174454819Y-109404761D01*
X174454819Y-109404761D02*
X174454819Y-109309523D01*
X174454819Y-109309523D02*
X174502438Y-109166666D01*
X174502438Y-109166666D02*
X174550057Y-109119047D01*
X175454819Y-108166666D02*
X175454819Y-108738094D01*
X175454819Y-108452380D02*
X174454819Y-108452380D01*
X174454819Y-108452380D02*
X174597676Y-108547618D01*
X174597676Y-108547618D02*
X174692914Y-108642856D01*
X174692914Y-108642856D02*
X174740533Y-108738094D01*
X174454819Y-107547618D02*
X174454819Y-107452380D01*
X174454819Y-107452380D02*
X174502438Y-107357142D01*
X174502438Y-107357142D02*
X174550057Y-107309523D01*
X174550057Y-107309523D02*
X174645295Y-107261904D01*
X174645295Y-107261904D02*
X174835771Y-107214285D01*
X174835771Y-107214285D02*
X175073866Y-107214285D01*
X175073866Y-107214285D02*
X175264342Y-107261904D01*
X175264342Y-107261904D02*
X175359580Y-107309523D01*
X175359580Y-107309523D02*
X175407200Y-107357142D01*
X175407200Y-107357142D02*
X175454819Y-107452380D01*
X175454819Y-107452380D02*
X175454819Y-107547618D01*
X175454819Y-107547618D02*
X175407200Y-107642856D01*
X175407200Y-107642856D02*
X175359580Y-107690475D01*
X175359580Y-107690475D02*
X175264342Y-107738094D01*
X175264342Y-107738094D02*
X175073866Y-107785713D01*
X175073866Y-107785713D02*
X174835771Y-107785713D01*
X174835771Y-107785713D02*
X174645295Y-107738094D01*
X174645295Y-107738094D02*
X174550057Y-107690475D01*
X174550057Y-107690475D02*
X174502438Y-107642856D01*
X174502438Y-107642856D02*
X174454819Y-107547618D01*
X174454819Y-106309523D02*
X174454819Y-106785713D01*
X174454819Y-106785713D02*
X174931009Y-106833332D01*
X174931009Y-106833332D02*
X174883390Y-106785713D01*
X174883390Y-106785713D02*
X174835771Y-106690475D01*
X174835771Y-106690475D02*
X174835771Y-106452380D01*
X174835771Y-106452380D02*
X174883390Y-106357142D01*
X174883390Y-106357142D02*
X174931009Y-106309523D01*
X174931009Y-106309523D02*
X175026247Y-106261904D01*
X175026247Y-106261904D02*
X175264342Y-106261904D01*
X175264342Y-106261904D02*
X175359580Y-106309523D01*
X175359580Y-106309523D02*
X175407200Y-106357142D01*
X175407200Y-106357142D02*
X175454819Y-106452380D01*
X175454819Y-106452380D02*
X175454819Y-106690475D01*
X175454819Y-106690475D02*
X175407200Y-106785713D01*
X175407200Y-106785713D02*
X175359580Y-106833332D01*
X257299693Y-119508830D02*
X257299693Y-119576174D01*
X257299693Y-119576174D02*
X257232349Y-119710861D01*
X257232349Y-119710861D02*
X257165006Y-119778204D01*
X257165006Y-119778204D02*
X257030319Y-119845548D01*
X257030319Y-119845548D02*
X256895632Y-119845548D01*
X256895632Y-119845548D02*
X256794617Y-119811876D01*
X256794617Y-119811876D02*
X256626258Y-119710861D01*
X256626258Y-119710861D02*
X256525243Y-119609846D01*
X256525243Y-119609846D02*
X256424227Y-119441487D01*
X256424227Y-119441487D02*
X256390556Y-119340472D01*
X256390556Y-119340472D02*
X256390556Y-119205785D01*
X256390556Y-119205785D02*
X256457899Y-119071098D01*
X256457899Y-119071098D02*
X256525243Y-119003754D01*
X256525243Y-119003754D02*
X256659930Y-118936411D01*
X256659930Y-118936411D02*
X256727273Y-118936411D01*
X257703754Y-119239456D02*
X257838441Y-119104769D01*
X257838441Y-119104769D02*
X257872113Y-119003754D01*
X257872113Y-119003754D02*
X257872113Y-118936411D01*
X257872113Y-118936411D02*
X257838441Y-118768052D01*
X257838441Y-118768052D02*
X257737426Y-118599693D01*
X257737426Y-118599693D02*
X257468052Y-118330319D01*
X257468052Y-118330319D02*
X257367036Y-118296647D01*
X257367036Y-118296647D02*
X257299693Y-118296647D01*
X257299693Y-118296647D02*
X257198678Y-118330319D01*
X257198678Y-118330319D02*
X257063991Y-118465006D01*
X257063991Y-118465006D02*
X257030319Y-118566021D01*
X257030319Y-118566021D02*
X257030319Y-118633365D01*
X257030319Y-118633365D02*
X257063991Y-118734380D01*
X257063991Y-118734380D02*
X257232349Y-118902739D01*
X257232349Y-118902739D02*
X257333365Y-118936411D01*
X257333365Y-118936411D02*
X257400708Y-118936411D01*
X257400708Y-118936411D02*
X257501723Y-118902739D01*
X257501723Y-118902739D02*
X257636410Y-118768052D01*
X257636410Y-118768052D02*
X257670082Y-118667037D01*
X257670082Y-118667037D02*
X257670082Y-118599693D01*
X257670082Y-118599693D02*
X257636410Y-118498678D01*
X258377189Y-118566021D02*
X258511876Y-118431334D01*
X258511876Y-118431334D02*
X258545548Y-118330319D01*
X258545548Y-118330319D02*
X258545548Y-118262975D01*
X258545548Y-118262975D02*
X258511876Y-118094617D01*
X258511876Y-118094617D02*
X258410861Y-117926258D01*
X258410861Y-117926258D02*
X258141487Y-117656884D01*
X258141487Y-117656884D02*
X258040472Y-117623212D01*
X258040472Y-117623212D02*
X257973128Y-117623212D01*
X257973128Y-117623212D02*
X257872113Y-117656884D01*
X257872113Y-117656884D02*
X257737426Y-117791571D01*
X257737426Y-117791571D02*
X257703754Y-117892586D01*
X257703754Y-117892586D02*
X257703754Y-117959930D01*
X257703754Y-117959930D02*
X257737426Y-118060945D01*
X257737426Y-118060945D02*
X257905785Y-118229304D01*
X257905785Y-118229304D02*
X258006800Y-118262975D01*
X258006800Y-118262975D02*
X258074143Y-118262975D01*
X258074143Y-118262975D02*
X258175159Y-118229304D01*
X258175159Y-118229304D02*
X258309846Y-118094617D01*
X258309846Y-118094617D02*
X258343517Y-117993601D01*
X258343517Y-117993601D02*
X258343517Y-117926258D01*
X258343517Y-117926258D02*
X258309846Y-117825243D01*
X256299693Y-90608830D02*
X256299693Y-90676174D01*
X256299693Y-90676174D02*
X256232349Y-90810861D01*
X256232349Y-90810861D02*
X256165006Y-90878204D01*
X256165006Y-90878204D02*
X256030319Y-90945548D01*
X256030319Y-90945548D02*
X255895632Y-90945548D01*
X255895632Y-90945548D02*
X255794617Y-90911876D01*
X255794617Y-90911876D02*
X255626258Y-90810861D01*
X255626258Y-90810861D02*
X255525243Y-90709846D01*
X255525243Y-90709846D02*
X255424227Y-90541487D01*
X255424227Y-90541487D02*
X255390556Y-90440472D01*
X255390556Y-90440472D02*
X255390556Y-90305785D01*
X255390556Y-90305785D02*
X255457899Y-90171098D01*
X255457899Y-90171098D02*
X255525243Y-90103754D01*
X255525243Y-90103754D02*
X255659930Y-90036411D01*
X255659930Y-90036411D02*
X255727273Y-90036411D01*
X256703754Y-90339456D02*
X256838441Y-90204769D01*
X256838441Y-90204769D02*
X256872113Y-90103754D01*
X256872113Y-90103754D02*
X256872113Y-90036411D01*
X256872113Y-90036411D02*
X256838441Y-89868052D01*
X256838441Y-89868052D02*
X256737426Y-89699693D01*
X256737426Y-89699693D02*
X256468052Y-89430319D01*
X256468052Y-89430319D02*
X256367036Y-89396647D01*
X256367036Y-89396647D02*
X256299693Y-89396647D01*
X256299693Y-89396647D02*
X256198678Y-89430319D01*
X256198678Y-89430319D02*
X256063991Y-89565006D01*
X256063991Y-89565006D02*
X256030319Y-89666021D01*
X256030319Y-89666021D02*
X256030319Y-89733365D01*
X256030319Y-89733365D02*
X256063991Y-89834380D01*
X256063991Y-89834380D02*
X256232349Y-90002739D01*
X256232349Y-90002739D02*
X256333365Y-90036411D01*
X256333365Y-90036411D02*
X256400708Y-90036411D01*
X256400708Y-90036411D02*
X256501723Y-90002739D01*
X256501723Y-90002739D02*
X256636410Y-89868052D01*
X256636410Y-89868052D02*
X256670082Y-89767037D01*
X256670082Y-89767037D02*
X256670082Y-89699693D01*
X256670082Y-89699693D02*
X256636410Y-89598678D01*
X257040472Y-89194617D02*
X256939456Y-89228288D01*
X256939456Y-89228288D02*
X256872113Y-89228288D01*
X256872113Y-89228288D02*
X256771098Y-89194617D01*
X256771098Y-89194617D02*
X256737426Y-89160945D01*
X256737426Y-89160945D02*
X256703754Y-89059930D01*
X256703754Y-89059930D02*
X256703754Y-88992586D01*
X256703754Y-88992586D02*
X256737426Y-88891571D01*
X256737426Y-88891571D02*
X256872113Y-88756884D01*
X256872113Y-88756884D02*
X256973128Y-88723212D01*
X256973128Y-88723212D02*
X257040472Y-88723212D01*
X257040472Y-88723212D02*
X257141487Y-88756884D01*
X257141487Y-88756884D02*
X257175159Y-88790556D01*
X257175159Y-88790556D02*
X257208830Y-88891571D01*
X257208830Y-88891571D02*
X257208830Y-88958914D01*
X257208830Y-88958914D02*
X257175159Y-89059930D01*
X257175159Y-89059930D02*
X257040472Y-89194617D01*
X257040472Y-89194617D02*
X257006800Y-89295632D01*
X257006800Y-89295632D02*
X257006800Y-89362975D01*
X257006800Y-89362975D02*
X257040472Y-89463991D01*
X257040472Y-89463991D02*
X257175159Y-89598678D01*
X257175159Y-89598678D02*
X257276174Y-89632349D01*
X257276174Y-89632349D02*
X257343517Y-89632349D01*
X257343517Y-89632349D02*
X257444533Y-89598678D01*
X257444533Y-89598678D02*
X257579220Y-89463991D01*
X257579220Y-89463991D02*
X257612891Y-89362975D01*
X257612891Y-89362975D02*
X257612891Y-89295632D01*
X257612891Y-89295632D02*
X257579220Y-89194617D01*
X257579220Y-89194617D02*
X257444533Y-89059930D01*
X257444533Y-89059930D02*
X257343517Y-89026258D01*
X257343517Y-89026258D02*
X257276174Y-89026258D01*
X257276174Y-89026258D02*
X257175159Y-89059930D01*
X237991169Y-123999693D02*
X237923825Y-123999693D01*
X237923825Y-123999693D02*
X237789138Y-123932349D01*
X237789138Y-123932349D02*
X237721795Y-123865006D01*
X237721795Y-123865006D02*
X237654451Y-123730319D01*
X237654451Y-123730319D02*
X237654451Y-123595632D01*
X237654451Y-123595632D02*
X237688123Y-123494617D01*
X237688123Y-123494617D02*
X237789138Y-123326258D01*
X237789138Y-123326258D02*
X237890153Y-123225243D01*
X237890153Y-123225243D02*
X238058512Y-123124227D01*
X238058512Y-123124227D02*
X238159527Y-123090556D01*
X238159527Y-123090556D02*
X238294214Y-123090556D01*
X238294214Y-123090556D02*
X238428901Y-123157899D01*
X238428901Y-123157899D02*
X238496245Y-123225243D01*
X238496245Y-123225243D02*
X238563588Y-123359930D01*
X238563588Y-123359930D02*
X238563588Y-123427273D01*
X238260543Y-124403754D02*
X238395230Y-124538441D01*
X238395230Y-124538441D02*
X238496245Y-124572113D01*
X238496245Y-124572113D02*
X238563588Y-124572113D01*
X238563588Y-124572113D02*
X238731947Y-124538441D01*
X238731947Y-124538441D02*
X238900306Y-124437426D01*
X238900306Y-124437426D02*
X239169680Y-124168052D01*
X239169680Y-124168052D02*
X239203352Y-124067036D01*
X239203352Y-124067036D02*
X239203352Y-123999693D01*
X239203352Y-123999693D02*
X239169680Y-123898678D01*
X239169680Y-123898678D02*
X239034993Y-123763991D01*
X239034993Y-123763991D02*
X238933978Y-123730319D01*
X238933978Y-123730319D02*
X238866634Y-123730319D01*
X238866634Y-123730319D02*
X238765619Y-123763991D01*
X238765619Y-123763991D02*
X238597260Y-123932349D01*
X238597260Y-123932349D02*
X238563588Y-124033365D01*
X238563588Y-124033365D02*
X238563588Y-124100708D01*
X238563588Y-124100708D02*
X238597260Y-124201723D01*
X238597260Y-124201723D02*
X238731947Y-124336410D01*
X238731947Y-124336410D02*
X238832962Y-124370082D01*
X238832962Y-124370082D02*
X238900306Y-124370082D01*
X238900306Y-124370082D02*
X239001321Y-124336410D01*
X239742100Y-124471098D02*
X239809443Y-124538441D01*
X239809443Y-124538441D02*
X239843115Y-124639456D01*
X239843115Y-124639456D02*
X239843115Y-124706800D01*
X239843115Y-124706800D02*
X239809443Y-124807815D01*
X239809443Y-124807815D02*
X239708428Y-124976174D01*
X239708428Y-124976174D02*
X239540069Y-125144533D01*
X239540069Y-125144533D02*
X239371711Y-125245548D01*
X239371711Y-125245548D02*
X239270695Y-125279220D01*
X239270695Y-125279220D02*
X239203352Y-125279220D01*
X239203352Y-125279220D02*
X239102337Y-125245548D01*
X239102337Y-125245548D02*
X239034993Y-125178204D01*
X239034993Y-125178204D02*
X239001321Y-125077189D01*
X239001321Y-125077189D02*
X239001321Y-125009846D01*
X239001321Y-125009846D02*
X239034993Y-124908830D01*
X239034993Y-124908830D02*
X239136008Y-124740472D01*
X239136008Y-124740472D02*
X239304367Y-124572113D01*
X239304367Y-124572113D02*
X239472726Y-124471098D01*
X239472726Y-124471098D02*
X239573741Y-124437426D01*
X239573741Y-124437426D02*
X239641085Y-124437426D01*
X239641085Y-124437426D02*
X239742100Y-124471098D01*
X248099693Y-91708830D02*
X248099693Y-91776174D01*
X248099693Y-91776174D02*
X248032349Y-91910861D01*
X248032349Y-91910861D02*
X247965006Y-91978204D01*
X247965006Y-91978204D02*
X247830319Y-92045548D01*
X247830319Y-92045548D02*
X247695632Y-92045548D01*
X247695632Y-92045548D02*
X247594617Y-92011876D01*
X247594617Y-92011876D02*
X247426258Y-91910861D01*
X247426258Y-91910861D02*
X247325243Y-91809846D01*
X247325243Y-91809846D02*
X247224227Y-91641487D01*
X247224227Y-91641487D02*
X247190556Y-91540472D01*
X247190556Y-91540472D02*
X247190556Y-91405785D01*
X247190556Y-91405785D02*
X247257899Y-91271098D01*
X247257899Y-91271098D02*
X247325243Y-91203754D01*
X247325243Y-91203754D02*
X247459930Y-91136411D01*
X247459930Y-91136411D02*
X247527273Y-91136411D01*
X248167036Y-90968052D02*
X248066021Y-91001724D01*
X248066021Y-91001724D02*
X247998678Y-91001724D01*
X247998678Y-91001724D02*
X247897662Y-90968052D01*
X247897662Y-90968052D02*
X247863991Y-90934380D01*
X247863991Y-90934380D02*
X247830319Y-90833365D01*
X247830319Y-90833365D02*
X247830319Y-90766021D01*
X247830319Y-90766021D02*
X247863991Y-90665006D01*
X247863991Y-90665006D02*
X247998678Y-90530319D01*
X247998678Y-90530319D02*
X248099693Y-90496647D01*
X248099693Y-90496647D02*
X248167036Y-90496647D01*
X248167036Y-90496647D02*
X248268052Y-90530319D01*
X248268052Y-90530319D02*
X248301723Y-90563991D01*
X248301723Y-90563991D02*
X248335395Y-90665006D01*
X248335395Y-90665006D02*
X248335395Y-90732350D01*
X248335395Y-90732350D02*
X248301723Y-90833365D01*
X248301723Y-90833365D02*
X248167036Y-90968052D01*
X248167036Y-90968052D02*
X248133365Y-91069067D01*
X248133365Y-91069067D02*
X248133365Y-91136411D01*
X248133365Y-91136411D02*
X248167036Y-91237426D01*
X248167036Y-91237426D02*
X248301723Y-91372113D01*
X248301723Y-91372113D02*
X248402739Y-91405785D01*
X248402739Y-91405785D02*
X248470082Y-91405785D01*
X248470082Y-91405785D02*
X248571097Y-91372113D01*
X248571097Y-91372113D02*
X248705784Y-91237426D01*
X248705784Y-91237426D02*
X248739456Y-91136411D01*
X248739456Y-91136411D02*
X248739456Y-91069067D01*
X248739456Y-91069067D02*
X248705784Y-90968052D01*
X248705784Y-90968052D02*
X248571097Y-90833365D01*
X248571097Y-90833365D02*
X248470082Y-90799693D01*
X248470082Y-90799693D02*
X248402739Y-90799693D01*
X248402739Y-90799693D02*
X248301723Y-90833365D01*
X249177189Y-90766021D02*
X249311876Y-90631334D01*
X249311876Y-90631334D02*
X249345548Y-90530319D01*
X249345548Y-90530319D02*
X249345548Y-90462975D01*
X249345548Y-90462975D02*
X249311876Y-90294617D01*
X249311876Y-90294617D02*
X249210861Y-90126258D01*
X249210861Y-90126258D02*
X248941487Y-89856884D01*
X248941487Y-89856884D02*
X248840472Y-89823212D01*
X248840472Y-89823212D02*
X248773128Y-89823212D01*
X248773128Y-89823212D02*
X248672113Y-89856884D01*
X248672113Y-89856884D02*
X248537426Y-89991571D01*
X248537426Y-89991571D02*
X248503754Y-90092586D01*
X248503754Y-90092586D02*
X248503754Y-90159930D01*
X248503754Y-90159930D02*
X248537426Y-90260945D01*
X248537426Y-90260945D02*
X248705785Y-90429304D01*
X248705785Y-90429304D02*
X248806800Y-90462975D01*
X248806800Y-90462975D02*
X248874143Y-90462975D01*
X248874143Y-90462975D02*
X248975159Y-90429304D01*
X248975159Y-90429304D02*
X249109846Y-90294617D01*
X249109846Y-90294617D02*
X249143517Y-90193601D01*
X249143517Y-90193601D02*
X249143517Y-90126258D01*
X249143517Y-90126258D02*
X249109846Y-90025243D01*
X223291169Y-123399693D02*
X223223825Y-123399693D01*
X223223825Y-123399693D02*
X223089138Y-123332349D01*
X223089138Y-123332349D02*
X223021795Y-123265006D01*
X223021795Y-123265006D02*
X222954451Y-123130319D01*
X222954451Y-123130319D02*
X222954451Y-122995632D01*
X222954451Y-122995632D02*
X222988123Y-122894617D01*
X222988123Y-122894617D02*
X223089138Y-122726258D01*
X223089138Y-122726258D02*
X223190153Y-122625243D01*
X223190153Y-122625243D02*
X223358512Y-122524227D01*
X223358512Y-122524227D02*
X223459527Y-122490556D01*
X223459527Y-122490556D02*
X223594214Y-122490556D01*
X223594214Y-122490556D02*
X223728901Y-122557899D01*
X223728901Y-122557899D02*
X223796245Y-122625243D01*
X223796245Y-122625243D02*
X223863588Y-122759930D01*
X223863588Y-122759930D02*
X223863588Y-122827273D01*
X224031947Y-123467036D02*
X223998275Y-123366021D01*
X223998275Y-123366021D02*
X223998275Y-123298678D01*
X223998275Y-123298678D02*
X224031947Y-123197662D01*
X224031947Y-123197662D02*
X224065619Y-123163991D01*
X224065619Y-123163991D02*
X224166634Y-123130319D01*
X224166634Y-123130319D02*
X224233978Y-123130319D01*
X224233978Y-123130319D02*
X224334993Y-123163991D01*
X224334993Y-123163991D02*
X224469680Y-123298678D01*
X224469680Y-123298678D02*
X224503352Y-123399693D01*
X224503352Y-123399693D02*
X224503352Y-123467036D01*
X224503352Y-123467036D02*
X224469680Y-123568052D01*
X224469680Y-123568052D02*
X224436008Y-123601723D01*
X224436008Y-123601723D02*
X224334993Y-123635395D01*
X224334993Y-123635395D02*
X224267649Y-123635395D01*
X224267649Y-123635395D02*
X224166634Y-123601723D01*
X224166634Y-123601723D02*
X224031947Y-123467036D01*
X224031947Y-123467036D02*
X223930932Y-123433365D01*
X223930932Y-123433365D02*
X223863588Y-123433365D01*
X223863588Y-123433365D02*
X223762573Y-123467036D01*
X223762573Y-123467036D02*
X223627886Y-123601723D01*
X223627886Y-123601723D02*
X223594214Y-123702739D01*
X223594214Y-123702739D02*
X223594214Y-123770082D01*
X223594214Y-123770082D02*
X223627886Y-123871097D01*
X223627886Y-123871097D02*
X223762573Y-124005784D01*
X223762573Y-124005784D02*
X223863588Y-124039456D01*
X223863588Y-124039456D02*
X223930932Y-124039456D01*
X223930932Y-124039456D02*
X224031947Y-124005784D01*
X224031947Y-124005784D02*
X224166634Y-123871097D01*
X224166634Y-123871097D02*
X224200306Y-123770082D01*
X224200306Y-123770082D02*
X224200306Y-123702739D01*
X224200306Y-123702739D02*
X224166634Y-123601723D01*
X224840069Y-123669067D02*
X225277802Y-124106800D01*
X225277802Y-124106800D02*
X224772726Y-124140472D01*
X224772726Y-124140472D02*
X224873741Y-124241487D01*
X224873741Y-124241487D02*
X224907413Y-124342502D01*
X224907413Y-124342502D02*
X224907413Y-124409846D01*
X224907413Y-124409846D02*
X224873741Y-124510861D01*
X224873741Y-124510861D02*
X224705382Y-124679220D01*
X224705382Y-124679220D02*
X224604367Y-124712891D01*
X224604367Y-124712891D02*
X224537024Y-124712891D01*
X224537024Y-124712891D02*
X224436008Y-124679220D01*
X224436008Y-124679220D02*
X224233978Y-124477189D01*
X224233978Y-124477189D02*
X224200306Y-124376174D01*
X224200306Y-124376174D02*
X224200306Y-124308830D01*
X227099693Y-90808830D02*
X227099693Y-90876174D01*
X227099693Y-90876174D02*
X227032349Y-91010861D01*
X227032349Y-91010861D02*
X226965006Y-91078204D01*
X226965006Y-91078204D02*
X226830319Y-91145548D01*
X226830319Y-91145548D02*
X226695632Y-91145548D01*
X226695632Y-91145548D02*
X226594617Y-91111876D01*
X226594617Y-91111876D02*
X226426258Y-91010861D01*
X226426258Y-91010861D02*
X226325243Y-90909846D01*
X226325243Y-90909846D02*
X226224227Y-90741487D01*
X226224227Y-90741487D02*
X226190556Y-90640472D01*
X226190556Y-90640472D02*
X226190556Y-90505785D01*
X226190556Y-90505785D02*
X226257899Y-90371098D01*
X226257899Y-90371098D02*
X226325243Y-90303754D01*
X226325243Y-90303754D02*
X226459930Y-90236411D01*
X226459930Y-90236411D02*
X226527273Y-90236411D01*
X227167036Y-90068052D02*
X227066021Y-90101724D01*
X227066021Y-90101724D02*
X226998678Y-90101724D01*
X226998678Y-90101724D02*
X226897662Y-90068052D01*
X226897662Y-90068052D02*
X226863991Y-90034380D01*
X226863991Y-90034380D02*
X226830319Y-89933365D01*
X226830319Y-89933365D02*
X226830319Y-89866021D01*
X226830319Y-89866021D02*
X226863991Y-89765006D01*
X226863991Y-89765006D02*
X226998678Y-89630319D01*
X226998678Y-89630319D02*
X227099693Y-89596647D01*
X227099693Y-89596647D02*
X227167036Y-89596647D01*
X227167036Y-89596647D02*
X227268052Y-89630319D01*
X227268052Y-89630319D02*
X227301723Y-89663991D01*
X227301723Y-89663991D02*
X227335395Y-89765006D01*
X227335395Y-89765006D02*
X227335395Y-89832350D01*
X227335395Y-89832350D02*
X227301723Y-89933365D01*
X227301723Y-89933365D02*
X227167036Y-90068052D01*
X227167036Y-90068052D02*
X227133365Y-90169067D01*
X227133365Y-90169067D02*
X227133365Y-90236411D01*
X227133365Y-90236411D02*
X227167036Y-90337426D01*
X227167036Y-90337426D02*
X227301723Y-90472113D01*
X227301723Y-90472113D02*
X227402739Y-90505785D01*
X227402739Y-90505785D02*
X227470082Y-90505785D01*
X227470082Y-90505785D02*
X227571097Y-90472113D01*
X227571097Y-90472113D02*
X227705784Y-90337426D01*
X227705784Y-90337426D02*
X227739456Y-90236411D01*
X227739456Y-90236411D02*
X227739456Y-90169067D01*
X227739456Y-90169067D02*
X227705784Y-90068052D01*
X227705784Y-90068052D02*
X227571097Y-89933365D01*
X227571097Y-89933365D02*
X227470082Y-89899693D01*
X227470082Y-89899693D02*
X227402739Y-89899693D01*
X227402739Y-89899693D02*
X227301723Y-89933365D01*
X227470082Y-89293601D02*
X227470082Y-89226258D01*
X227470082Y-89226258D02*
X227503754Y-89125243D01*
X227503754Y-89125243D02*
X227672113Y-88956884D01*
X227672113Y-88956884D02*
X227773128Y-88923212D01*
X227773128Y-88923212D02*
X227840472Y-88923212D01*
X227840472Y-88923212D02*
X227941487Y-88956884D01*
X227941487Y-88956884D02*
X228008830Y-89024227D01*
X228008830Y-89024227D02*
X228076174Y-89158914D01*
X228076174Y-89158914D02*
X228076174Y-89967036D01*
X228076174Y-89967036D02*
X228513907Y-89529304D01*
X208791169Y-123099693D02*
X208723825Y-123099693D01*
X208723825Y-123099693D02*
X208589138Y-123032349D01*
X208589138Y-123032349D02*
X208521795Y-122965006D01*
X208521795Y-122965006D02*
X208454451Y-122830319D01*
X208454451Y-122830319D02*
X208454451Y-122695632D01*
X208454451Y-122695632D02*
X208488123Y-122594617D01*
X208488123Y-122594617D02*
X208589138Y-122426258D01*
X208589138Y-122426258D02*
X208690153Y-122325243D01*
X208690153Y-122325243D02*
X208858512Y-122224227D01*
X208858512Y-122224227D02*
X208959527Y-122190556D01*
X208959527Y-122190556D02*
X209094214Y-122190556D01*
X209094214Y-122190556D02*
X209228901Y-122257899D01*
X209228901Y-122257899D02*
X209296245Y-122325243D01*
X209296245Y-122325243D02*
X209363588Y-122459930D01*
X209363588Y-122459930D02*
X209363588Y-122527273D01*
X209666634Y-122695632D02*
X210138039Y-123167036D01*
X210138039Y-123167036D02*
X209127886Y-123571097D01*
X210710459Y-123739456D02*
X210575772Y-123604769D01*
X210575772Y-123604769D02*
X210474756Y-123571098D01*
X210474756Y-123571098D02*
X210407413Y-123571098D01*
X210407413Y-123571098D02*
X210239054Y-123604769D01*
X210239054Y-123604769D02*
X210070695Y-123705785D01*
X210070695Y-123705785D02*
X209801321Y-123975159D01*
X209801321Y-123975159D02*
X209767650Y-124076174D01*
X209767650Y-124076174D02*
X209767650Y-124143517D01*
X209767650Y-124143517D02*
X209801321Y-124244533D01*
X209801321Y-124244533D02*
X209936008Y-124379220D01*
X209936008Y-124379220D02*
X210037024Y-124412891D01*
X210037024Y-124412891D02*
X210104367Y-124412891D01*
X210104367Y-124412891D02*
X210205382Y-124379220D01*
X210205382Y-124379220D02*
X210373741Y-124210861D01*
X210373741Y-124210861D02*
X210407413Y-124109846D01*
X210407413Y-124109846D02*
X210407413Y-124042502D01*
X210407413Y-124042502D02*
X210373741Y-123941487D01*
X210373741Y-123941487D02*
X210239054Y-123806800D01*
X210239054Y-123806800D02*
X210138039Y-123773128D01*
X210138039Y-123773128D02*
X210070695Y-123773128D01*
X210070695Y-123773128D02*
X209969680Y-123806800D01*
X205699693Y-94208830D02*
X205699693Y-94276174D01*
X205699693Y-94276174D02*
X205632349Y-94410861D01*
X205632349Y-94410861D02*
X205565006Y-94478204D01*
X205565006Y-94478204D02*
X205430319Y-94545548D01*
X205430319Y-94545548D02*
X205295632Y-94545548D01*
X205295632Y-94545548D02*
X205194617Y-94511876D01*
X205194617Y-94511876D02*
X205026258Y-94410861D01*
X205026258Y-94410861D02*
X204925243Y-94309846D01*
X204925243Y-94309846D02*
X204824227Y-94141487D01*
X204824227Y-94141487D02*
X204790556Y-94040472D01*
X204790556Y-94040472D02*
X204790556Y-93905785D01*
X204790556Y-93905785D02*
X204857899Y-93771098D01*
X204857899Y-93771098D02*
X204925243Y-93703754D01*
X204925243Y-93703754D02*
X205059930Y-93636411D01*
X205059930Y-93636411D02*
X205127273Y-93636411D01*
X205295632Y-93333365D02*
X205767036Y-92861960D01*
X205767036Y-92861960D02*
X206171097Y-93872113D01*
X206373128Y-92255869D02*
X206036410Y-92592586D01*
X206036410Y-92592586D02*
X206339456Y-92962975D01*
X206339456Y-92962975D02*
X206339456Y-92895632D01*
X206339456Y-92895632D02*
X206373128Y-92794617D01*
X206373128Y-92794617D02*
X206541487Y-92626258D01*
X206541487Y-92626258D02*
X206642502Y-92592586D01*
X206642502Y-92592586D02*
X206709846Y-92592586D01*
X206709846Y-92592586D02*
X206810861Y-92626258D01*
X206810861Y-92626258D02*
X206979220Y-92794617D01*
X206979220Y-92794617D02*
X207012891Y-92895632D01*
X207012891Y-92895632D02*
X207012891Y-92962975D01*
X207012891Y-92962975D02*
X206979220Y-93063991D01*
X206979220Y-93063991D02*
X206810861Y-93232349D01*
X206810861Y-93232349D02*
X206709846Y-93266021D01*
X206709846Y-93266021D02*
X206642502Y-93266021D01*
X194691169Y-123599693D02*
X194623825Y-123599693D01*
X194623825Y-123599693D02*
X194489138Y-123532349D01*
X194489138Y-123532349D02*
X194421795Y-123465006D01*
X194421795Y-123465006D02*
X194354451Y-123330319D01*
X194354451Y-123330319D02*
X194354451Y-123195632D01*
X194354451Y-123195632D02*
X194388123Y-123094617D01*
X194388123Y-123094617D02*
X194489138Y-122926258D01*
X194489138Y-122926258D02*
X194590153Y-122825243D01*
X194590153Y-122825243D02*
X194758512Y-122724227D01*
X194758512Y-122724227D02*
X194859527Y-122690556D01*
X194859527Y-122690556D02*
X194994214Y-122690556D01*
X194994214Y-122690556D02*
X195128901Y-122757899D01*
X195128901Y-122757899D02*
X195196245Y-122825243D01*
X195196245Y-122825243D02*
X195263588Y-122959930D01*
X195263588Y-122959930D02*
X195263588Y-123027273D01*
X195937023Y-123566021D02*
X195802336Y-123431334D01*
X195802336Y-123431334D02*
X195701321Y-123397662D01*
X195701321Y-123397662D02*
X195633978Y-123397662D01*
X195633978Y-123397662D02*
X195465619Y-123431334D01*
X195465619Y-123431334D02*
X195297260Y-123532349D01*
X195297260Y-123532349D02*
X195027886Y-123801723D01*
X195027886Y-123801723D02*
X194994214Y-123902739D01*
X194994214Y-123902739D02*
X194994214Y-123970082D01*
X194994214Y-123970082D02*
X195027886Y-124071097D01*
X195027886Y-124071097D02*
X195162573Y-124205784D01*
X195162573Y-124205784D02*
X195263588Y-124239456D01*
X195263588Y-124239456D02*
X195330932Y-124239456D01*
X195330932Y-124239456D02*
X195431947Y-124205784D01*
X195431947Y-124205784D02*
X195600306Y-124037426D01*
X195600306Y-124037426D02*
X195633978Y-123936410D01*
X195633978Y-123936410D02*
X195633978Y-123869067D01*
X195633978Y-123869067D02*
X195600306Y-123768052D01*
X195600306Y-123768052D02*
X195465619Y-123633365D01*
X195465619Y-123633365D02*
X195364604Y-123599693D01*
X195364604Y-123599693D02*
X195297260Y-123599693D01*
X195297260Y-123599693D02*
X195196245Y-123633365D01*
X196644130Y-124273128D02*
X196307413Y-123936410D01*
X196307413Y-123936410D02*
X195937024Y-124239456D01*
X195937024Y-124239456D02*
X196004367Y-124239456D01*
X196004367Y-124239456D02*
X196105382Y-124273128D01*
X196105382Y-124273128D02*
X196273741Y-124441487D01*
X196273741Y-124441487D02*
X196307413Y-124542502D01*
X196307413Y-124542502D02*
X196307413Y-124609846D01*
X196307413Y-124609846D02*
X196273741Y-124710861D01*
X196273741Y-124710861D02*
X196105382Y-124879220D01*
X196105382Y-124879220D02*
X196004367Y-124912891D01*
X196004367Y-124912891D02*
X195937024Y-124912891D01*
X195937024Y-124912891D02*
X195836008Y-124879220D01*
X195836008Y-124879220D02*
X195667650Y-124710861D01*
X195667650Y-124710861D02*
X195633978Y-124609846D01*
X195633978Y-124609846D02*
X195633978Y-124542502D01*
X213499693Y-90808830D02*
X213499693Y-90876174D01*
X213499693Y-90876174D02*
X213432349Y-91010861D01*
X213432349Y-91010861D02*
X213365006Y-91078204D01*
X213365006Y-91078204D02*
X213230319Y-91145548D01*
X213230319Y-91145548D02*
X213095632Y-91145548D01*
X213095632Y-91145548D02*
X212994617Y-91111876D01*
X212994617Y-91111876D02*
X212826258Y-91010861D01*
X212826258Y-91010861D02*
X212725243Y-90909846D01*
X212725243Y-90909846D02*
X212624227Y-90741487D01*
X212624227Y-90741487D02*
X212590556Y-90640472D01*
X212590556Y-90640472D02*
X212590556Y-90505785D01*
X212590556Y-90505785D02*
X212657899Y-90371098D01*
X212657899Y-90371098D02*
X212725243Y-90303754D01*
X212725243Y-90303754D02*
X212859930Y-90236411D01*
X212859930Y-90236411D02*
X212927273Y-90236411D01*
X213466021Y-89562976D02*
X213331334Y-89697663D01*
X213331334Y-89697663D02*
X213297662Y-89798678D01*
X213297662Y-89798678D02*
X213297662Y-89866021D01*
X213297662Y-89866021D02*
X213331334Y-90034380D01*
X213331334Y-90034380D02*
X213432349Y-90202739D01*
X213432349Y-90202739D02*
X213701723Y-90472113D01*
X213701723Y-90472113D02*
X213802739Y-90505785D01*
X213802739Y-90505785D02*
X213870082Y-90505785D01*
X213870082Y-90505785D02*
X213971097Y-90472113D01*
X213971097Y-90472113D02*
X214105784Y-90337426D01*
X214105784Y-90337426D02*
X214139456Y-90236411D01*
X214139456Y-90236411D02*
X214139456Y-90169067D01*
X214139456Y-90169067D02*
X214105784Y-90068052D01*
X214105784Y-90068052D02*
X213937426Y-89899693D01*
X213937426Y-89899693D02*
X213836410Y-89866021D01*
X213836410Y-89866021D02*
X213769067Y-89866021D01*
X213769067Y-89866021D02*
X213668052Y-89899693D01*
X213668052Y-89899693D02*
X213533365Y-90034380D01*
X213533365Y-90034380D02*
X213499693Y-90135395D01*
X213499693Y-90135395D02*
X213499693Y-90202739D01*
X213499693Y-90202739D02*
X213533365Y-90303754D01*
X214375159Y-89125243D02*
X214846563Y-89596647D01*
X213937426Y-89024227D02*
X214274143Y-89697662D01*
X214274143Y-89697662D02*
X214711876Y-89259930D01*
X262199693Y-71708830D02*
X262199693Y-71776174D01*
X262199693Y-71776174D02*
X262132349Y-71910861D01*
X262132349Y-71910861D02*
X262065006Y-71978204D01*
X262065006Y-71978204D02*
X261930319Y-72045548D01*
X261930319Y-72045548D02*
X261795632Y-72045548D01*
X261795632Y-72045548D02*
X261694617Y-72011876D01*
X261694617Y-72011876D02*
X261526258Y-71910861D01*
X261526258Y-71910861D02*
X261425243Y-71809846D01*
X261425243Y-71809846D02*
X261324227Y-71641487D01*
X261324227Y-71641487D02*
X261290556Y-71540472D01*
X261290556Y-71540472D02*
X261290556Y-71405785D01*
X261290556Y-71405785D02*
X261357899Y-71271098D01*
X261357899Y-71271098D02*
X261425243Y-71203754D01*
X261425243Y-71203754D02*
X261559930Y-71136411D01*
X261559930Y-71136411D02*
X261627273Y-71136411D01*
X262199693Y-70429304D02*
X261862975Y-70766021D01*
X261862975Y-70766021D02*
X262166021Y-71136411D01*
X262166021Y-71136411D02*
X262166021Y-71069067D01*
X262166021Y-71069067D02*
X262199693Y-70968052D01*
X262199693Y-70968052D02*
X262368052Y-70799693D01*
X262368052Y-70799693D02*
X262469067Y-70766021D01*
X262469067Y-70766021D02*
X262536410Y-70766021D01*
X262536410Y-70766021D02*
X262637426Y-70799693D01*
X262637426Y-70799693D02*
X262805784Y-70968052D01*
X262805784Y-70968052D02*
X262839456Y-71069067D01*
X262839456Y-71069067D02*
X262839456Y-71136411D01*
X262839456Y-71136411D02*
X262805784Y-71237426D01*
X262805784Y-71237426D02*
X262637426Y-71405785D01*
X262637426Y-71405785D02*
X262536410Y-71439456D01*
X262536410Y-71439456D02*
X262469067Y-71439456D01*
X262940472Y-70294617D02*
X262839456Y-70328288D01*
X262839456Y-70328288D02*
X262772113Y-70328288D01*
X262772113Y-70328288D02*
X262671098Y-70294617D01*
X262671098Y-70294617D02*
X262637426Y-70260945D01*
X262637426Y-70260945D02*
X262603754Y-70159930D01*
X262603754Y-70159930D02*
X262603754Y-70092586D01*
X262603754Y-70092586D02*
X262637426Y-69991571D01*
X262637426Y-69991571D02*
X262772113Y-69856884D01*
X262772113Y-69856884D02*
X262873128Y-69823212D01*
X262873128Y-69823212D02*
X262940472Y-69823212D01*
X262940472Y-69823212D02*
X263041487Y-69856884D01*
X263041487Y-69856884D02*
X263075159Y-69890556D01*
X263075159Y-69890556D02*
X263108830Y-69991571D01*
X263108830Y-69991571D02*
X263108830Y-70058914D01*
X263108830Y-70058914D02*
X263075159Y-70159930D01*
X263075159Y-70159930D02*
X262940472Y-70294617D01*
X262940472Y-70294617D02*
X262906800Y-70395632D01*
X262906800Y-70395632D02*
X262906800Y-70462975D01*
X262906800Y-70462975D02*
X262940472Y-70563991D01*
X262940472Y-70563991D02*
X263075159Y-70698678D01*
X263075159Y-70698678D02*
X263176174Y-70732349D01*
X263176174Y-70732349D02*
X263243517Y-70732349D01*
X263243517Y-70732349D02*
X263344533Y-70698678D01*
X263344533Y-70698678D02*
X263479220Y-70563991D01*
X263479220Y-70563991D02*
X263512891Y-70462975D01*
X263512891Y-70462975D02*
X263512891Y-70395632D01*
X263512891Y-70395632D02*
X263479220Y-70294617D01*
X263479220Y-70294617D02*
X263344533Y-70159930D01*
X263344533Y-70159930D02*
X263243517Y-70126258D01*
X263243517Y-70126258D02*
X263176174Y-70126258D01*
X263176174Y-70126258D02*
X263075159Y-70159930D01*
X250502595Y-44586930D02*
X250454976Y-44634550D01*
X250454976Y-44634550D02*
X250312119Y-44682169D01*
X250312119Y-44682169D02*
X250216881Y-44682169D01*
X250216881Y-44682169D02*
X250074024Y-44634550D01*
X250074024Y-44634550D02*
X249978786Y-44539311D01*
X249978786Y-44539311D02*
X249931167Y-44444073D01*
X249931167Y-44444073D02*
X249883548Y-44253597D01*
X249883548Y-44253597D02*
X249883548Y-44110740D01*
X249883548Y-44110740D02*
X249931167Y-43920264D01*
X249931167Y-43920264D02*
X249978786Y-43825026D01*
X249978786Y-43825026D02*
X250074024Y-43729788D01*
X250074024Y-43729788D02*
X250216881Y-43682169D01*
X250216881Y-43682169D02*
X250312119Y-43682169D01*
X250312119Y-43682169D02*
X250454976Y-43729788D01*
X250454976Y-43729788D02*
X250502595Y-43777407D01*
X251407357Y-43682169D02*
X250931167Y-43682169D01*
X250931167Y-43682169D02*
X250883548Y-44158359D01*
X250883548Y-44158359D02*
X250931167Y-44110740D01*
X250931167Y-44110740D02*
X251026405Y-44063121D01*
X251026405Y-44063121D02*
X251264500Y-44063121D01*
X251264500Y-44063121D02*
X251359738Y-44110740D01*
X251359738Y-44110740D02*
X251407357Y-44158359D01*
X251407357Y-44158359D02*
X251454976Y-44253597D01*
X251454976Y-44253597D02*
X251454976Y-44491692D01*
X251454976Y-44491692D02*
X251407357Y-44586930D01*
X251407357Y-44586930D02*
X251359738Y-44634550D01*
X251359738Y-44634550D02*
X251264500Y-44682169D01*
X251264500Y-44682169D02*
X251026405Y-44682169D01*
X251026405Y-44682169D02*
X250931167Y-44634550D01*
X250931167Y-44634550D02*
X250883548Y-44586930D01*
X251788310Y-43682169D02*
X252454976Y-43682169D01*
X252454976Y-43682169D02*
X252026405Y-44682169D01*
X243691169Y-74299693D02*
X243623825Y-74299693D01*
X243623825Y-74299693D02*
X243489138Y-74232349D01*
X243489138Y-74232349D02*
X243421795Y-74165006D01*
X243421795Y-74165006D02*
X243354451Y-74030319D01*
X243354451Y-74030319D02*
X243354451Y-73895632D01*
X243354451Y-73895632D02*
X243388123Y-73794617D01*
X243388123Y-73794617D02*
X243489138Y-73626258D01*
X243489138Y-73626258D02*
X243590153Y-73525243D01*
X243590153Y-73525243D02*
X243758512Y-73424227D01*
X243758512Y-73424227D02*
X243859527Y-73390556D01*
X243859527Y-73390556D02*
X243994214Y-73390556D01*
X243994214Y-73390556D02*
X244128901Y-73457899D01*
X244128901Y-73457899D02*
X244196245Y-73525243D01*
X244196245Y-73525243D02*
X244263588Y-73659930D01*
X244263588Y-73659930D02*
X244263588Y-73727273D01*
X244701321Y-74501723D02*
X244229917Y-74973128D01*
X244802336Y-74063991D02*
X244128901Y-74400708D01*
X244128901Y-74400708D02*
X244566634Y-74838441D01*
X244633978Y-75377189D02*
X244768665Y-75511876D01*
X244768665Y-75511876D02*
X244869680Y-75545548D01*
X244869680Y-75545548D02*
X244937024Y-75545548D01*
X244937024Y-75545548D02*
X245105382Y-75511876D01*
X245105382Y-75511876D02*
X245273741Y-75410861D01*
X245273741Y-75410861D02*
X245543115Y-75141487D01*
X245543115Y-75141487D02*
X245576787Y-75040472D01*
X245576787Y-75040472D02*
X245576787Y-74973128D01*
X245576787Y-74973128D02*
X245543115Y-74872113D01*
X245543115Y-74872113D02*
X245408428Y-74737426D01*
X245408428Y-74737426D02*
X245307413Y-74703754D01*
X245307413Y-74703754D02*
X245240069Y-74703754D01*
X245240069Y-74703754D02*
X245139054Y-74737426D01*
X245139054Y-74737426D02*
X244970695Y-74905785D01*
X244970695Y-74905785D02*
X244937024Y-75006800D01*
X244937024Y-75006800D02*
X244937024Y-75074143D01*
X244937024Y-75074143D02*
X244970695Y-75175159D01*
X244970695Y-75175159D02*
X245105382Y-75309846D01*
X245105382Y-75309846D02*
X245206398Y-75343517D01*
X245206398Y-75343517D02*
X245273741Y-75343517D01*
X245273741Y-75343517D02*
X245374756Y-75309846D01*
X236110595Y-44155657D02*
X236062976Y-44203277D01*
X236062976Y-44203277D02*
X235920119Y-44250896D01*
X235920119Y-44250896D02*
X235824881Y-44250896D01*
X235824881Y-44250896D02*
X235682024Y-44203277D01*
X235682024Y-44203277D02*
X235586786Y-44108038D01*
X235586786Y-44108038D02*
X235539167Y-44012800D01*
X235539167Y-44012800D02*
X235491548Y-43822324D01*
X235491548Y-43822324D02*
X235491548Y-43679467D01*
X235491548Y-43679467D02*
X235539167Y-43488991D01*
X235539167Y-43488991D02*
X235586786Y-43393753D01*
X235586786Y-43393753D02*
X235682024Y-43298515D01*
X235682024Y-43298515D02*
X235824881Y-43250896D01*
X235824881Y-43250896D02*
X235920119Y-43250896D01*
X235920119Y-43250896D02*
X236062976Y-43298515D01*
X236062976Y-43298515D02*
X236110595Y-43346134D01*
X236967738Y-43584229D02*
X236967738Y-44250896D01*
X236729643Y-43203277D02*
X236491548Y-43917562D01*
X236491548Y-43917562D02*
X237110595Y-43917562D01*
X237634405Y-43679467D02*
X237539167Y-43631848D01*
X237539167Y-43631848D02*
X237491548Y-43584229D01*
X237491548Y-43584229D02*
X237443929Y-43488991D01*
X237443929Y-43488991D02*
X237443929Y-43441372D01*
X237443929Y-43441372D02*
X237491548Y-43346134D01*
X237491548Y-43346134D02*
X237539167Y-43298515D01*
X237539167Y-43298515D02*
X237634405Y-43250896D01*
X237634405Y-43250896D02*
X237824881Y-43250896D01*
X237824881Y-43250896D02*
X237920119Y-43298515D01*
X237920119Y-43298515D02*
X237967738Y-43346134D01*
X237967738Y-43346134D02*
X238015357Y-43441372D01*
X238015357Y-43441372D02*
X238015357Y-43488991D01*
X238015357Y-43488991D02*
X237967738Y-43584229D01*
X237967738Y-43584229D02*
X237920119Y-43631848D01*
X237920119Y-43631848D02*
X237824881Y-43679467D01*
X237824881Y-43679467D02*
X237634405Y-43679467D01*
X237634405Y-43679467D02*
X237539167Y-43727086D01*
X237539167Y-43727086D02*
X237491548Y-43774705D01*
X237491548Y-43774705D02*
X237443929Y-43869943D01*
X237443929Y-43869943D02*
X237443929Y-44060419D01*
X237443929Y-44060419D02*
X237491548Y-44155657D01*
X237491548Y-44155657D02*
X237539167Y-44203277D01*
X237539167Y-44203277D02*
X237634405Y-44250896D01*
X237634405Y-44250896D02*
X237824881Y-44250896D01*
X237824881Y-44250896D02*
X237920119Y-44203277D01*
X237920119Y-44203277D02*
X237967738Y-44155657D01*
X237967738Y-44155657D02*
X238015357Y-44060419D01*
X238015357Y-44060419D02*
X238015357Y-43869943D01*
X238015357Y-43869943D02*
X237967738Y-43774705D01*
X237967738Y-43774705D02*
X237920119Y-43727086D01*
X237920119Y-43727086D02*
X237824881Y-43679467D01*
X229591169Y-74099693D02*
X229523825Y-74099693D01*
X229523825Y-74099693D02*
X229389138Y-74032349D01*
X229389138Y-74032349D02*
X229321795Y-73965006D01*
X229321795Y-73965006D02*
X229254451Y-73830319D01*
X229254451Y-73830319D02*
X229254451Y-73695632D01*
X229254451Y-73695632D02*
X229288123Y-73594617D01*
X229288123Y-73594617D02*
X229389138Y-73426258D01*
X229389138Y-73426258D02*
X229490153Y-73325243D01*
X229490153Y-73325243D02*
X229658512Y-73224227D01*
X229658512Y-73224227D02*
X229759527Y-73190556D01*
X229759527Y-73190556D02*
X229894214Y-73190556D01*
X229894214Y-73190556D02*
X230028901Y-73257899D01*
X230028901Y-73257899D02*
X230096245Y-73325243D01*
X230096245Y-73325243D02*
X230163588Y-73459930D01*
X230163588Y-73459930D02*
X230163588Y-73527273D01*
X230466634Y-73695632D02*
X230904367Y-74133365D01*
X230904367Y-74133365D02*
X230399291Y-74167036D01*
X230399291Y-74167036D02*
X230500306Y-74268052D01*
X230500306Y-74268052D02*
X230533978Y-74369067D01*
X230533978Y-74369067D02*
X230533978Y-74436410D01*
X230533978Y-74436410D02*
X230500306Y-74537426D01*
X230500306Y-74537426D02*
X230331947Y-74705784D01*
X230331947Y-74705784D02*
X230230932Y-74739456D01*
X230230932Y-74739456D02*
X230163588Y-74739456D01*
X230163588Y-74739456D02*
X230062573Y-74705784D01*
X230062573Y-74705784D02*
X229860543Y-74503754D01*
X229860543Y-74503754D02*
X229826871Y-74402739D01*
X229826871Y-74402739D02*
X229826871Y-74335395D01*
X231005382Y-74840472D02*
X230971711Y-74739456D01*
X230971711Y-74739456D02*
X230971711Y-74672113D01*
X230971711Y-74672113D02*
X231005382Y-74571098D01*
X231005382Y-74571098D02*
X231039054Y-74537426D01*
X231039054Y-74537426D02*
X231140069Y-74503754D01*
X231140069Y-74503754D02*
X231207413Y-74503754D01*
X231207413Y-74503754D02*
X231308428Y-74537426D01*
X231308428Y-74537426D02*
X231443115Y-74672113D01*
X231443115Y-74672113D02*
X231476787Y-74773128D01*
X231476787Y-74773128D02*
X231476787Y-74840472D01*
X231476787Y-74840472D02*
X231443115Y-74941487D01*
X231443115Y-74941487D02*
X231409443Y-74975159D01*
X231409443Y-74975159D02*
X231308428Y-75008830D01*
X231308428Y-75008830D02*
X231241085Y-75008830D01*
X231241085Y-75008830D02*
X231140069Y-74975159D01*
X231140069Y-74975159D02*
X231005382Y-74840472D01*
X231005382Y-74840472D02*
X230904367Y-74806800D01*
X230904367Y-74806800D02*
X230837024Y-74806800D01*
X230837024Y-74806800D02*
X230736008Y-74840472D01*
X230736008Y-74840472D02*
X230601321Y-74975159D01*
X230601321Y-74975159D02*
X230567650Y-75076174D01*
X230567650Y-75076174D02*
X230567650Y-75143517D01*
X230567650Y-75143517D02*
X230601321Y-75244533D01*
X230601321Y-75244533D02*
X230736008Y-75379220D01*
X230736008Y-75379220D02*
X230837024Y-75412891D01*
X230837024Y-75412891D02*
X230904367Y-75412891D01*
X230904367Y-75412891D02*
X231005382Y-75379220D01*
X231005382Y-75379220D02*
X231140069Y-75244533D01*
X231140069Y-75244533D02*
X231173741Y-75143517D01*
X231173741Y-75143517D02*
X231173741Y-75076174D01*
X231173741Y-75076174D02*
X231140069Y-74975159D01*
X222198233Y-44755657D02*
X222150614Y-44803277D01*
X222150614Y-44803277D02*
X222007757Y-44850896D01*
X222007757Y-44850896D02*
X221912519Y-44850896D01*
X221912519Y-44850896D02*
X221769662Y-44803277D01*
X221769662Y-44803277D02*
X221674424Y-44708038D01*
X221674424Y-44708038D02*
X221626805Y-44612800D01*
X221626805Y-44612800D02*
X221579186Y-44422324D01*
X221579186Y-44422324D02*
X221579186Y-44279467D01*
X221579186Y-44279467D02*
X221626805Y-44088991D01*
X221626805Y-44088991D02*
X221674424Y-43993753D01*
X221674424Y-43993753D02*
X221769662Y-43898515D01*
X221769662Y-43898515D02*
X221912519Y-43850896D01*
X221912519Y-43850896D02*
X222007757Y-43850896D01*
X222007757Y-43850896D02*
X222150614Y-43898515D01*
X222150614Y-43898515D02*
X222198233Y-43946134D01*
X222531567Y-43850896D02*
X223150614Y-43850896D01*
X223150614Y-43850896D02*
X222817281Y-44231848D01*
X222817281Y-44231848D02*
X222960138Y-44231848D01*
X222960138Y-44231848D02*
X223055376Y-44279467D01*
X223055376Y-44279467D02*
X223102995Y-44327086D01*
X223102995Y-44327086D02*
X223150614Y-44422324D01*
X223150614Y-44422324D02*
X223150614Y-44660419D01*
X223150614Y-44660419D02*
X223102995Y-44755657D01*
X223102995Y-44755657D02*
X223055376Y-44803277D01*
X223055376Y-44803277D02*
X222960138Y-44850896D01*
X222960138Y-44850896D02*
X222674424Y-44850896D01*
X222674424Y-44850896D02*
X222579186Y-44803277D01*
X222579186Y-44803277D02*
X222531567Y-44755657D01*
X223483948Y-43850896D02*
X224150614Y-43850896D01*
X224150614Y-43850896D02*
X223722043Y-44850896D01*
X215091169Y-74999693D02*
X215023825Y-74999693D01*
X215023825Y-74999693D02*
X214889138Y-74932349D01*
X214889138Y-74932349D02*
X214821795Y-74865006D01*
X214821795Y-74865006D02*
X214754451Y-74730319D01*
X214754451Y-74730319D02*
X214754451Y-74595632D01*
X214754451Y-74595632D02*
X214788123Y-74494617D01*
X214788123Y-74494617D02*
X214889138Y-74326258D01*
X214889138Y-74326258D02*
X214990153Y-74225243D01*
X214990153Y-74225243D02*
X215158512Y-74124227D01*
X215158512Y-74124227D02*
X215259527Y-74090556D01*
X215259527Y-74090556D02*
X215394214Y-74090556D01*
X215394214Y-74090556D02*
X215528901Y-74157899D01*
X215528901Y-74157899D02*
X215596245Y-74225243D01*
X215596245Y-74225243D02*
X215663588Y-74359930D01*
X215663588Y-74359930D02*
X215663588Y-74427273D01*
X215932962Y-74696647D02*
X216000306Y-74696647D01*
X216000306Y-74696647D02*
X216101321Y-74730319D01*
X216101321Y-74730319D02*
X216269680Y-74898678D01*
X216269680Y-74898678D02*
X216303352Y-74999693D01*
X216303352Y-74999693D02*
X216303352Y-75067036D01*
X216303352Y-75067036D02*
X216269680Y-75168052D01*
X216269680Y-75168052D02*
X216202336Y-75235395D01*
X216202336Y-75235395D02*
X216067649Y-75302739D01*
X216067649Y-75302739D02*
X215259527Y-75302739D01*
X215259527Y-75302739D02*
X215697260Y-75740471D01*
X217010459Y-75639456D02*
X216875772Y-75504769D01*
X216875772Y-75504769D02*
X216774756Y-75471098D01*
X216774756Y-75471098D02*
X216707413Y-75471098D01*
X216707413Y-75471098D02*
X216539054Y-75504769D01*
X216539054Y-75504769D02*
X216370695Y-75605785D01*
X216370695Y-75605785D02*
X216101321Y-75875159D01*
X216101321Y-75875159D02*
X216067650Y-75976174D01*
X216067650Y-75976174D02*
X216067650Y-76043517D01*
X216067650Y-76043517D02*
X216101321Y-76144533D01*
X216101321Y-76144533D02*
X216236008Y-76279220D01*
X216236008Y-76279220D02*
X216337024Y-76312891D01*
X216337024Y-76312891D02*
X216404367Y-76312891D01*
X216404367Y-76312891D02*
X216505382Y-76279220D01*
X216505382Y-76279220D02*
X216673741Y-76110861D01*
X216673741Y-76110861D02*
X216707413Y-76009846D01*
X216707413Y-76009846D02*
X216707413Y-75942502D01*
X216707413Y-75942502D02*
X216673741Y-75841487D01*
X216673741Y-75841487D02*
X216539054Y-75706800D01*
X216539054Y-75706800D02*
X216438039Y-75673128D01*
X216438039Y-75673128D02*
X216370695Y-75673128D01*
X216370695Y-75673128D02*
X216269680Y-75706800D01*
X207574233Y-44655657D02*
X207526614Y-44703277D01*
X207526614Y-44703277D02*
X207383757Y-44750896D01*
X207383757Y-44750896D02*
X207288519Y-44750896D01*
X207288519Y-44750896D02*
X207145662Y-44703277D01*
X207145662Y-44703277D02*
X207050424Y-44608038D01*
X207050424Y-44608038D02*
X207002805Y-44512800D01*
X207002805Y-44512800D02*
X206955186Y-44322324D01*
X206955186Y-44322324D02*
X206955186Y-44179467D01*
X206955186Y-44179467D02*
X207002805Y-43988991D01*
X207002805Y-43988991D02*
X207050424Y-43893753D01*
X207050424Y-43893753D02*
X207145662Y-43798515D01*
X207145662Y-43798515D02*
X207288519Y-43750896D01*
X207288519Y-43750896D02*
X207383757Y-43750896D01*
X207383757Y-43750896D02*
X207526614Y-43798515D01*
X207526614Y-43798515D02*
X207574233Y-43846134D01*
X207955186Y-43846134D02*
X208002805Y-43798515D01*
X208002805Y-43798515D02*
X208098043Y-43750896D01*
X208098043Y-43750896D02*
X208336138Y-43750896D01*
X208336138Y-43750896D02*
X208431376Y-43798515D01*
X208431376Y-43798515D02*
X208478995Y-43846134D01*
X208478995Y-43846134D02*
X208526614Y-43941372D01*
X208526614Y-43941372D02*
X208526614Y-44036610D01*
X208526614Y-44036610D02*
X208478995Y-44179467D01*
X208478995Y-44179467D02*
X207907567Y-44750896D01*
X207907567Y-44750896D02*
X208526614Y-44750896D01*
X209431376Y-43750896D02*
X208955186Y-43750896D01*
X208955186Y-43750896D02*
X208907567Y-44227086D01*
X208907567Y-44227086D02*
X208955186Y-44179467D01*
X208955186Y-44179467D02*
X209050424Y-44131848D01*
X209050424Y-44131848D02*
X209288519Y-44131848D01*
X209288519Y-44131848D02*
X209383757Y-44179467D01*
X209383757Y-44179467D02*
X209431376Y-44227086D01*
X209431376Y-44227086D02*
X209478995Y-44322324D01*
X209478995Y-44322324D02*
X209478995Y-44560419D01*
X209478995Y-44560419D02*
X209431376Y-44655657D01*
X209431376Y-44655657D02*
X209383757Y-44703277D01*
X209383757Y-44703277D02*
X209288519Y-44750896D01*
X209288519Y-44750896D02*
X209050424Y-44750896D01*
X209050424Y-44750896D02*
X208955186Y-44703277D01*
X208955186Y-44703277D02*
X208907567Y-44655657D01*
X200091169Y-74799693D02*
X200023825Y-74799693D01*
X200023825Y-74799693D02*
X199889138Y-74732349D01*
X199889138Y-74732349D02*
X199821795Y-74665006D01*
X199821795Y-74665006D02*
X199754451Y-74530319D01*
X199754451Y-74530319D02*
X199754451Y-74395632D01*
X199754451Y-74395632D02*
X199788123Y-74294617D01*
X199788123Y-74294617D02*
X199889138Y-74126258D01*
X199889138Y-74126258D02*
X199990153Y-74025243D01*
X199990153Y-74025243D02*
X200158512Y-73924227D01*
X200158512Y-73924227D02*
X200259527Y-73890556D01*
X200259527Y-73890556D02*
X200394214Y-73890556D01*
X200394214Y-73890556D02*
X200528901Y-73957899D01*
X200528901Y-73957899D02*
X200596245Y-74025243D01*
X200596245Y-74025243D02*
X200663588Y-74159930D01*
X200663588Y-74159930D02*
X200663588Y-74227273D01*
X200697260Y-75540471D02*
X200293199Y-75136410D01*
X200495230Y-75338441D02*
X201202336Y-74631334D01*
X201202336Y-74631334D02*
X201033978Y-74665006D01*
X201033978Y-74665006D02*
X200899291Y-74665006D01*
X200899291Y-74665006D02*
X200798275Y-74631334D01*
X201774756Y-75675159D02*
X201303352Y-76146563D01*
X201875772Y-75237426D02*
X201202337Y-75574143D01*
X201202337Y-75574143D02*
X201640069Y-76011876D01*
X192484960Y-44755657D02*
X192437341Y-44803277D01*
X192437341Y-44803277D02*
X192294484Y-44850896D01*
X192294484Y-44850896D02*
X192199246Y-44850896D01*
X192199246Y-44850896D02*
X192056389Y-44803277D01*
X192056389Y-44803277D02*
X191961151Y-44708038D01*
X191961151Y-44708038D02*
X191913532Y-44612800D01*
X191913532Y-44612800D02*
X191865913Y-44422324D01*
X191865913Y-44422324D02*
X191865913Y-44279467D01*
X191865913Y-44279467D02*
X191913532Y-44088991D01*
X191913532Y-44088991D02*
X191961151Y-43993753D01*
X191961151Y-43993753D02*
X192056389Y-43898515D01*
X192056389Y-43898515D02*
X192199246Y-43850896D01*
X192199246Y-43850896D02*
X192294484Y-43850896D01*
X192294484Y-43850896D02*
X192437341Y-43898515D01*
X192437341Y-43898515D02*
X192484960Y-43946134D01*
X193437341Y-44850896D02*
X192865913Y-44850896D01*
X193151627Y-44850896D02*
X193151627Y-43850896D01*
X193151627Y-43850896D02*
X193056389Y-43993753D01*
X193056389Y-43993753D02*
X192961151Y-44088991D01*
X192961151Y-44088991D02*
X192865913Y-44136610D01*
X193770675Y-43850896D02*
X194389722Y-43850896D01*
X194389722Y-43850896D02*
X194056389Y-44231848D01*
X194056389Y-44231848D02*
X194199246Y-44231848D01*
X194199246Y-44231848D02*
X194294484Y-44279467D01*
X194294484Y-44279467D02*
X194342103Y-44327086D01*
X194342103Y-44327086D02*
X194389722Y-44422324D01*
X194389722Y-44422324D02*
X194389722Y-44660419D01*
X194389722Y-44660419D02*
X194342103Y-44755657D01*
X194342103Y-44755657D02*
X194294484Y-44803277D01*
X194294484Y-44803277D02*
X194199246Y-44850896D01*
X194199246Y-44850896D02*
X193913532Y-44850896D01*
X193913532Y-44850896D02*
X193818294Y-44803277D01*
X193818294Y-44803277D02*
X193770675Y-44755657D01*
X178585333Y-44782657D02*
X178537714Y-44830277D01*
X178537714Y-44830277D02*
X178394857Y-44877896D01*
X178394857Y-44877896D02*
X178299619Y-44877896D01*
X178299619Y-44877896D02*
X178156762Y-44830277D01*
X178156762Y-44830277D02*
X178061524Y-44735038D01*
X178061524Y-44735038D02*
X178013905Y-44639800D01*
X178013905Y-44639800D02*
X177966286Y-44449324D01*
X177966286Y-44449324D02*
X177966286Y-44306467D01*
X177966286Y-44306467D02*
X178013905Y-44115991D01*
X178013905Y-44115991D02*
X178061524Y-44020753D01*
X178061524Y-44020753D02*
X178156762Y-43925515D01*
X178156762Y-43925515D02*
X178299619Y-43877896D01*
X178299619Y-43877896D02*
X178394857Y-43877896D01*
X178394857Y-43877896D02*
X178537714Y-43925515D01*
X178537714Y-43925515D02*
X178585333Y-43973134D01*
X179537714Y-44877896D02*
X178966286Y-44877896D01*
X179252000Y-44877896D02*
X179252000Y-43877896D01*
X179252000Y-43877896D02*
X179156762Y-44020753D01*
X179156762Y-44020753D02*
X179061524Y-44115991D01*
X179061524Y-44115991D02*
X178966286Y-44163610D01*
X185927887Y-75636411D02*
X185860543Y-75636411D01*
X185860543Y-75636411D02*
X185725856Y-75569067D01*
X185725856Y-75569067D02*
X185658513Y-75501724D01*
X185658513Y-75501724D02*
X185591169Y-75367037D01*
X185591169Y-75367037D02*
X185591169Y-75232350D01*
X185591169Y-75232350D02*
X185624841Y-75131335D01*
X185624841Y-75131335D02*
X185725856Y-74962976D01*
X185725856Y-74962976D02*
X185826871Y-74861961D01*
X185826871Y-74861961D02*
X185995230Y-74760945D01*
X185995230Y-74760945D02*
X186096245Y-74727274D01*
X186096245Y-74727274D02*
X186230932Y-74727274D01*
X186230932Y-74727274D02*
X186365619Y-74794617D01*
X186365619Y-74794617D02*
X186432963Y-74861961D01*
X186432963Y-74861961D02*
X186500306Y-74996648D01*
X186500306Y-74996648D02*
X186500306Y-75063991D01*
X186769680Y-75333365D02*
X186837024Y-75333365D01*
X186837024Y-75333365D02*
X186938039Y-75367037D01*
X186938039Y-75367037D02*
X187106398Y-75535396D01*
X187106398Y-75535396D02*
X187140070Y-75636411D01*
X187140070Y-75636411D02*
X187140070Y-75703754D01*
X187140070Y-75703754D02*
X187106398Y-75804770D01*
X187106398Y-75804770D02*
X187039054Y-75872113D01*
X187039054Y-75872113D02*
X186904367Y-75939457D01*
X186904367Y-75939457D02*
X186096245Y-75939457D01*
X186096245Y-75939457D02*
X186533978Y-76377189D01*
X184032566Y-132457017D02*
X183695849Y-132793734D01*
X183695849Y-132793734D02*
X182988742Y-132086628D01*
X183594834Y-131615223D02*
X183594834Y-131547879D01*
X183594834Y-131547879D02*
X183628506Y-131446864D01*
X183628506Y-131446864D02*
X183796864Y-131278505D01*
X183796864Y-131278505D02*
X183897880Y-131244834D01*
X183897880Y-131244834D02*
X183965223Y-131244834D01*
X183965223Y-131244834D02*
X184066238Y-131278505D01*
X184066238Y-131278505D02*
X184133582Y-131345849D01*
X184133582Y-131345849D02*
X184200925Y-131480536D01*
X184200925Y-131480536D02*
X184200925Y-132288658D01*
X184200925Y-132288658D02*
X184638658Y-131850925D01*
X185312093Y-131177490D02*
X184908032Y-131581551D01*
X185110063Y-131379521D02*
X184402956Y-130672414D01*
X184402956Y-130672414D02*
X184436628Y-130840773D01*
X184436628Y-130840773D02*
X184436628Y-130975460D01*
X184436628Y-130975460D02*
X184402956Y-131076475D01*
X199217036Y-117426173D02*
X198880319Y-117762890D01*
X198880319Y-117762890D02*
X198173212Y-117055784D01*
X198779304Y-116584379D02*
X198779304Y-116517035D01*
X198779304Y-116517035D02*
X198812976Y-116416020D01*
X198812976Y-116416020D02*
X198981334Y-116247661D01*
X198981334Y-116247661D02*
X199082350Y-116213990D01*
X199082350Y-116213990D02*
X199149693Y-116213990D01*
X199149693Y-116213990D02*
X199250708Y-116247661D01*
X199250708Y-116247661D02*
X199318052Y-116315005D01*
X199318052Y-116315005D02*
X199385395Y-116449692D01*
X199385395Y-116449692D02*
X199385395Y-117257814D01*
X199385395Y-117257814D02*
X199823128Y-116820081D01*
X199351724Y-115877272D02*
X199789456Y-115439539D01*
X199789456Y-115439539D02*
X199823128Y-115944616D01*
X199823128Y-115944616D02*
X199924143Y-115843600D01*
X199924143Y-115843600D02*
X200025159Y-115809929D01*
X200025159Y-115809929D02*
X200092502Y-115809929D01*
X200092502Y-115809929D02*
X200193517Y-115843600D01*
X200193517Y-115843600D02*
X200361876Y-116011959D01*
X200361876Y-116011959D02*
X200395548Y-116112974D01*
X200395548Y-116112974D02*
X200395548Y-116180318D01*
X200395548Y-116180318D02*
X200361876Y-116281333D01*
X200361876Y-116281333D02*
X200159846Y-116483364D01*
X200159846Y-116483364D02*
X200058830Y-116517035D01*
X200058830Y-116517035D02*
X199991487Y-116517035D01*
X242217036Y-132476174D02*
X241880319Y-132812891D01*
X241880319Y-132812891D02*
X241173212Y-132105785D01*
X241678288Y-131600708D02*
X242116021Y-131162975D01*
X242116021Y-131162975D02*
X242149693Y-131668052D01*
X242149693Y-131668052D02*
X242250708Y-131567036D01*
X242250708Y-131567036D02*
X242351724Y-131533365D01*
X242351724Y-131533365D02*
X242419067Y-131533365D01*
X242419067Y-131533365D02*
X242520082Y-131567036D01*
X242520082Y-131567036D02*
X242688441Y-131735395D01*
X242688441Y-131735395D02*
X242722113Y-131836410D01*
X242722113Y-131836410D02*
X242722113Y-131903754D01*
X242722113Y-131903754D02*
X242688441Y-132004769D01*
X242688441Y-132004769D02*
X242486411Y-132206800D01*
X242486411Y-132206800D02*
X242385395Y-132240471D01*
X242385395Y-132240471D02*
X242318052Y-132240471D01*
X242351724Y-130927273D02*
X242789456Y-130489540D01*
X242789456Y-130489540D02*
X242823128Y-130994617D01*
X242823128Y-130994617D02*
X242924143Y-130893601D01*
X242924143Y-130893601D02*
X243025159Y-130859930D01*
X243025159Y-130859930D02*
X243092502Y-130859930D01*
X243092502Y-130859930D02*
X243193517Y-130893601D01*
X243193517Y-130893601D02*
X243361876Y-131061960D01*
X243361876Y-131061960D02*
X243395548Y-131162975D01*
X243395548Y-131162975D02*
X243395548Y-131230319D01*
X243395548Y-131230319D02*
X243361876Y-131331334D01*
X243361876Y-131331334D02*
X243159846Y-131533365D01*
X243159846Y-131533365D02*
X243058830Y-131567036D01*
X243058830Y-131567036D02*
X242991487Y-131567036D01*
X227667036Y-117876174D02*
X227330319Y-118212891D01*
X227330319Y-118212891D02*
X226623212Y-117505785D01*
X227229304Y-117034380D02*
X227229304Y-116967036D01*
X227229304Y-116967036D02*
X227262976Y-116866021D01*
X227262976Y-116866021D02*
X227431334Y-116697662D01*
X227431334Y-116697662D02*
X227532350Y-116663991D01*
X227532350Y-116663991D02*
X227599693Y-116663991D01*
X227599693Y-116663991D02*
X227700708Y-116697662D01*
X227700708Y-116697662D02*
X227768052Y-116765006D01*
X227768052Y-116765006D02*
X227835395Y-116899693D01*
X227835395Y-116899693D02*
X227835395Y-117707815D01*
X227835395Y-117707815D02*
X228273128Y-117270082D01*
X228609846Y-116933365D02*
X228744533Y-116798678D01*
X228744533Y-116798678D02*
X228778204Y-116697662D01*
X228778204Y-116697662D02*
X228778204Y-116630319D01*
X228778204Y-116630319D02*
X228744533Y-116461960D01*
X228744533Y-116461960D02*
X228643517Y-116293601D01*
X228643517Y-116293601D02*
X228374143Y-116024227D01*
X228374143Y-116024227D02*
X228273128Y-115990556D01*
X228273128Y-115990556D02*
X228205785Y-115990556D01*
X228205785Y-115990556D02*
X228104769Y-116024227D01*
X228104769Y-116024227D02*
X227970082Y-116158914D01*
X227970082Y-116158914D02*
X227936411Y-116259930D01*
X227936411Y-116259930D02*
X227936411Y-116327273D01*
X227936411Y-116327273D02*
X227970082Y-116428288D01*
X227970082Y-116428288D02*
X228138441Y-116596647D01*
X228138441Y-116596647D02*
X228239456Y-116630319D01*
X228239456Y-116630319D02*
X228306800Y-116630319D01*
X228306800Y-116630319D02*
X228407815Y-116596647D01*
X228407815Y-116596647D02*
X228542502Y-116461960D01*
X228542502Y-116461960D02*
X228576174Y-116360945D01*
X228576174Y-116360945D02*
X228576174Y-116293601D01*
X228576174Y-116293601D02*
X228542502Y-116192586D01*
X223617036Y-78826174D02*
X223280319Y-79162891D01*
X223280319Y-79162891D02*
X222573212Y-78455785D01*
X224223128Y-78220082D02*
X223819067Y-78624143D01*
X224021098Y-78422113D02*
X223313991Y-77715006D01*
X223313991Y-77715006D02*
X223347663Y-77883365D01*
X223347663Y-77883365D02*
X223347663Y-78018052D01*
X223347663Y-78018052D02*
X223313991Y-78119067D01*
X223852739Y-77310945D02*
X223852739Y-77243601D01*
X223852739Y-77243601D02*
X223886411Y-77142586D01*
X223886411Y-77142586D02*
X224054769Y-76974227D01*
X224054769Y-76974227D02*
X224155785Y-76940556D01*
X224155785Y-76940556D02*
X224223128Y-76940556D01*
X224223128Y-76940556D02*
X224324143Y-76974227D01*
X224324143Y-76974227D02*
X224391487Y-77041571D01*
X224391487Y-77041571D02*
X224458830Y-77176258D01*
X224458830Y-77176258D02*
X224458830Y-77984380D01*
X224458830Y-77984380D02*
X224896563Y-77546647D01*
X209403754Y-78789456D02*
X209067037Y-79126174D01*
X209067037Y-79126174D02*
X208359930Y-78419067D01*
X209673128Y-78520082D02*
X209807815Y-78385395D01*
X209807815Y-78385395D02*
X209841487Y-78284380D01*
X209841487Y-78284380D02*
X209841487Y-78217036D01*
X209841487Y-78217036D02*
X209807815Y-78048677D01*
X209807815Y-78048677D02*
X209706800Y-77880319D01*
X209706800Y-77880319D02*
X209437426Y-77610945D01*
X209437426Y-77610945D02*
X209336411Y-77577273D01*
X209336411Y-77577273D02*
X209269067Y-77577273D01*
X209269067Y-77577273D02*
X209168052Y-77610945D01*
X209168052Y-77610945D02*
X209033365Y-77745632D01*
X209033365Y-77745632D02*
X208999693Y-77846647D01*
X208999693Y-77846647D02*
X208999693Y-77913990D01*
X208999693Y-77913990D02*
X209033365Y-78015006D01*
X209033365Y-78015006D02*
X209201724Y-78183364D01*
X209201724Y-78183364D02*
X209302739Y-78217036D01*
X209302739Y-78217036D02*
X209370083Y-78217036D01*
X209370083Y-78217036D02*
X209471098Y-78183364D01*
X209471098Y-78183364D02*
X209605785Y-78048677D01*
X209605785Y-78048677D02*
X209639457Y-77947662D01*
X209639457Y-77947662D02*
X209639457Y-77880319D01*
X209639457Y-77880319D02*
X209605785Y-77779303D01*
X180516666Y-100254819D02*
X180516666Y-100969104D01*
X180516666Y-100969104D02*
X180469047Y-101111961D01*
X180469047Y-101111961D02*
X180373809Y-101207200D01*
X180373809Y-101207200D02*
X180230952Y-101254819D01*
X180230952Y-101254819D02*
X180135714Y-101254819D01*
X181516666Y-101254819D02*
X180945238Y-101254819D01*
X181230952Y-101254819D02*
X181230952Y-100254819D01*
X181230952Y-100254819D02*
X181135714Y-100397676D01*
X181135714Y-100397676D02*
X181040476Y-100492914D01*
X181040476Y-100492914D02*
X180945238Y-100540533D01*
X179403754Y-78839456D02*
X179067037Y-79176174D01*
X179067037Y-79176174D02*
X178359930Y-78469067D01*
X178865006Y-77963990D02*
X179302739Y-77526258D01*
X179302739Y-77526258D02*
X179336411Y-78031334D01*
X179336411Y-78031334D02*
X179437426Y-77930319D01*
X179437426Y-77930319D02*
X179538441Y-77896647D01*
X179538441Y-77896647D02*
X179605785Y-77896647D01*
X179605785Y-77896647D02*
X179706800Y-77930319D01*
X179706800Y-77930319D02*
X179875159Y-78098677D01*
X179875159Y-78098677D02*
X179908831Y-78199693D01*
X179908831Y-78199693D02*
X179908831Y-78267036D01*
X179908831Y-78267036D02*
X179875159Y-78368051D01*
X179875159Y-78368051D02*
X179673128Y-78570082D01*
X179673128Y-78570082D02*
X179572113Y-78603754D01*
X179572113Y-78603754D02*
X179504770Y-78603754D01*
X209103754Y-64739456D02*
X208767037Y-65076174D01*
X208767037Y-65076174D02*
X208059930Y-64369067D01*
X209036411Y-63998677D02*
X208935396Y-64032349D01*
X208935396Y-64032349D02*
X208868052Y-64032349D01*
X208868052Y-64032349D02*
X208767037Y-63998677D01*
X208767037Y-63998677D02*
X208733365Y-63965006D01*
X208733365Y-63965006D02*
X208699693Y-63863990D01*
X208699693Y-63863990D02*
X208699693Y-63796647D01*
X208699693Y-63796647D02*
X208733365Y-63695632D01*
X208733365Y-63695632D02*
X208868052Y-63560945D01*
X208868052Y-63560945D02*
X208969067Y-63527273D01*
X208969067Y-63527273D02*
X209036411Y-63527273D01*
X209036411Y-63527273D02*
X209137426Y-63560945D01*
X209137426Y-63560945D02*
X209171098Y-63594616D01*
X209171098Y-63594616D02*
X209204770Y-63695632D01*
X209204770Y-63695632D02*
X209204770Y-63762975D01*
X209204770Y-63762975D02*
X209171098Y-63863990D01*
X209171098Y-63863990D02*
X209036411Y-63998677D01*
X209036411Y-63998677D02*
X209002739Y-64099693D01*
X209002739Y-64099693D02*
X209002739Y-64167036D01*
X209002739Y-64167036D02*
X209036411Y-64268051D01*
X209036411Y-64268051D02*
X209171098Y-64402738D01*
X209171098Y-64402738D02*
X209272113Y-64436410D01*
X209272113Y-64436410D02*
X209339457Y-64436410D01*
X209339457Y-64436410D02*
X209440472Y-64402738D01*
X209440472Y-64402738D02*
X209575159Y-64268051D01*
X209575159Y-64268051D02*
X209608831Y-64167036D01*
X209608831Y-64167036D02*
X209608831Y-64099693D01*
X209608831Y-64099693D02*
X209575159Y-63998677D01*
X209575159Y-63998677D02*
X209440472Y-63863990D01*
X209440472Y-63863990D02*
X209339457Y-63830319D01*
X209339457Y-63830319D02*
X209272113Y-63830319D01*
X209272113Y-63830319D02*
X209171098Y-63863990D01*
X190303754Y-54339456D02*
X189967037Y-54676174D01*
X189967037Y-54676174D02*
X189259930Y-53969067D01*
X190371098Y-53329303D02*
X190842502Y-53800708D01*
X189933365Y-53228288D02*
X190270083Y-53901723D01*
X190270083Y-53901723D02*
X190707815Y-53463990D01*
X263572666Y-84544819D02*
X263572666Y-85259104D01*
X263572666Y-85259104D02*
X263525047Y-85401961D01*
X263525047Y-85401961D02*
X263429809Y-85497200D01*
X263429809Y-85497200D02*
X263286952Y-85544819D01*
X263286952Y-85544819D02*
X263191714Y-85544819D01*
X264001238Y-84640057D02*
X264048857Y-84592438D01*
X264048857Y-84592438D02*
X264144095Y-84544819D01*
X264144095Y-84544819D02*
X264382190Y-84544819D01*
X264382190Y-84544819D02*
X264477428Y-84592438D01*
X264477428Y-84592438D02*
X264525047Y-84640057D01*
X264525047Y-84640057D02*
X264572666Y-84735295D01*
X264572666Y-84735295D02*
X264572666Y-84830533D01*
X264572666Y-84830533D02*
X264525047Y-84973390D01*
X264525047Y-84973390D02*
X263953619Y-85544819D01*
X263953619Y-85544819D02*
X264572666Y-85544819D01*
X233417036Y-54576174D02*
X233080319Y-54912891D01*
X233080319Y-54912891D02*
X232373212Y-54205785D01*
X234023128Y-53970082D02*
X233619067Y-54374143D01*
X233821098Y-54172113D02*
X233113991Y-53465006D01*
X233113991Y-53465006D02*
X233147663Y-53633365D01*
X233147663Y-53633365D02*
X233147663Y-53768052D01*
X233147663Y-53768052D02*
X233113991Y-53869067D01*
X233551724Y-53027273D02*
X233989456Y-52589540D01*
X233989456Y-52589540D02*
X234023128Y-53094617D01*
X234023128Y-53094617D02*
X234124143Y-52993601D01*
X234124143Y-52993601D02*
X234225159Y-52959930D01*
X234225159Y-52959930D02*
X234292502Y-52959930D01*
X234292502Y-52959930D02*
X234393517Y-52993601D01*
X234393517Y-52993601D02*
X234561876Y-53161960D01*
X234561876Y-53161960D02*
X234595548Y-53262975D01*
X234595548Y-53262975D02*
X234595548Y-53330319D01*
X234595548Y-53330319D02*
X234561876Y-53431334D01*
X234561876Y-53431334D02*
X234359846Y-53633365D01*
X234359846Y-53633365D02*
X234258830Y-53667036D01*
X234258830Y-53667036D02*
X234191487Y-53667036D01*
X175003754Y-54539456D02*
X174667037Y-54876174D01*
X174667037Y-54876174D02*
X173959930Y-54169067D01*
X175609846Y-53933364D02*
X175205785Y-54337425D01*
X175407815Y-54135395D02*
X174700709Y-53428288D01*
X174700709Y-53428288D02*
X174734380Y-53596647D01*
X174734380Y-53596647D02*
X174734380Y-53731334D01*
X174734380Y-53731334D02*
X174700709Y-53832349D01*
X173835219Y-120805085D02*
X172835219Y-120805085D01*
X173835219Y-120233657D02*
X173263790Y-120662228D01*
X172835219Y-120233657D02*
X173406647Y-120805085D01*
X172930457Y-119852704D02*
X172882838Y-119805085D01*
X172882838Y-119805085D02*
X172835219Y-119709847D01*
X172835219Y-119709847D02*
X172835219Y-119471752D01*
X172835219Y-119471752D02*
X172882838Y-119376514D01*
X172882838Y-119376514D02*
X172930457Y-119328895D01*
X172930457Y-119328895D02*
X173025695Y-119281276D01*
X173025695Y-119281276D02*
X173120933Y-119281276D01*
X173120933Y-119281276D02*
X173263790Y-119328895D01*
X173263790Y-119328895D02*
X173835219Y-119900323D01*
X173835219Y-119900323D02*
X173835219Y-119281276D01*
X173168552Y-118424133D02*
X173835219Y-118424133D01*
X172787600Y-118662228D02*
X173501885Y-118900323D01*
X173501885Y-118900323D02*
X173501885Y-118281276D01*
X237217036Y-65126174D02*
X236880319Y-65462891D01*
X236880319Y-65462891D02*
X236173212Y-64755785D01*
X237823128Y-64520082D02*
X237419067Y-64924143D01*
X237621098Y-64722113D02*
X236913991Y-64015006D01*
X236913991Y-64015006D02*
X236947663Y-64183365D01*
X236947663Y-64183365D02*
X236947663Y-64318052D01*
X236947663Y-64318052D02*
X236913991Y-64419067D01*
X237957815Y-63442586D02*
X238429220Y-63913991D01*
X237520082Y-63341571D02*
X237856800Y-64015006D01*
X237856800Y-64015006D02*
X238294533Y-63577273D01*
X205053754Y-54339456D02*
X204717037Y-54676174D01*
X204717037Y-54676174D02*
X204009930Y-53969067D01*
X204515006Y-53463990D02*
X204986411Y-52992586D01*
X204986411Y-52992586D02*
X205390472Y-54002738D01*
X227417036Y-103926174D02*
X227080319Y-104262891D01*
X227080319Y-104262891D02*
X226373212Y-103555785D01*
X226979304Y-103084380D02*
X226979304Y-103017036D01*
X226979304Y-103017036D02*
X227012976Y-102916021D01*
X227012976Y-102916021D02*
X227181334Y-102747662D01*
X227181334Y-102747662D02*
X227282350Y-102713991D01*
X227282350Y-102713991D02*
X227349693Y-102713991D01*
X227349693Y-102713991D02*
X227450708Y-102747662D01*
X227450708Y-102747662D02*
X227518052Y-102815006D01*
X227518052Y-102815006D02*
X227585395Y-102949693D01*
X227585395Y-102949693D02*
X227585395Y-103757815D01*
X227585395Y-103757815D02*
X228023128Y-103320082D01*
X228023128Y-102511960D02*
X227922113Y-102545632D01*
X227922113Y-102545632D02*
X227854769Y-102545632D01*
X227854769Y-102545632D02*
X227753754Y-102511960D01*
X227753754Y-102511960D02*
X227720082Y-102478288D01*
X227720082Y-102478288D02*
X227686411Y-102377273D01*
X227686411Y-102377273D02*
X227686411Y-102309930D01*
X227686411Y-102309930D02*
X227720082Y-102208914D01*
X227720082Y-102208914D02*
X227854769Y-102074227D01*
X227854769Y-102074227D02*
X227955785Y-102040556D01*
X227955785Y-102040556D02*
X228023128Y-102040556D01*
X228023128Y-102040556D02*
X228124143Y-102074227D01*
X228124143Y-102074227D02*
X228157815Y-102107899D01*
X228157815Y-102107899D02*
X228191487Y-102208914D01*
X228191487Y-102208914D02*
X228191487Y-102276258D01*
X228191487Y-102276258D02*
X228157815Y-102377273D01*
X228157815Y-102377273D02*
X228023128Y-102511960D01*
X228023128Y-102511960D02*
X227989456Y-102612975D01*
X227989456Y-102612975D02*
X227989456Y-102680319D01*
X227989456Y-102680319D02*
X228023128Y-102781334D01*
X228023128Y-102781334D02*
X228157815Y-102916021D01*
X228157815Y-102916021D02*
X228258830Y-102949693D01*
X228258830Y-102949693D02*
X228326174Y-102949693D01*
X228326174Y-102949693D02*
X228427189Y-102916021D01*
X228427189Y-102916021D02*
X228561876Y-102781334D01*
X228561876Y-102781334D02*
X228595548Y-102680319D01*
X228595548Y-102680319D02*
X228595548Y-102612975D01*
X228595548Y-102612975D02*
X228561876Y-102511960D01*
X228561876Y-102511960D02*
X228427189Y-102377273D01*
X228427189Y-102377273D02*
X228326174Y-102343601D01*
X228326174Y-102343601D02*
X228258830Y-102343601D01*
X228258830Y-102343601D02*
X228157815Y-102377273D01*
X194553754Y-64389456D02*
X194217037Y-64726174D01*
X194217037Y-64726174D02*
X193509930Y-64019067D01*
X194419067Y-63109929D02*
X194082350Y-63446647D01*
X194082350Y-63446647D02*
X194385396Y-63817036D01*
X194385396Y-63817036D02*
X194385396Y-63749693D01*
X194385396Y-63749693D02*
X194419067Y-63648677D01*
X194419067Y-63648677D02*
X194587426Y-63480319D01*
X194587426Y-63480319D02*
X194688441Y-63446647D01*
X194688441Y-63446647D02*
X194755785Y-63446647D01*
X194755785Y-63446647D02*
X194856800Y-63480319D01*
X194856800Y-63480319D02*
X195025159Y-63648677D01*
X195025159Y-63648677D02*
X195058831Y-63749693D01*
X195058831Y-63749693D02*
X195058831Y-63817036D01*
X195058831Y-63817036D02*
X195025159Y-63918051D01*
X195025159Y-63918051D02*
X194856800Y-64086410D01*
X194856800Y-64086410D02*
X194755785Y-64120082D01*
X194755785Y-64120082D02*
X194688441Y-64120082D01*
X199217036Y-103076174D02*
X198880319Y-103412891D01*
X198880319Y-103412891D02*
X198173212Y-102705785D01*
X198779304Y-102234380D02*
X198779304Y-102167036D01*
X198779304Y-102167036D02*
X198812976Y-102066021D01*
X198812976Y-102066021D02*
X198981334Y-101897662D01*
X198981334Y-101897662D02*
X199082350Y-101863991D01*
X199082350Y-101863991D02*
X199149693Y-101863991D01*
X199149693Y-101863991D02*
X199250708Y-101897662D01*
X199250708Y-101897662D02*
X199318052Y-101965006D01*
X199318052Y-101965006D02*
X199385395Y-102099693D01*
X199385395Y-102099693D02*
X199385395Y-102907815D01*
X199385395Y-102907815D02*
X199823128Y-102470082D01*
X199452739Y-101560945D02*
X199452739Y-101493601D01*
X199452739Y-101493601D02*
X199486411Y-101392586D01*
X199486411Y-101392586D02*
X199654769Y-101224227D01*
X199654769Y-101224227D02*
X199755785Y-101190556D01*
X199755785Y-101190556D02*
X199823128Y-101190556D01*
X199823128Y-101190556D02*
X199924143Y-101224227D01*
X199924143Y-101224227D02*
X199991487Y-101291571D01*
X199991487Y-101291571D02*
X200058830Y-101426258D01*
X200058830Y-101426258D02*
X200058830Y-102234380D01*
X200058830Y-102234380D02*
X200496563Y-101796647D01*
X242167036Y-118376173D02*
X241830319Y-118712890D01*
X241830319Y-118712890D02*
X241123212Y-118005784D01*
X241628288Y-117500707D02*
X242066021Y-117062974D01*
X242066021Y-117062974D02*
X242099693Y-117568051D01*
X242099693Y-117568051D02*
X242200708Y-117467035D01*
X242200708Y-117467035D02*
X242301724Y-117433364D01*
X242301724Y-117433364D02*
X242369067Y-117433364D01*
X242369067Y-117433364D02*
X242470082Y-117467035D01*
X242470082Y-117467035D02*
X242638441Y-117635394D01*
X242638441Y-117635394D02*
X242672113Y-117736409D01*
X242672113Y-117736409D02*
X242672113Y-117803753D01*
X242672113Y-117803753D02*
X242638441Y-117904768D01*
X242638441Y-117904768D02*
X242436411Y-118106799D01*
X242436411Y-118106799D02*
X242335395Y-118140470D01*
X242335395Y-118140470D02*
X242268052Y-118140470D01*
X242402739Y-116860944D02*
X242402739Y-116793600D01*
X242402739Y-116793600D02*
X242436411Y-116692585D01*
X242436411Y-116692585D02*
X242604769Y-116524226D01*
X242604769Y-116524226D02*
X242705785Y-116490555D01*
X242705785Y-116490555D02*
X242773128Y-116490555D01*
X242773128Y-116490555D02*
X242874143Y-116524226D01*
X242874143Y-116524226D02*
X242941487Y-116591570D01*
X242941487Y-116591570D02*
X243008830Y-116726257D01*
X243008830Y-116726257D02*
X243008830Y-117534379D01*
X243008830Y-117534379D02*
X243446563Y-117096646D01*
X185517036Y-103126174D02*
X185180319Y-103462891D01*
X185180319Y-103462891D02*
X184473212Y-102755785D01*
X186123128Y-102520082D02*
X185719067Y-102924143D01*
X185921098Y-102722113D02*
X185213991Y-102015006D01*
X185213991Y-102015006D02*
X185247663Y-102183365D01*
X185247663Y-102183365D02*
X185247663Y-102318052D01*
X185247663Y-102318052D02*
X185213991Y-102419067D01*
X186459846Y-102183365D02*
X186594533Y-102048678D01*
X186594533Y-102048678D02*
X186628204Y-101947662D01*
X186628204Y-101947662D02*
X186628204Y-101880319D01*
X186628204Y-101880319D02*
X186594533Y-101711960D01*
X186594533Y-101711960D02*
X186493517Y-101543601D01*
X186493517Y-101543601D02*
X186224143Y-101274227D01*
X186224143Y-101274227D02*
X186123128Y-101240556D01*
X186123128Y-101240556D02*
X186055785Y-101240556D01*
X186055785Y-101240556D02*
X185954769Y-101274227D01*
X185954769Y-101274227D02*
X185820082Y-101408914D01*
X185820082Y-101408914D02*
X185786411Y-101509930D01*
X185786411Y-101509930D02*
X185786411Y-101577273D01*
X185786411Y-101577273D02*
X185820082Y-101678288D01*
X185820082Y-101678288D02*
X185988441Y-101846647D01*
X185988441Y-101846647D02*
X186089456Y-101880319D01*
X186089456Y-101880319D02*
X186156800Y-101880319D01*
X186156800Y-101880319D02*
X186257815Y-101846647D01*
X186257815Y-101846647D02*
X186392502Y-101711960D01*
X186392502Y-101711960D02*
X186426174Y-101610945D01*
X186426174Y-101610945D02*
X186426174Y-101543601D01*
X186426174Y-101543601D02*
X186392502Y-101442586D01*
X179253754Y-64739456D02*
X178917037Y-65076174D01*
X178917037Y-65076174D02*
X178209930Y-64369067D01*
X178816022Y-63897662D02*
X178816022Y-63830319D01*
X178816022Y-63830319D02*
X178849693Y-63729303D01*
X178849693Y-63729303D02*
X179018052Y-63560945D01*
X179018052Y-63560945D02*
X179119067Y-63527273D01*
X179119067Y-63527273D02*
X179186411Y-63527273D01*
X179186411Y-63527273D02*
X179287426Y-63560945D01*
X179287426Y-63560945D02*
X179354770Y-63628288D01*
X179354770Y-63628288D02*
X179422113Y-63762975D01*
X179422113Y-63762975D02*
X179422113Y-64571097D01*
X179422113Y-64571097D02*
X179859846Y-64133364D01*
X227682705Y-132276174D02*
X227345988Y-132612891D01*
X227345988Y-132612891D02*
X226638881Y-131905785D01*
X227143957Y-131400708D02*
X227581690Y-130962975D01*
X227581690Y-130962975D02*
X227615362Y-131468052D01*
X227615362Y-131468052D02*
X227716377Y-131367036D01*
X227716377Y-131367036D02*
X227817393Y-131333365D01*
X227817393Y-131333365D02*
X227884736Y-131333365D01*
X227884736Y-131333365D02*
X227985751Y-131367036D01*
X227985751Y-131367036D02*
X228154110Y-131535395D01*
X228154110Y-131535395D02*
X228187782Y-131636410D01*
X228187782Y-131636410D02*
X228187782Y-131703754D01*
X228187782Y-131703754D02*
X228154110Y-131804769D01*
X228154110Y-131804769D02*
X227952080Y-132006800D01*
X227952080Y-132006800D02*
X227851064Y-132040471D01*
X227851064Y-132040471D02*
X227783721Y-132040471D01*
X228019423Y-130525243D02*
X228086767Y-130457899D01*
X228086767Y-130457899D02*
X228187782Y-130424227D01*
X228187782Y-130424227D02*
X228255125Y-130424227D01*
X228255125Y-130424227D02*
X228356141Y-130457899D01*
X228356141Y-130457899D02*
X228524499Y-130558914D01*
X228524499Y-130558914D02*
X228692858Y-130727273D01*
X228692858Y-130727273D02*
X228793873Y-130895632D01*
X228793873Y-130895632D02*
X228827545Y-130996647D01*
X228827545Y-130996647D02*
X228827545Y-131063991D01*
X228827545Y-131063991D02*
X228793873Y-131165006D01*
X228793873Y-131165006D02*
X228726530Y-131232349D01*
X228726530Y-131232349D02*
X228625515Y-131266021D01*
X228625515Y-131266021D02*
X228558171Y-131266021D01*
X228558171Y-131266021D02*
X228457156Y-131232349D01*
X228457156Y-131232349D02*
X228288797Y-131131334D01*
X228288797Y-131131334D02*
X228120438Y-130962975D01*
X228120438Y-130962975D02*
X228019423Y-130794617D01*
X228019423Y-130794617D02*
X227985751Y-130693601D01*
X227985751Y-130693601D02*
X227985751Y-130626258D01*
X227985751Y-130626258D02*
X228019423Y-130525243D01*
X247067036Y-54926173D02*
X246730319Y-55262890D01*
X246730319Y-55262890D02*
X246023212Y-54555784D01*
X247673128Y-54320081D02*
X247269067Y-54724142D01*
X247471098Y-54522112D02*
X246763991Y-53815005D01*
X246763991Y-53815005D02*
X246797663Y-53983364D01*
X246797663Y-53983364D02*
X246797663Y-54118051D01*
X246797663Y-54118051D02*
X246763991Y-54219066D01*
X247572113Y-53006883D02*
X247437426Y-53141570D01*
X247437426Y-53141570D02*
X247403754Y-53242585D01*
X247403754Y-53242585D02*
X247403754Y-53309929D01*
X247403754Y-53309929D02*
X247437426Y-53478287D01*
X247437426Y-53478287D02*
X247538441Y-53646646D01*
X247538441Y-53646646D02*
X247807815Y-53916020D01*
X247807815Y-53916020D02*
X247908830Y-53949692D01*
X247908830Y-53949692D02*
X247976174Y-53949692D01*
X247976174Y-53949692D02*
X248077189Y-53916020D01*
X248077189Y-53916020D02*
X248211876Y-53781333D01*
X248211876Y-53781333D02*
X248245548Y-53680318D01*
X248245548Y-53680318D02*
X248245548Y-53612974D01*
X248245548Y-53612974D02*
X248211876Y-53511959D01*
X248211876Y-53511959D02*
X248043517Y-53343600D01*
X248043517Y-53343600D02*
X247942502Y-53309929D01*
X247942502Y-53309929D02*
X247875159Y-53309929D01*
X247875159Y-53309929D02*
X247774143Y-53343600D01*
X247774143Y-53343600D02*
X247639456Y-53478287D01*
X247639456Y-53478287D02*
X247605785Y-53579303D01*
X247605785Y-53579303D02*
X247605785Y-53646646D01*
X247605785Y-53646646D02*
X247639456Y-53747661D01*
X251017036Y-79376174D02*
X250680319Y-79712891D01*
X250680319Y-79712891D02*
X249973212Y-79005785D01*
X251623128Y-78770082D02*
X251219067Y-79174143D01*
X251421098Y-78972113D02*
X250713991Y-78265006D01*
X250713991Y-78265006D02*
X250747663Y-78433365D01*
X250747663Y-78433365D02*
X250747663Y-78568052D01*
X250747663Y-78568052D02*
X250713991Y-78669067D01*
X251623128Y-77961960D02*
X251522113Y-77995632D01*
X251522113Y-77995632D02*
X251454769Y-77995632D01*
X251454769Y-77995632D02*
X251353754Y-77961960D01*
X251353754Y-77961960D02*
X251320082Y-77928288D01*
X251320082Y-77928288D02*
X251286411Y-77827273D01*
X251286411Y-77827273D02*
X251286411Y-77759930D01*
X251286411Y-77759930D02*
X251320082Y-77658914D01*
X251320082Y-77658914D02*
X251454769Y-77524227D01*
X251454769Y-77524227D02*
X251555785Y-77490556D01*
X251555785Y-77490556D02*
X251623128Y-77490556D01*
X251623128Y-77490556D02*
X251724143Y-77524227D01*
X251724143Y-77524227D02*
X251757815Y-77557899D01*
X251757815Y-77557899D02*
X251791487Y-77658914D01*
X251791487Y-77658914D02*
X251791487Y-77726258D01*
X251791487Y-77726258D02*
X251757815Y-77827273D01*
X251757815Y-77827273D02*
X251623128Y-77961960D01*
X251623128Y-77961960D02*
X251589456Y-78062975D01*
X251589456Y-78062975D02*
X251589456Y-78130319D01*
X251589456Y-78130319D02*
X251623128Y-78231334D01*
X251623128Y-78231334D02*
X251757815Y-78366021D01*
X251757815Y-78366021D02*
X251858830Y-78399693D01*
X251858830Y-78399693D02*
X251926174Y-78399693D01*
X251926174Y-78399693D02*
X252027189Y-78366021D01*
X252027189Y-78366021D02*
X252161876Y-78231334D01*
X252161876Y-78231334D02*
X252195548Y-78130319D01*
X252195548Y-78130319D02*
X252195548Y-78062975D01*
X252195548Y-78062975D02*
X252161876Y-77961960D01*
X252161876Y-77961960D02*
X252027189Y-77827273D01*
X252027189Y-77827273D02*
X251926174Y-77793601D01*
X251926174Y-77793601D02*
X251858830Y-77793601D01*
X251858830Y-77793601D02*
X251757815Y-77827273D01*
X219067036Y-54826174D02*
X218730319Y-55162891D01*
X218730319Y-55162891D02*
X218023212Y-54455785D01*
X219673128Y-54220082D02*
X219269067Y-54624143D01*
X219471098Y-54422113D02*
X218763991Y-53715006D01*
X218763991Y-53715006D02*
X218797663Y-53883365D01*
X218797663Y-53883365D02*
X218797663Y-54018052D01*
X218797663Y-54018052D02*
X218763991Y-54119067D01*
X219403754Y-53075243D02*
X219471098Y-53007899D01*
X219471098Y-53007899D02*
X219572113Y-52974227D01*
X219572113Y-52974227D02*
X219639456Y-52974227D01*
X219639456Y-52974227D02*
X219740472Y-53007899D01*
X219740472Y-53007899D02*
X219908830Y-53108914D01*
X219908830Y-53108914D02*
X220077189Y-53277273D01*
X220077189Y-53277273D02*
X220178204Y-53445632D01*
X220178204Y-53445632D02*
X220211876Y-53546647D01*
X220211876Y-53546647D02*
X220211876Y-53613991D01*
X220211876Y-53613991D02*
X220178204Y-53715006D01*
X220178204Y-53715006D02*
X220110861Y-53782349D01*
X220110861Y-53782349D02*
X220009846Y-53816021D01*
X220009846Y-53816021D02*
X219942502Y-53816021D01*
X219942502Y-53816021D02*
X219841487Y-53782349D01*
X219841487Y-53782349D02*
X219673128Y-53681334D01*
X219673128Y-53681334D02*
X219504769Y-53512975D01*
X219504769Y-53512975D02*
X219403754Y-53344617D01*
X219403754Y-53344617D02*
X219370082Y-53243601D01*
X219370082Y-53243601D02*
X219370082Y-53176258D01*
X219370082Y-53176258D02*
X219403754Y-53075243D01*
X213117036Y-132076174D02*
X212780319Y-132412891D01*
X212780319Y-132412891D02*
X212073212Y-131705785D01*
X212679304Y-131234380D02*
X212679304Y-131167036D01*
X212679304Y-131167036D02*
X212712976Y-131066021D01*
X212712976Y-131066021D02*
X212881334Y-130897662D01*
X212881334Y-130897662D02*
X212982350Y-130863991D01*
X212982350Y-130863991D02*
X213049693Y-130863991D01*
X213049693Y-130863991D02*
X213150708Y-130897662D01*
X213150708Y-130897662D02*
X213218052Y-130965006D01*
X213218052Y-130965006D02*
X213285395Y-131099693D01*
X213285395Y-131099693D02*
X213285395Y-131907815D01*
X213285395Y-131907815D02*
X213723128Y-131470082D01*
X213251724Y-130527273D02*
X213723128Y-130055869D01*
X213723128Y-130055869D02*
X214127189Y-131066021D01*
X213167036Y-103526174D02*
X212830319Y-103862891D01*
X212830319Y-103862891D02*
X212123212Y-103155785D01*
X212729304Y-102684380D02*
X212729304Y-102617036D01*
X212729304Y-102617036D02*
X212762976Y-102516021D01*
X212762976Y-102516021D02*
X212931334Y-102347662D01*
X212931334Y-102347662D02*
X213032350Y-102313991D01*
X213032350Y-102313991D02*
X213099693Y-102313991D01*
X213099693Y-102313991D02*
X213200708Y-102347662D01*
X213200708Y-102347662D02*
X213268052Y-102415006D01*
X213268052Y-102415006D02*
X213335395Y-102549693D01*
X213335395Y-102549693D02*
X213335395Y-103357815D01*
X213335395Y-103357815D02*
X213773128Y-102920082D01*
X213705785Y-101573212D02*
X213369067Y-101909930D01*
X213369067Y-101909930D02*
X213672113Y-102280319D01*
X213672113Y-102280319D02*
X213672113Y-102212975D01*
X213672113Y-102212975D02*
X213705785Y-102111960D01*
X213705785Y-102111960D02*
X213874143Y-101943601D01*
X213874143Y-101943601D02*
X213975159Y-101909930D01*
X213975159Y-101909930D02*
X214042502Y-101909930D01*
X214042502Y-101909930D02*
X214143517Y-101943601D01*
X214143517Y-101943601D02*
X214311876Y-102111960D01*
X214311876Y-102111960D02*
X214345548Y-102212975D01*
X214345548Y-102212975D02*
X214345548Y-102280319D01*
X214345548Y-102280319D02*
X214311876Y-102381334D01*
X214311876Y-102381334D02*
X214143517Y-102549693D01*
X214143517Y-102549693D02*
X214042502Y-102583365D01*
X214042502Y-102583365D02*
X213975159Y-102583365D01*
X223117036Y-65126174D02*
X222780319Y-65462891D01*
X222780319Y-65462891D02*
X222073212Y-64755785D01*
X223723128Y-64520082D02*
X223319067Y-64924143D01*
X223521098Y-64722113D02*
X222813991Y-64015006D01*
X222813991Y-64015006D02*
X222847663Y-64183365D01*
X222847663Y-64183365D02*
X222847663Y-64318052D01*
X222847663Y-64318052D02*
X222813991Y-64419067D01*
X224396563Y-63846647D02*
X223992502Y-64250708D01*
X224194533Y-64048678D02*
X223487426Y-63341571D01*
X223487426Y-63341571D02*
X223521098Y-63509930D01*
X223521098Y-63509930D02*
X223521098Y-63644617D01*
X223521098Y-63644617D02*
X223487426Y-63745632D01*
X185217036Y-117376174D02*
X184880319Y-117712891D01*
X184880319Y-117712891D02*
X184173212Y-117005785D01*
X184779304Y-116534380D02*
X184779304Y-116467036D01*
X184779304Y-116467036D02*
X184812976Y-116366021D01*
X184812976Y-116366021D02*
X184981334Y-116197662D01*
X184981334Y-116197662D02*
X185082350Y-116163991D01*
X185082350Y-116163991D02*
X185149693Y-116163991D01*
X185149693Y-116163991D02*
X185250708Y-116197662D01*
X185250708Y-116197662D02*
X185318052Y-116265006D01*
X185318052Y-116265006D02*
X185385395Y-116399693D01*
X185385395Y-116399693D02*
X185385395Y-117207815D01*
X185385395Y-117207815D02*
X185823128Y-116770082D01*
X185553754Y-115625243D02*
X185621098Y-115557899D01*
X185621098Y-115557899D02*
X185722113Y-115524227D01*
X185722113Y-115524227D02*
X185789456Y-115524227D01*
X185789456Y-115524227D02*
X185890472Y-115557899D01*
X185890472Y-115557899D02*
X186058830Y-115658914D01*
X186058830Y-115658914D02*
X186227189Y-115827273D01*
X186227189Y-115827273D02*
X186328204Y-115995632D01*
X186328204Y-115995632D02*
X186361876Y-116096647D01*
X186361876Y-116096647D02*
X186361876Y-116163991D01*
X186361876Y-116163991D02*
X186328204Y-116265006D01*
X186328204Y-116265006D02*
X186260861Y-116332349D01*
X186260861Y-116332349D02*
X186159846Y-116366021D01*
X186159846Y-116366021D02*
X186092502Y-116366021D01*
X186092502Y-116366021D02*
X185991487Y-116332349D01*
X185991487Y-116332349D02*
X185823128Y-116231334D01*
X185823128Y-116231334D02*
X185654769Y-116062975D01*
X185654769Y-116062975D02*
X185553754Y-115894617D01*
X185553754Y-115894617D02*
X185520082Y-115793601D01*
X185520082Y-115793601D02*
X185520082Y-115726258D01*
X185520082Y-115726258D02*
X185553754Y-115625243D01*
X194203754Y-79089456D02*
X193867037Y-79426174D01*
X193867037Y-79426174D02*
X193159930Y-78719067D01*
X194035396Y-77843601D02*
X193900709Y-77978288D01*
X193900709Y-77978288D02*
X193867037Y-78079303D01*
X193867037Y-78079303D02*
X193867037Y-78146647D01*
X193867037Y-78146647D02*
X193900709Y-78315006D01*
X193900709Y-78315006D02*
X194001724Y-78483364D01*
X194001724Y-78483364D02*
X194271098Y-78752738D01*
X194271098Y-78752738D02*
X194372113Y-78786410D01*
X194372113Y-78786410D02*
X194439457Y-78786410D01*
X194439457Y-78786410D02*
X194540472Y-78752738D01*
X194540472Y-78752738D02*
X194675159Y-78618051D01*
X194675159Y-78618051D02*
X194708831Y-78517036D01*
X194708831Y-78517036D02*
X194708831Y-78449693D01*
X194708831Y-78449693D02*
X194675159Y-78348677D01*
X194675159Y-78348677D02*
X194506800Y-78180319D01*
X194506800Y-78180319D02*
X194405785Y-78146647D01*
X194405785Y-78146647D02*
X194338441Y-78146647D01*
X194338441Y-78146647D02*
X194237426Y-78180319D01*
X194237426Y-78180319D02*
X194102739Y-78315006D01*
X194102739Y-78315006D02*
X194069067Y-78416021D01*
X194069067Y-78416021D02*
X194069067Y-78483364D01*
X194069067Y-78483364D02*
X194102739Y-78584380D01*
X251067036Y-65026174D02*
X250730319Y-65362891D01*
X250730319Y-65362891D02*
X250023212Y-64655785D01*
X251673128Y-64420082D02*
X251269067Y-64824143D01*
X251471098Y-64622113D02*
X250763991Y-63915006D01*
X250763991Y-63915006D02*
X250797663Y-64083365D01*
X250797663Y-64083365D02*
X250797663Y-64218052D01*
X250797663Y-64218052D02*
X250763991Y-64319067D01*
X251201724Y-63477273D02*
X251673128Y-63005869D01*
X251673128Y-63005869D02*
X252077189Y-64016021D01*
X237667036Y-78976174D02*
X237330319Y-79312891D01*
X237330319Y-79312891D02*
X236623212Y-78605785D01*
X238273128Y-78370082D02*
X237869067Y-78774143D01*
X238071098Y-78572113D02*
X237363991Y-77865006D01*
X237363991Y-77865006D02*
X237397663Y-78033365D01*
X237397663Y-78033365D02*
X237397663Y-78168052D01*
X237397663Y-78168052D02*
X237363991Y-78269067D01*
X238205785Y-77023212D02*
X237869067Y-77359930D01*
X237869067Y-77359930D02*
X238172113Y-77730319D01*
X238172113Y-77730319D02*
X238172113Y-77662975D01*
X238172113Y-77662975D02*
X238205785Y-77561960D01*
X238205785Y-77561960D02*
X238374143Y-77393601D01*
X238374143Y-77393601D02*
X238475159Y-77359930D01*
X238475159Y-77359930D02*
X238542502Y-77359930D01*
X238542502Y-77359930D02*
X238643517Y-77393601D01*
X238643517Y-77393601D02*
X238811876Y-77561960D01*
X238811876Y-77561960D02*
X238845548Y-77662975D01*
X238845548Y-77662975D02*
X238845548Y-77730319D01*
X238845548Y-77730319D02*
X238811876Y-77831334D01*
X238811876Y-77831334D02*
X238643517Y-77999693D01*
X238643517Y-77999693D02*
X238542502Y-78033365D01*
X238542502Y-78033365D02*
X238475159Y-78033365D01*
X198872958Y-131932097D02*
X198536241Y-132268814D01*
X198536241Y-132268814D02*
X197829134Y-131561708D01*
X198435226Y-131090303D02*
X198435226Y-131022959D01*
X198435226Y-131022959D02*
X198468898Y-130921944D01*
X198468898Y-130921944D02*
X198637256Y-130753585D01*
X198637256Y-130753585D02*
X198738272Y-130719914D01*
X198738272Y-130719914D02*
X198805615Y-130719914D01*
X198805615Y-130719914D02*
X198906630Y-130753585D01*
X198906630Y-130753585D02*
X198973974Y-130820929D01*
X198973974Y-130820929D02*
X199041317Y-130955616D01*
X199041317Y-130955616D02*
X199041317Y-131763738D01*
X199041317Y-131763738D02*
X199479050Y-131326005D01*
X199613737Y-130248509D02*
X200085142Y-130719914D01*
X199176004Y-130147494D02*
X199512722Y-130820929D01*
X199512722Y-130820929D02*
X199950455Y-130383196D01*
X242217036Y-104026174D02*
X241880319Y-104362891D01*
X241880319Y-104362891D02*
X241173212Y-103655785D01*
X241678288Y-103150708D02*
X242116021Y-102712975D01*
X242116021Y-102712975D02*
X242149693Y-103218052D01*
X242149693Y-103218052D02*
X242250708Y-103117036D01*
X242250708Y-103117036D02*
X242351724Y-103083365D01*
X242351724Y-103083365D02*
X242419067Y-103083365D01*
X242419067Y-103083365D02*
X242520082Y-103117036D01*
X242520082Y-103117036D02*
X242688441Y-103285395D01*
X242688441Y-103285395D02*
X242722113Y-103386410D01*
X242722113Y-103386410D02*
X242722113Y-103453754D01*
X242722113Y-103453754D02*
X242688441Y-103554769D01*
X242688441Y-103554769D02*
X242486411Y-103756800D01*
X242486411Y-103756800D02*
X242385395Y-103790471D01*
X242385395Y-103790471D02*
X242318052Y-103790471D01*
X243496563Y-102746647D02*
X243092502Y-103150708D01*
X243294533Y-102948678D02*
X242587426Y-102241571D01*
X242587426Y-102241571D02*
X242621098Y-102409930D01*
X242621098Y-102409930D02*
X242621098Y-102544617D01*
X242621098Y-102544617D02*
X242587426Y-102645632D01*
X213217035Y-117626174D02*
X212880318Y-117962891D01*
X212880318Y-117962891D02*
X212173211Y-117255785D01*
X212779303Y-116784380D02*
X212779303Y-116717036D01*
X212779303Y-116717036D02*
X212812975Y-116616021D01*
X212812975Y-116616021D02*
X212981333Y-116447662D01*
X212981333Y-116447662D02*
X213082349Y-116413991D01*
X213082349Y-116413991D02*
X213149692Y-116413991D01*
X213149692Y-116413991D02*
X213250707Y-116447662D01*
X213250707Y-116447662D02*
X213318051Y-116515006D01*
X213318051Y-116515006D02*
X213385394Y-116649693D01*
X213385394Y-116649693D02*
X213385394Y-117457815D01*
X213385394Y-117457815D02*
X213823127Y-117020082D01*
X213722112Y-115706884D02*
X213587425Y-115841571D01*
X213587425Y-115841571D02*
X213553753Y-115942586D01*
X213553753Y-115942586D02*
X213553753Y-116009930D01*
X213553753Y-116009930D02*
X213587425Y-116178288D01*
X213587425Y-116178288D02*
X213688440Y-116346647D01*
X213688440Y-116346647D02*
X213957814Y-116616021D01*
X213957814Y-116616021D02*
X214058829Y-116649693D01*
X214058829Y-116649693D02*
X214126173Y-116649693D01*
X214126173Y-116649693D02*
X214227188Y-116616021D01*
X214227188Y-116616021D02*
X214361875Y-116481334D01*
X214361875Y-116481334D02*
X214395547Y-116380319D01*
X214395547Y-116380319D02*
X214395547Y-116312975D01*
X214395547Y-116312975D02*
X214361875Y-116211960D01*
X214361875Y-116211960D02*
X214193516Y-116043601D01*
X214193516Y-116043601D02*
X214092501Y-116009930D01*
X214092501Y-116009930D02*
X214025158Y-116009930D01*
X214025158Y-116009930D02*
X213924142Y-116043601D01*
X213924142Y-116043601D02*
X213789455Y-116178288D01*
X213789455Y-116178288D02*
X213755784Y-116279304D01*
X213755784Y-116279304D02*
X213755784Y-116346647D01*
X213755784Y-116346647D02*
X213789455Y-116447662D01*
D12*
%TO.C,C106*%
X172278909Y-113899175D02*
X172278909Y-113376671D01*
X174098909Y-113899175D02*
X174098909Y-113376671D01*
%TO.C,C105*%
X174098909Y-108042671D02*
X174098909Y-108565175D01*
X172278909Y-108042671D02*
X172278909Y-108565175D01*
%TO.C,C99*%
X253163071Y-121167878D02*
X253532537Y-120798412D01*
X254450005Y-122454812D02*
X254819471Y-122085346D01*
%TO.C,C98*%
X252401071Y-92973878D02*
X252770537Y-92604412D01*
X253688005Y-94260812D02*
X254057471Y-93891346D01*
%TO.C,C90*%
X241934350Y-126474118D02*
X242303816Y-126843584D01*
X240647416Y-127761052D02*
X241016882Y-128130518D01*
%TO.C,C89*%
X244805594Y-93707472D02*
X245175060Y-93338006D01*
X246092528Y-94994406D02*
X246461994Y-94624940D01*
%TO.C,C83*%
X227622643Y-125890723D02*
X227992109Y-126260189D01*
X226335709Y-127177657D02*
X226705175Y-127547123D01*
%TO.C,C82*%
X223571800Y-92841266D02*
X223941266Y-92471800D01*
X224858734Y-94128200D02*
X225228200Y-93758734D01*
%TO.C,C76*%
X213048005Y-125116412D02*
X213417471Y-125485878D01*
X211761071Y-126403346D02*
X212130537Y-126772812D01*
%TO.C,C75*%
X202205594Y-93607472D02*
X202575060Y-93238006D01*
X203492528Y-94894406D02*
X203861994Y-94524940D01*
%TO.C,C65*%
X199158734Y-125971800D02*
X199528200Y-126341266D01*
X197871800Y-127258734D02*
X198241266Y-127628200D01*
%TO.C,C64*%
X209705594Y-92807472D02*
X210075060Y-92438006D01*
X210992528Y-94094406D02*
X211361994Y-93724940D01*
%TO.C,C58*%
X257393364Y-72788899D02*
X257762830Y-72419433D01*
X258680298Y-74075833D02*
X259049764Y-73706367D01*
%TO.C,C57*%
X256161252Y-45310000D02*
X255638748Y-45310000D01*
X256161252Y-43490000D02*
X255638748Y-43490000D01*
%TO.C,C49*%
X247992528Y-77105594D02*
X248361994Y-77475060D01*
X246705594Y-78392528D02*
X247075060Y-78761994D01*
%TO.C,C48*%
X242461252Y-45110000D02*
X241938748Y-45110000D01*
X242461252Y-43290000D02*
X241938748Y-43290000D01*
%TO.C,C38*%
X233894643Y-77276706D02*
X234264109Y-77646172D01*
X232607709Y-78563640D02*
X232977175Y-78933106D01*
%TO.C,C37*%
X228236252Y-45310000D02*
X227713748Y-45310000D01*
X228236252Y-43490000D02*
X227713748Y-43490000D01*
%TO.C,C26*%
X219748643Y-77503723D02*
X220118109Y-77873189D01*
X218461709Y-78790657D02*
X218831175Y-79160123D01*
%TO.C,C25*%
X213961252Y-45210000D02*
X213438748Y-45210000D01*
X213961252Y-43390000D02*
X213438748Y-43390000D01*
%TO.C,C14*%
X204820899Y-77276706D02*
X205190365Y-77646172D01*
X203533965Y-78563640D02*
X203903431Y-78933106D01*
%TO.C,C13*%
X198536252Y-45210000D02*
X198013748Y-45210000D01*
X198536252Y-43390000D02*
X198013748Y-43390000D01*
%TO.C,C1*%
X183736252Y-43490000D02*
X183213748Y-43490000D01*
X183736252Y-45310000D02*
X183213748Y-45310000D01*
%TO.C,C2*%
X189815734Y-77503723D02*
X190185200Y-77873189D01*
X188528800Y-78790657D02*
X188898266Y-79160123D01*
%TO.C,L21*%
X180773261Y-136329468D02*
X186670532Y-142226738D01*
X180773261Y-136329468D02*
X186360112Y-130742617D01*
X186670532Y-142226738D02*
X192257383Y-136639888D01*
X187942617Y-129160112D02*
X193529468Y-123573261D01*
X193839888Y-135057383D02*
X199426738Y-129470532D01*
X193529468Y-123573261D02*
X199426738Y-129470532D01*
%TO.C,L23*%
X195458093Y-121485314D02*
X201355364Y-127382584D01*
X195458093Y-121485314D02*
X201044944Y-115898463D01*
X201355364Y-127382584D02*
X206942215Y-121795734D01*
X202627449Y-114315958D02*
X208214300Y-108729107D01*
X208524720Y-120213229D02*
X214111570Y-114626378D01*
X208214300Y-108729107D02*
X214111570Y-114626378D01*
%TO.C,L33*%
X238538170Y-136598314D02*
X244435441Y-142495584D01*
X238538170Y-136598314D02*
X244125021Y-131011463D01*
X244435441Y-142495584D02*
X250022292Y-136908734D01*
X245707526Y-129428958D02*
X251294377Y-123842107D01*
X251604797Y-135326229D02*
X257191647Y-129739378D01*
X251294377Y-123842107D02*
X257191647Y-129739378D01*
%TO.C,L29*%
X223863515Y-122081020D02*
X229760786Y-127978290D01*
X223863515Y-122081020D02*
X229450366Y-116494169D01*
X229760786Y-127978290D02*
X235347637Y-122391440D01*
X231032871Y-114911664D02*
X236619722Y-109324813D01*
X236930142Y-120808935D02*
X242516992Y-115222084D01*
X236619722Y-109324813D02*
X242516992Y-115222084D01*
%TO.C,L12*%
X215351324Y-87476391D02*
X221248595Y-93373661D01*
X215351324Y-87476391D02*
X220938175Y-81889540D01*
X221248595Y-93373661D02*
X226835446Y-87786811D01*
X222520680Y-80307035D02*
X228107531Y-74720184D01*
X228417951Y-86204306D02*
X234004801Y-80617455D01*
X228107531Y-74720184D02*
X234004801Y-80617455D01*
%TO.C,L9*%
X201000324Y-87476391D02*
X206897595Y-93373661D01*
X201000324Y-87476391D02*
X206587175Y-81889540D01*
X206897595Y-93373661D02*
X212484446Y-87786811D01*
X208169680Y-80307035D02*
X213756531Y-74720184D01*
X214066951Y-86204306D02*
X219653801Y-80617455D01*
X213756531Y-74720184D02*
X219653801Y-80617455D01*
%TO.C,J1*%
X170087909Y-99487923D02*
X170087909Y-102387923D01*
X171992909Y-97582923D02*
X174892909Y-97582923D01*
X171992909Y-104292923D02*
X174892909Y-104292923D01*
X176797909Y-99487923D02*
X176797909Y-102387923D01*
%TO.C,L3*%
X171040338Y-87503468D02*
X176937609Y-93400738D01*
X171040338Y-87503468D02*
X176627189Y-81916617D01*
X176937609Y-93400738D02*
X182524460Y-87813888D01*
X178209694Y-80334112D02*
X183796545Y-74747261D01*
X184106965Y-86231383D02*
X189693815Y-80644532D01*
X183796545Y-74747261D02*
X189693815Y-80644532D01*
%TO.C,L8*%
X200988247Y-73252391D02*
X206885518Y-79149661D01*
X200988247Y-73252391D02*
X206575098Y-67665540D01*
X206885518Y-79149661D02*
X212472369Y-73562811D01*
X208157603Y-66083035D02*
X213744454Y-60496184D01*
X214054874Y-71980306D02*
X219641724Y-66393455D01*
X213744454Y-60496184D02*
X219641724Y-66393455D01*
%TO.C,L4*%
X186172597Y-58955545D02*
X192069868Y-64852815D01*
X186172597Y-58955545D02*
X191759448Y-53368694D01*
X192069868Y-64852815D02*
X197656719Y-59265965D01*
X193341953Y-51786189D02*
X198928804Y-46199338D01*
X199239224Y-57683460D02*
X204826074Y-52096609D01*
X198928804Y-46199338D02*
X204826074Y-52096609D01*
%TO.C,J2*%
X259749909Y-88565923D02*
X259749909Y-91465923D01*
X261654909Y-86660923D02*
X264554909Y-86660923D01*
X261654909Y-93370923D02*
X264554909Y-93370923D01*
X266459909Y-88565923D02*
X266459909Y-91465923D01*
%TO.C,L13*%
X229417962Y-59055468D02*
X235315233Y-64952738D01*
X229417962Y-59055468D02*
X235004813Y-53468617D01*
X235315233Y-64952738D02*
X240902084Y-59365888D01*
X236587318Y-51886112D02*
X242174169Y-46299261D01*
X242484589Y-57783383D02*
X248071439Y-52196532D01*
X242174169Y-46299261D02*
X248071439Y-52196532D01*
%TO.C,L1*%
X171040338Y-59055468D02*
X176937609Y-64952738D01*
X171040338Y-59055468D02*
X176627189Y-53468617D01*
X176937609Y-64952738D02*
X182524460Y-59365888D01*
X178209694Y-51886112D02*
X183796545Y-46299261D01*
X184106965Y-57783383D02*
X189693815Y-52196532D01*
X183796545Y-46299261D02*
X189693815Y-52196532D01*
%TO.C,K24*%
X179984400Y-134322800D02*
X174396400Y-134322800D01*
X174396400Y-105620800D01*
X179984400Y-105620800D01*
X179984400Y-134322800D01*
%TO.C,L14*%
X229417962Y-73252391D02*
X235315233Y-79149661D01*
X229417962Y-73252391D02*
X235004813Y-67665540D01*
X235315233Y-79149661D02*
X240902084Y-73562811D01*
X236587318Y-66083035D02*
X242174169Y-60496184D01*
X242484589Y-71980306D02*
X248071439Y-66393455D01*
X242174169Y-60496184D02*
X248071439Y-66393455D01*
%TO.C,L7*%
X201000324Y-59055468D02*
X206897595Y-64952738D01*
X201000324Y-59055468D02*
X206587175Y-53468617D01*
X206897595Y-64952738D02*
X212484446Y-59365888D01*
X208169680Y-51886112D02*
X213756531Y-46299261D01*
X214066951Y-57783383D02*
X219653801Y-52196532D01*
X213756531Y-46299261D02*
X219653801Y-52196532D01*
%TO.C,L28*%
X223863515Y-107884097D02*
X229760786Y-113781367D01*
X223863515Y-107884097D02*
X229450366Y-102297246D01*
X229760786Y-113781367D02*
X235347637Y-108194517D01*
X231032871Y-100714741D02*
X236619722Y-95127890D01*
X236930142Y-106612012D02*
X242516992Y-101025161D01*
X236619722Y-95127890D02*
X242516992Y-101025161D01*
%TO.C,L5*%
X186287520Y-73052545D02*
X192184791Y-78949815D01*
X186287520Y-73052545D02*
X191874371Y-67465694D01*
X192184791Y-78949815D02*
X197771642Y-73362965D01*
X193456876Y-65883189D02*
X199043727Y-60296338D01*
X199354147Y-71780460D02*
X204940997Y-66193609D01*
X199043727Y-60296338D02*
X204940997Y-66193609D01*
%TO.C,L22*%
X195470170Y-107288391D02*
X201367441Y-113185661D01*
X195470170Y-107288391D02*
X201057021Y-101701540D01*
X201367441Y-113185661D02*
X206954292Y-107598811D01*
X202639526Y-100119035D02*
X208226377Y-94532184D01*
X208536797Y-106016306D02*
X214123647Y-100429455D01*
X208226377Y-94532184D02*
X214123647Y-100429455D01*
%TO.C,L32*%
X238526093Y-122374314D02*
X244423364Y-128271584D01*
X238526093Y-122374314D02*
X244112944Y-116787463D01*
X244423364Y-128271584D02*
X250010215Y-122684734D01*
X245695449Y-115204958D02*
X251282300Y-109618107D01*
X251592720Y-121102229D02*
X257179570Y-115515378D01*
X251282300Y-109618107D02*
X257179570Y-115515378D01*
%TO.C,L19*%
X181469808Y-107427702D02*
X187367079Y-113324972D01*
X181469808Y-107427702D02*
X187056659Y-101840851D01*
X187367079Y-113324972D02*
X192953930Y-107738122D01*
X188639164Y-100258346D02*
X194226015Y-94671495D01*
X194536435Y-106155617D02*
X200123285Y-100568766D01*
X194226015Y-94671495D02*
X200123285Y-100568766D01*
%TO.C,L2*%
X171040338Y-73271545D02*
X176937609Y-79168815D01*
X171040338Y-73271545D02*
X176627189Y-67684694D01*
X176937609Y-79168815D02*
X182524460Y-73581965D01*
X178209694Y-66102189D02*
X183796545Y-60515338D01*
X184106965Y-71999460D02*
X189693815Y-66412609D01*
X183796545Y-60515338D02*
X189693815Y-66412609D01*
%TO.C,L30*%
X223979184Y-136305020D02*
X229876455Y-142202290D01*
X223979184Y-136305020D02*
X229566035Y-130718169D01*
X229876455Y-142202290D02*
X235463306Y-136615440D01*
X231148540Y-129135664D02*
X236735391Y-123548813D01*
X237045811Y-135032935D02*
X242632661Y-129446084D01*
X236735391Y-123548813D02*
X242632661Y-129446084D01*
%TO.C,L16*%
X243233885Y-59024195D02*
X249131156Y-64921465D01*
X243233885Y-59024195D02*
X248820736Y-53437344D01*
X249131156Y-64921465D02*
X254718007Y-59334615D01*
X250403241Y-51854839D02*
X255990092Y-46267988D01*
X256300512Y-57752110D02*
X261887362Y-52165259D01*
X255990092Y-46267988D02*
X261887362Y-52165259D01*
%TO.C,L18*%
X243233885Y-87445118D02*
X249131156Y-93342388D01*
X243233885Y-87445118D02*
X248820736Y-81858267D01*
X249131156Y-93342388D02*
X254718007Y-87755538D01*
X250403241Y-80275762D02*
X255990092Y-74688911D01*
X256300512Y-86173033D02*
X261887362Y-80586182D01*
X255990092Y-74688911D02*
X261887362Y-80586182D01*
%TO.C,L10*%
X215351324Y-59055468D02*
X221248595Y-64952738D01*
X215351324Y-59055468D02*
X220938175Y-53468617D01*
X221248595Y-64952738D02*
X226835446Y-59365888D01*
X222520680Y-51886112D02*
X228107531Y-46299261D01*
X228417951Y-57783383D02*
X234004801Y-52196532D01*
X228107531Y-46299261D02*
X234004801Y-52196532D01*
%TO.C,L27*%
X209397731Y-136102625D02*
X215295002Y-141999895D01*
X209397731Y-136102625D02*
X214984582Y-130515774D01*
X215295002Y-141999895D02*
X220881853Y-136413045D01*
X216567087Y-128933269D02*
X222153938Y-123346418D01*
X222464358Y-134830540D02*
X228051208Y-129243689D01*
X222153938Y-123346418D02*
X228051208Y-129243689D01*
%TO.C,L25*%
X209536808Y-107554702D02*
X215434079Y-113451972D01*
X209536808Y-107554702D02*
X215123659Y-101967851D01*
X215434079Y-113451972D02*
X221020930Y-107865122D01*
X216706164Y-100385346D02*
X222293015Y-94798495D01*
X222603435Y-106282617D02*
X228190285Y-100695766D01*
X222293015Y-94798495D02*
X228190285Y-100695766D01*
%TO.C,L11*%
X215339247Y-73252391D02*
X221236518Y-79149661D01*
X215339247Y-73252391D02*
X220926098Y-67665540D01*
X221236518Y-79149661D02*
X226823369Y-73562811D01*
X222508603Y-66083035D02*
X228095454Y-60496184D01*
X228405874Y-71980306D02*
X233992724Y-66393455D01*
X228095454Y-60496184D02*
X233992724Y-66393455D01*
%TO.C,L20*%
X181469808Y-121624625D02*
X187367079Y-127521895D01*
X181469808Y-121624625D02*
X187056659Y-116037774D01*
X187367079Y-127521895D02*
X192953930Y-121935045D01*
X188639164Y-114455269D02*
X194226015Y-108868418D01*
X194536435Y-120352540D02*
X200123285Y-114765689D01*
X194226015Y-108868418D02*
X200123285Y-114765689D01*
%TO.C,L6*%
X186172597Y-87403545D02*
X192069868Y-93300815D01*
X186172597Y-87403545D02*
X191759448Y-81816694D01*
X192069868Y-93300815D02*
X197656719Y-87713965D01*
X193341953Y-80234189D02*
X198928804Y-74647338D01*
X199239224Y-86131460D02*
X204826074Y-80544609D01*
X198928804Y-74647338D02*
X204826074Y-80544609D01*
%TO.C,L17*%
X243233885Y-73221118D02*
X249131156Y-79118388D01*
X243233885Y-73221118D02*
X248820736Y-67634267D01*
X249131156Y-79118388D02*
X254718007Y-73531538D01*
X250403241Y-66051762D02*
X255990092Y-60464911D01*
X256300512Y-71949033D02*
X261887362Y-66362182D01*
X255990092Y-60464911D02*
X261887362Y-66362182D01*
%TO.C,L15*%
X229405885Y-87476391D02*
X235303156Y-93373661D01*
X229405885Y-87476391D02*
X234992736Y-81889540D01*
X235303156Y-93373661D02*
X240890007Y-87786811D01*
X236575241Y-80307035D02*
X242162092Y-74720184D01*
X242472512Y-86204306D02*
X248059362Y-80617455D01*
X242162092Y-74720184D02*
X248059362Y-80617455D01*
%TO.C,L24*%
X195473261Y-135729468D02*
X201370532Y-141626738D01*
X195473261Y-135729468D02*
X201060112Y-130142617D01*
X201370532Y-141626738D02*
X206957383Y-136039888D01*
X202642617Y-128560112D02*
X208229468Y-122973261D01*
X208539888Y-134457383D02*
X214126738Y-128870532D01*
X208229468Y-122973261D02*
X214126738Y-128870532D01*
%TO.C,L31*%
X238538170Y-108050391D02*
X244435441Y-113947661D01*
X238538170Y-108050391D02*
X244125021Y-102463540D01*
X244435441Y-113947661D02*
X250022292Y-108360811D01*
X245707526Y-100881035D02*
X251294377Y-95294184D01*
X251604797Y-106778306D02*
X257191647Y-101191455D01*
X251294377Y-95294184D02*
X257191647Y-101191455D01*
%TO.C,L26*%
X209524731Y-121751625D02*
X215422002Y-127648895D01*
X209524731Y-121751625D02*
X215111582Y-116164774D01*
X215422002Y-127648895D02*
X221008853Y-122062045D01*
X216694087Y-114582269D02*
X222280938Y-108995418D01*
X222591358Y-120479540D02*
X228178208Y-114892689D01*
X222280938Y-108995418D02*
X228178208Y-114892689D01*
%TD*%
M02*
