%TF.GenerationSoftware,KiCad,Pcbnew,8.0.3*%
%TF.CreationDate,2024-07-11T18:12:52-04:00*%
%TF.ProjectId,K9HZ_100W_11band_LPF-Filter,4b39485a-5f31-4303-9057-5f313162616e,rev?*%
%TF.SameCoordinates,Original*%
%TF.FileFunction,Paste,Top*%
%TF.FilePolarity,Positive*%
%FSLAX46Y46*%
G04 Gerber Fmt 4.6, Leading zero omitted, Abs format (unit mm)*
G04 Created by KiCad (PCBNEW 8.0.3) date 2024-07-11 18:12:52*
%MOMM*%
%LPD*%
G01*
G04 APERTURE LIST*
G04 Aperture macros list*
%AMRoundRect*
0 Rectangle with rounded corners*
0 $1 Rounding radius*
0 $2 $3 $4 $5 $6 $7 $8 $9 X,Y pos of 4 corners*
0 Add a 4 corners polygon primitive as box body*
4,1,4,$2,$3,$4,$5,$6,$7,$8,$9,$2,$3,0*
0 Add four circle primitives for the rounded corners*
1,1,$1+$1,$2,$3*
1,1,$1+$1,$4,$5*
1,1,$1+$1,$6,$7*
1,1,$1+$1,$8,$9*
0 Add four rect primitives between the rounded corners*
20,1,$1+$1,$2,$3,$4,$5,0*
20,1,$1+$1,$4,$5,$6,$7,0*
20,1,$1+$1,$6,$7,$8,$9,0*
20,1,$1+$1,$8,$9,$2,$3,0*%
G04 Aperture macros list end*
%ADD10RoundRect,0.336956X0.563044X-0.438044X0.563044X0.438044X-0.563044X0.438044X-0.563044X-0.438044X0*%
%ADD11RoundRect,0.336956X-0.563044X0.438044X-0.563044X-0.438044X0.563044X-0.438044X0.563044X0.438044X0*%
%ADD12RoundRect,0.336956X0.088388X-0.707876X0.707876X-0.088388X-0.088388X0.707876X-0.707876X0.088388X0*%
%ADD13RoundRect,0.336956X-0.707876X-0.088388X-0.088388X-0.707876X0.707876X0.088388X0.088388X0.707876X0*%
%ADD14RoundRect,0.336956X0.438044X0.563044X-0.438044X0.563044X-0.438044X-0.563044X0.438044X-0.563044X0*%
G04 APERTURE END LIST*
D10*
%TO.C,C106*%
X173188909Y-114862923D03*
X173188909Y-112412923D03*
%TD*%
D11*
%TO.C,C105*%
X173188909Y-107078923D03*
X173188909Y-109528923D03*
%TD*%
D12*
%TO.C,C99*%
X253125065Y-122492818D03*
X254857477Y-120760406D03*
%TD*%
%TO.C,C98*%
X252363065Y-94298818D03*
X254095477Y-92566406D03*
%TD*%
D13*
%TO.C,C90*%
X240609410Y-126436112D03*
X242341822Y-128168524D03*
%TD*%
D12*
%TO.C,C89*%
X244767588Y-95032412D03*
X246500000Y-93300000D03*
%TD*%
D13*
%TO.C,C83*%
X226297703Y-125852717D03*
X228030115Y-127585129D03*
%TD*%
D12*
%TO.C,C82*%
X223533794Y-94166206D03*
X225266206Y-92433794D03*
%TD*%
D13*
%TO.C,C76*%
X211723065Y-125078406D03*
X213455477Y-126810818D03*
%TD*%
D12*
%TO.C,C75*%
X202167588Y-94932412D03*
X203900000Y-93200000D03*
%TD*%
D13*
%TO.C,C65*%
X197833794Y-125933794D03*
X199566206Y-127666206D03*
%TD*%
D12*
%TO.C,C64*%
X209667588Y-94132412D03*
X211400000Y-92400000D03*
%TD*%
%TO.C,C58*%
X257355358Y-74113839D03*
X259087770Y-72381427D03*
%TD*%
D14*
%TO.C,C57*%
X257125000Y-44400000D03*
X254675000Y-44400000D03*
%TD*%
D13*
%TO.C,C49*%
X246667588Y-77067588D03*
X248400000Y-78800000D03*
%TD*%
D14*
%TO.C,C48*%
X243425000Y-44200000D03*
X240975000Y-44200000D03*
%TD*%
D13*
%TO.C,C38*%
X232569703Y-77238700D03*
X234302115Y-78971112D03*
%TD*%
D14*
%TO.C,C37*%
X229200000Y-44400000D03*
X226750000Y-44400000D03*
%TD*%
D13*
%TO.C,C26*%
X218423703Y-77465717D03*
X220156115Y-79198129D03*
%TD*%
D14*
%TO.C,C25*%
X214925000Y-44300000D03*
X212475000Y-44300000D03*
%TD*%
D13*
%TO.C,C14*%
X203495959Y-77238700D03*
X205228371Y-78971112D03*
%TD*%
D14*
%TO.C,C13*%
X199500000Y-44300000D03*
X197050000Y-44300000D03*
%TD*%
%TO.C,C1*%
X182250000Y-44400000D03*
X184700000Y-44400000D03*
%TD*%
D13*
%TO.C,C2*%
X188490794Y-77465717D03*
X190223206Y-79198129D03*
%TD*%
M02*
