%TF.GenerationSoftware,KiCad,Pcbnew,8.0.3*%
%TF.CreationDate,2024-07-11T18:12:52-04:00*%
%TF.ProjectId,K9HZ_100W_11band_LPF-Filter,4b39485a-5f31-4303-9057-5f313162616e,rev?*%
%TF.SameCoordinates,Original*%
%TF.FileFunction,Paste,Bot*%
%TF.FilePolarity,Positive*%
%FSLAX46Y46*%
G04 Gerber Fmt 4.6, Leading zero omitted, Abs format (unit mm)*
G04 Created by KiCad (PCBNEW 8.0.3) date 2024-07-11 18:12:52*
%MOMM*%
%LPD*%
G01*
G04 APERTURE LIST*
G04 Aperture macros list*
%AMRoundRect*
0 Rectangle with rounded corners*
0 $1 Rounding radius*
0 $2 $3 $4 $5 $6 $7 $8 $9 X,Y pos of 4 corners*
0 Add a 4 corners polygon primitive as box body*
4,1,4,$2,$3,$4,$5,$6,$7,$8,$9,$2,$3,0*
0 Add four circle primitives for the rounded corners*
1,1,$1+$1,$2,$3*
1,1,$1+$1,$4,$5*
1,1,$1+$1,$6,$7*
1,1,$1+$1,$8,$9*
0 Add four rect primitives between the rounded corners*
20,1,$1+$1,$2,$3,$4,$5,0*
20,1,$1+$1,$4,$5,$6,$7,0*
20,1,$1+$1,$6,$7,$8,$9,0*
20,1,$1+$1,$8,$9,$2,$3,0*%
G04 Aperture macros list end*
%ADD10RoundRect,0.336956X0.088388X-0.707876X0.707876X-0.088388X-0.088388X0.707876X-0.707876X0.088388X0*%
%ADD11RoundRect,0.336956X-0.088388X0.707876X-0.707876X0.088388X0.088388X-0.707876X0.707876X-0.088388X0*%
%ADD12RoundRect,0.336956X0.707876X0.088388X0.088388X0.707876X-0.707876X-0.088388X-0.088388X-0.707876X0*%
%ADD13RoundRect,0.336956X-0.707876X-0.088388X-0.088388X-0.707876X0.707876X0.088388X0.088388X0.707876X0*%
G04 APERTURE END LIST*
D10*
%TO.C,C73*%
X190067588Y-139632412D03*
X191800000Y-137900000D03*
%TD*%
%TO.C,C55*%
X234776341Y-94438129D03*
X236508753Y-92705717D03*
%TD*%
%TO.C,C46*%
X221344703Y-95073129D03*
X223077115Y-93340717D03*
%TD*%
%TO.C,C10*%
X177441794Y-95073129D03*
X179174206Y-93340717D03*
%TD*%
%TO.C,C22*%
X191530976Y-95708129D03*
X193263388Y-93975717D03*
%TD*%
%TO.C,C103*%
X247633703Y-140031129D03*
X249366115Y-138298717D03*
%TD*%
%TO.C,C96*%
X232959048Y-139864835D03*
X234691460Y-138132423D03*
%TD*%
%TO.C,C87*%
X218774341Y-140170440D03*
X220506753Y-138438028D03*
%TD*%
%TO.C,C80*%
X204707703Y-139269129D03*
X206440115Y-137536717D03*
%TD*%
%TO.C,C62*%
X252810341Y-91231856D03*
X254542753Y-89499444D03*
%TD*%
D11*
%TO.C,C54*%
X241266206Y-89733794D03*
X239533794Y-91466206D03*
%TD*%
%TO.C,C45*%
X226887115Y-89530717D03*
X225154703Y-91263129D03*
%TD*%
D10*
%TO.C,C34*%
X208733794Y-92632412D03*
X210466206Y-90900000D03*
%TD*%
D11*
%TO.C,C21*%
X197073388Y-90165717D03*
X195340976Y-91898129D03*
%TD*%
D10*
%TO.C,C9*%
X179933794Y-97666206D03*
X181666206Y-95933794D03*
%TD*%
D11*
%TO.C,C72*%
X197132412Y-132367588D03*
X195400000Y-134100000D03*
%TD*%
D10*
%TO.C,C33*%
X200867588Y-87732412D03*
X202600000Y-86000000D03*
%TD*%
D11*
%TO.C,C44*%
X224982115Y-77465717D03*
X223249703Y-79198129D03*
%TD*%
D10*
%TO.C,C32*%
X202767588Y-82932412D03*
X204500000Y-81200000D03*
%TD*%
%TO.C,C20*%
X188990976Y-84278129D03*
X190723388Y-82545717D03*
%TD*%
%TO.C,C95*%
X226609048Y-133514835D03*
X228341460Y-131782423D03*
%TD*%
D11*
%TO.C,C8*%
X180444206Y-76830717D03*
X178711794Y-78563129D03*
%TD*%
%TO.C,C71*%
X190732412Y-126267588D03*
X189000000Y-128000000D03*
%TD*%
D10*
%TO.C,C102*%
X241283703Y-133681129D03*
X243016115Y-131948717D03*
%TD*%
%TO.C,C86*%
X211567588Y-132732412D03*
X213300000Y-131000000D03*
%TD*%
D11*
%TO.C,C79*%
X205805115Y-125471717D03*
X204072703Y-127204129D03*
%TD*%
%TO.C,C61*%
X253000000Y-77400000D03*
X251267588Y-79132412D03*
%TD*%
D10*
%TO.C,C53*%
X231533794Y-84666206D03*
X233266206Y-82933794D03*
%TD*%
%TO.C,C7*%
X172996794Y-84278129D03*
X174729206Y-82545717D03*
%TD*%
D11*
%TO.C,C19*%
X195803388Y-77465717D03*
X194070976Y-79198129D03*
%TD*%
%TO.C,C31*%
X210631115Y-77465717D03*
X208898703Y-79198129D03*
%TD*%
D10*
%TO.C,C70*%
X183567588Y-132932412D03*
X185300000Y-131200000D03*
%TD*%
%TO.C,C43*%
X218169703Y-84278129D03*
X219902115Y-82545717D03*
%TD*%
D11*
%TO.C,C94*%
X234056460Y-126067423D03*
X232324048Y-127799835D03*
%TD*%
%TO.C,C74*%
X193709753Y-115832028D03*
X191977341Y-117564440D03*
%TD*%
D12*
%TO.C,C104*%
X251766206Y-116866206D03*
X250033794Y-115133794D03*
%TD*%
D11*
%TO.C,C97*%
X234691460Y-115272423D03*
X232959048Y-117004835D03*
%TD*%
D12*
%TO.C,C56*%
X240500000Y-69600000D03*
X238767588Y-67867588D03*
%TD*%
D11*
%TO.C,C36*%
X214441115Y-67940717D03*
X212708703Y-69673129D03*
%TD*%
%TO.C,C35*%
X212536115Y-66035717D03*
X210803703Y-67768129D03*
%TD*%
%TO.C,C81*%
X206343477Y-114664406D03*
X204611065Y-116396818D03*
%TD*%
D10*
%TO.C,C63*%
X253445341Y-67736856D03*
X255177753Y-66004444D03*
%TD*%
D12*
%TO.C,C88*%
X219366206Y-119666206D03*
X217633794Y-117933794D03*
%TD*%
D11*
%TO.C,C24*%
X199613388Y-67305717D03*
X197880976Y-69038129D03*
%TD*%
%TO.C,C23*%
X197708388Y-65400717D03*
X195975976Y-67133129D03*
%TD*%
%TO.C,C12*%
X184254206Y-67940717D03*
X182521794Y-69673129D03*
%TD*%
%TO.C,C11*%
X182349206Y-66035717D03*
X180616794Y-67768129D03*
%TD*%
D12*
%TO.C,C47*%
X227000000Y-69300000D03*
X225267588Y-67567588D03*
%TD*%
D10*
%TO.C,C30*%
X208263703Y-74118129D03*
X209996115Y-72385717D03*
%TD*%
%TO.C,C18*%
X193435976Y-73483129D03*
X195168388Y-71750717D03*
%TD*%
%TO.C,C6*%
X178076794Y-74118129D03*
X179809206Y-72385717D03*
%TD*%
%TO.C,C42*%
X220074703Y-72213129D03*
X221807115Y-70480717D03*
%TD*%
%TO.C,C93*%
X232733794Y-120566206D03*
X234466206Y-118833794D03*
%TD*%
%TO.C,C69*%
X188167341Y-122644440D03*
X189899753Y-120912028D03*
%TD*%
%TO.C,C101*%
X246363703Y-119711129D03*
X248096115Y-117978717D03*
%TD*%
D12*
%TO.C,C85*%
X221700000Y-117600000D03*
X219967588Y-115867588D03*
%TD*%
D10*
%TO.C,C78*%
X204072703Y-120219129D03*
X205805115Y-118486717D03*
%TD*%
%TO.C,C60*%
X249000341Y-72181856D03*
X250732753Y-70449444D03*
%TD*%
D12*
%TO.C,C52*%
X237866206Y-72866206D03*
X236133794Y-71133794D03*
%TD*%
D10*
%TO.C,C17*%
X191530976Y-71578129D03*
X193263388Y-69845717D03*
%TD*%
%TO.C,C5*%
X176171794Y-72213129D03*
X177904206Y-70480717D03*
%TD*%
%TO.C,C29*%
X206358703Y-72213129D03*
X208091115Y-70480717D03*
%TD*%
%TO.C,C41*%
X221979703Y-74118129D03*
X223712115Y-72385717D03*
%TD*%
%TO.C,C68*%
X186262341Y-120739440D03*
X187994753Y-119007028D03*
%TD*%
D11*
%TO.C,C92*%
X232500000Y-111200000D03*
X230767588Y-112932412D03*
%TD*%
%TO.C,C28*%
X210631115Y-48255717D03*
X208898703Y-49988129D03*
%TD*%
%TO.C,C100*%
X248821006Y-97736594D03*
X247088594Y-99469006D03*
%TD*%
%TO.C,C91*%
X234038206Y-97965194D03*
X232305794Y-99697606D03*
%TD*%
%TO.C,C84*%
X219687206Y-97304794D03*
X217954794Y-99037206D03*
%TD*%
%TO.C,C77*%
X205920406Y-96949194D03*
X204187994Y-98681606D03*
%TD*%
D13*
%TO.C,C67*%
X180616794Y-103857994D03*
X182349206Y-105590406D03*
%TD*%
D11*
%TO.C,C59*%
X253907753Y-48224444D03*
X252175341Y-49956856D03*
%TD*%
D10*
%TO.C,C51*%
X231601341Y-56338129D03*
X233333753Y-54605717D03*
%TD*%
%TO.C,C40*%
X217534703Y-56338129D03*
X219267115Y-54605717D03*
%TD*%
%TO.C,C27*%
X202548703Y-56338129D03*
X204281115Y-54605717D03*
%TD*%
%TO.C,C16*%
X187720976Y-55703129D03*
X189453388Y-53970717D03*
%TD*%
%TO.C,C4*%
X172996794Y-55068129D03*
X174729206Y-53335717D03*
%TD*%
D11*
%TO.C,C3*%
X179809206Y-48255717D03*
X178076794Y-49988129D03*
%TD*%
%TO.C,C50*%
X239683753Y-48255717D03*
X237951341Y-49988129D03*
%TD*%
%TO.C,C15*%
X195168388Y-48255717D03*
X193435976Y-49988129D03*
%TD*%
%TO.C,C39*%
X225617115Y-48255717D03*
X223884703Y-49988129D03*
%TD*%
D13*
%TO.C,C66*%
X183537794Y-101241794D03*
X185270206Y-102974206D03*
%TD*%
M02*
